<?xml version="1.0" encoding="UTF-8" standalone="no"?>
<!-- Created with Inkscape (http://www.inkscape.org/) -->

<svg
   xmlns:dc="http://purl.org/dc/elements/1.1/"
   xmlns:cc="http://creativecommons.org/ns#"
   xmlns:rdf="http://www.w3.org/1999/02/22-rdf-syntax-ns#"
   xmlns:svg="http://www.w3.org/2000/svg"
   xmlns="http://www.w3.org/2000/svg"
   xmlns:sodipodi="http://sodipodi.sourceforge.net/DTD/sodipodi-0.dtd"
   xmlns:inkscape="http://www.inkscape.org/namespaces/inkscape"
   width="90.552727mm"
   height="89.746048mm"
   viewBox="0 0 90.552727 89.746048"
   version="1.1"
   id="svg8"
   inkscape:version="0.92.3 (2405546, 2018-03-11)"
   sodipodi:docname="CPLS2.svg">
  <sodipodi:namedview
     id="base"
     pagecolor="#ffffff"
     bordercolor="#666666"
     borderopacity="1.0"
     inkscape:pageopacity="0.0"
     inkscape:pageshadow="2"
     inkscape:zoom="2.7375486"
     inkscape:cx="222.17639"
     inkscape:cy="194.92244"
     inkscape:document-units="mm"
     inkscape:current-layer="layer1"
     showgrid="false"
     inkscape:window-width="1853"
     inkscape:window-height="1025"
     inkscape:window-x="67"
     inkscape:window-y="27"
     inkscape:window-maximized="1"
     inkscape:snap-global="false"
     fit-margin-top="0"
     fit-margin-left="0"
     fit-margin-right="0"
     fit-margin-bottom="0" />
  <defs
     id="defs2">
    <marker
       inkscape:isstock="true"
       style="overflow:visible"
       id="marker2537"
       refX="0"
       refY="0"
       orient="auto"
       inkscape:stockid="Arrow1Lend">
      <path
         transform="matrix(-0.8,0,0,-0.8,-10,0)"
         style="fill:#4e9a06;fill-opacity:1;fill-rule:evenodd;stroke:#4e9a06;stroke-width:1.00000003pt;stroke-opacity:1"
         d="M 0,0 5,-5 -12.5,0 5,5 Z"
         id="path2535"
         inkscape:connector-curvature="0" />
    </marker>
    <marker
       inkscape:stockid="Arrow1Lend"
       orient="auto"
       refY="0"
       refX="0"
       id="Arrow1Lend"
       style="overflow:visible"
       inkscape:isstock="true"
       inkscape:collect="always">
      <path
         id="path1003"
         d="M 0,0 5,-5 -12.5,0 5,5 Z"
         style="fill:#000000;fill-opacity:1;fill-rule:evenodd;stroke:#000000;stroke-width:1.00000003pt;stroke-opacity:1"
         transform="matrix(-0.8,0,0,-0.8,-10,0)"
         inkscape:connector-curvature="0" />
    </marker>
    <marker
       inkscape:stockid="Arrow1Lstart"
       orient="auto"
       refY="0"
       refX="0"
       id="Arrow1Lstart"
       style="overflow:visible"
       inkscape:isstock="true">
      <path
         id="path1000"
         d="M 0,0 5,-5 -12.5,0 5,5 Z"
         style="fill:#000000;fill-opacity:1;fill-rule:evenodd;stroke:#000000;stroke-width:1.00000003pt;stroke-opacity:1"
         transform="matrix(0.8,0,0,0.8,10,0)"
         inkscape:connector-curvature="0" />
    </marker>
    <marker
       inkscape:stockid="Arrow1Mend"
       orient="auto"
       refY="0"
       refX="0"
       id="Arrow1Mend"
       style="overflow:visible"
       inkscape:isstock="true">
      <path
         id="path1009"
         d="M 0,0 5,-5 -12.5,0 5,5 Z"
         style="fill:#000000;fill-opacity:1;fill-rule:evenodd;stroke:#000000;stroke-width:1.00000003pt;stroke-opacity:1"
         transform="matrix(-0.4,0,0,-0.4,-4,0)"
         inkscape:connector-curvature="0" />
    </marker>
    <marker
       inkscape:stockid="Arrow2Mstart"
       orient="auto"
       refY="0"
       refX="0"
       id="Arrow2Mstart"
       style="overflow:visible"
       inkscape:isstock="true">
      <path
         id="path1024"
         style="fill:#000000;fill-opacity:1;fill-rule:evenodd;stroke:#000000;stroke-width:0.625;stroke-linejoin:round;stroke-opacity:1"
         d="M 8.7185878,4.0337352 -2.2072895,0.01601326 8.7185884,-4.0017078 c -1.7454984,2.3720609 -1.7354408,5.6174519 -6e-7,8.035443 z"
         transform="scale(0.6)"
         inkscape:connector-curvature="0" />
    </marker>
    <marker
       inkscape:stockid="Arrow1Lstart"
       orient="auto"
       refY="0"
       refX="0"
       id="Arrow1Lstart-9"
       style="overflow:visible"
       inkscape:isstock="true">
      <path
         inkscape:connector-curvature="0"
         id="path1000-2"
         d="M 0,0 5,-5 -12.5,0 5,5 Z"
         style="fill:#000000;fill-opacity:1;fill-rule:evenodd;stroke:#000000;stroke-width:1.00000003pt;stroke-opacity:1"
         transform="matrix(0.8,0,0,0.8,10,0)" />
    </marker>
    <marker
       inkscape:stockid="Arrow1Lend"
       orient="auto"
       refY="0"
       refX="0"
       id="Arrow1Lend-8"
       style="overflow:visible"
       inkscape:isstock="true">
      <path
         inkscape:connector-curvature="0"
         id="path1003-3"
         d="M 0,0 5,-5 -12.5,0 5,5 Z"
         style="fill:#000000;fill-opacity:1;fill-rule:evenodd;stroke:#000000;stroke-width:1.00000003pt;stroke-opacity:1"
         transform="matrix(-0.8,0,0,-0.8,-10,0)" />
    </marker>
  </defs>
  <metadata
     id="metadata5">
    <rdf:RDF>
      <cc:Work
         rdf:about="">
        <dc:format>image/svg+xml</dc:format>
        <dc:type
           rdf:resource="http://purl.org/dc/dcmitype/StillImage" />
        <dc:title></dc:title>
      </cc:Work>
    </rdf:RDF>
  </metadata>
  <g
     inkscape:label="Layer 1"
     inkscape:groupmode="layer"
     id="layer1"
     transform="translate(-6.1787589,-86.946229)">
    <path
       inkscape:connector-curvature="0"
       id="path815"
       d="m 38.846983,88.797035 a 1.0142192,1.0142192 0 0 1 -1.014219,1.014219 1.0142192,1.0142192 0 0 1 -1.014219,-1.014219 1.0142192,1.0142192 0 0 1 1.014219,-1.014219 1.0142192,1.0142192 0 0 1 1.014219,1.014219 z"
       style="opacity:1;fill:#3465a4;fill-opacity:1;stroke:#3465a4;stroke-width:0.4227477;stroke-linecap:round;stroke-linejoin:round;stroke-miterlimit:4;stroke-dasharray:none;stroke-dashoffset:0;stroke-opacity:1" />
    <path
       inkscape:connector-curvature="0"
       id="path815-5"
       d="m 52.671118,88.797035 a 1.0142192,1.0142192 0 0 1 -1.01422,1.014219 1.0142192,1.0142192 0 0 1 -1.014219,-1.014219 1.0142192,1.0142192 0 0 1 1.014219,-1.014219 1.0142192,1.0142192 0 0 1 1.01422,1.014219 z"
       style="opacity:1;fill:#000000;fill-opacity:1;stroke:#000000;stroke-width:0.4227477;stroke-linecap:round;stroke-linejoin:round;stroke-miterlimit:4;stroke-dasharray:none;stroke-dashoffset:0;stroke-opacity:1" />
    <path
       inkscape:connector-curvature="0"
       id="path815-6"
       d="m 66.495252,88.797035 a 1.0142192,1.0142192 0 0 1 -1.014219,1.014219 1.0142192,1.0142192 0 0 1 -1.014219,-1.014219 1.0142192,1.0142192 0 0 1 1.014219,-1.014219 1.0142192,1.0142192 0 0 1 1.014219,1.014219 z"
       style="opacity:1;fill:#000000;fill-opacity:1;stroke:#000000;stroke-width:0.4227477;stroke-linecap:round;stroke-linejoin:round;stroke-miterlimit:4;stroke-dasharray:none;stroke-dashoffset:0;stroke-opacity:1" />
    <path
       inkscape:connector-curvature="0"
       id="path815-59"
       d="m 80.319387,88.797035 a 1.0142192,1.0142192 0 0 1 -1.014219,1.014219 1.0142192,1.0142192 0 0 1 -1.014219,-1.014219 1.0142192,1.0142192 0 0 1 1.014219,-1.014219 1.0142192,1.0142192 0 0 1 1.014219,1.014219 z"
       style="opacity:1;fill:#000000;fill-opacity:1;stroke:#000000;stroke-width:0.4227477;stroke-linecap:round;stroke-linejoin:round;stroke-miterlimit:4;stroke-dasharray:none;stroke-dashoffset:0;stroke-opacity:1" />
    <path
       inkscape:connector-curvature="0"
       id="path815-4"
       d="m 94.143522,88.797035 a 1.0142192,1.0142192 0 0 1 -1.014219,1.014219 1.0142192,1.0142192 0 0 1 -1.014219,-1.014219 1.0142192,1.0142192 0 0 1 1.014219,-1.014219 1.0142192,1.0142192 0 0 1 1.014219,1.014219 z"
       style="opacity:1;fill:#000000;fill-opacity:1;stroke:#000000;stroke-width:0.4227477;stroke-linecap:round;stroke-linejoin:round;stroke-miterlimit:4;stroke-dasharray:none;stroke-dashoffset:0;stroke-opacity:1" />
    <path
       inkscape:connector-curvature="0"
       id="path815-7"
       d="m 38.846983,112.31676 a 1.0142192,1.0142192 0 0 1 -1.014219,1.01422 1.0142192,1.0142192 0 0 1 -1.014219,-1.01422 1.0142192,1.0142192 0 0 1 1.014219,-1.01422 1.0142192,1.0142192 0 0 1 1.014219,1.01422 z"
       style="opacity:1;fill:#000000;fill-opacity:1;stroke:#000000;stroke-width:0.4227477;stroke-linecap:round;stroke-linejoin:round;stroke-miterlimit:4;stroke-dasharray:none;stroke-dashoffset:0;stroke-opacity:1" />
    <path
       inkscape:connector-curvature="0"
       id="path815-5-5"
       d="m 52.671118,112.31676 a 1.0142192,1.0142192 0 0 1 -1.01422,1.01422 1.0142192,1.0142192 0 0 1 -1.014219,-1.01422 1.0142192,1.0142192 0 0 1 1.014219,-1.01422 1.0142192,1.0142192 0 0 1 1.01422,1.01422 z"
       style="opacity:1;fill:#000000;fill-opacity:1;stroke:#000000;stroke-width:0.4227477;stroke-linecap:round;stroke-linejoin:round;stroke-miterlimit:4;stroke-dasharray:none;stroke-dashoffset:0;stroke-opacity:1" />
    <path
       inkscape:connector-curvature="0"
       id="path815-6-3"
       d="m 66.495252,112.31676 a 1.0142192,1.0142192 0 0 1 -1.014219,1.01422 1.0142192,1.0142192 0 0 1 -1.014219,-1.01422 1.0142192,1.0142192 0 0 1 1.014219,-1.01422 1.0142192,1.0142192 0 0 1 1.014219,1.01422 z"
       style="opacity:1;fill:#4e9a06;fill-opacity:1;stroke:#4e9a06;stroke-width:0.4227477;stroke-linecap:round;stroke-linejoin:round;stroke-miterlimit:4;stroke-dasharray:none;stroke-dashoffset:0;stroke-opacity:1" />
    <path
       inkscape:connector-curvature="0"
       id="path815-59-8"
       d="m 80.319387,112.31676 a 1.0142192,1.0142192 0 0 1 -1.014219,1.01422 1.0142192,1.0142192 0 0 1 -1.014219,-1.01422 1.0142192,1.0142192 0 0 1 1.014219,-1.01422 1.0142192,1.0142192 0 0 1 1.014219,1.01422 z"
       style="opacity:1;fill:#000000;fill-opacity:1;stroke:#000000;stroke-width:0.4227477;stroke-linecap:round;stroke-linejoin:round;stroke-miterlimit:4;stroke-dasharray:none;stroke-dashoffset:0;stroke-opacity:1" />
    <path
       inkscape:connector-curvature="0"
       id="path815-4-8"
       d="m 94.143522,112.31676 a 1.0142192,1.0142192 0 0 1 -1.014219,1.01422 1.0142192,1.0142192 0 0 1 -1.014219,-1.01422 1.0142192,1.0142192 0 0 1 1.014219,-1.01422 1.0142192,1.0142192 0 0 1 1.014219,1.01422 z"
       style="opacity:1;fill:#000000;fill-opacity:1;stroke:#000000;stroke-width:0.4227477;stroke-linecap:round;stroke-linejoin:round;stroke-miterlimit:4;stroke-dasharray:none;stroke-dashoffset:0;stroke-opacity:1" />
    <path
       inkscape:connector-curvature="0"
       id="path815-0"
       d="m 38.846983,135.83647 a 1.0142192,1.0142192 0 0 1 -1.014219,1.01422 1.0142192,1.0142192 0 0 1 -1.014219,-1.01422 1.0142192,1.0142192 0 0 1 1.014219,-1.01422 1.0142192,1.0142192 0 0 1 1.014219,1.01422 z"
       style="opacity:1;fill:#000000;fill-opacity:1;stroke:#000000;stroke-width:0.4227477;stroke-linecap:round;stroke-linejoin:round;stroke-miterlimit:4;stroke-dasharray:none;stroke-dashoffset:0;stroke-opacity:1" />
    <path
       inkscape:connector-curvature="0"
       id="path815-5-4"
       d="m 52.671118,135.83647 a 1.0142192,1.0142192 0 0 1 -1.01422,1.01422 1.0142192,1.0142192 0 0 1 -1.014219,-1.01422 1.0142192,1.0142192 0 0 1 1.014219,-1.01422 1.0142192,1.0142192 0 0 1 1.01422,1.01422 z"
       style="opacity:1;fill:#000000;fill-opacity:1;stroke:#000000;stroke-width:0.4227477;stroke-linecap:round;stroke-linejoin:round;stroke-miterlimit:4;stroke-dasharray:none;stroke-dashoffset:0;stroke-opacity:1" />
    <path
       inkscape:connector-curvature="0"
       id="path815-6-8"
       d="m 66.495252,135.83647 a 1.0142192,1.0142192 0 0 1 -1.014219,1.01422 1.0142192,1.0142192 0 0 1 -1.014219,-1.01422 1.0142192,1.0142192 0 0 1 1.014219,-1.01422 1.0142192,1.0142192 0 0 1 1.014219,1.01422 z"
       style="opacity:1;fill:#000000;fill-opacity:1;stroke:#000000;stroke-width:0.4227477;stroke-linecap:round;stroke-linejoin:round;stroke-miterlimit:4;stroke-dasharray:none;stroke-dashoffset:0;stroke-opacity:1" />
    <path
       inkscape:connector-curvature="0"
       id="path815-59-88"
       d="m 80.319387,135.83647 a 1.0142192,1.0142192 0 0 1 -1.014219,1.01422 1.0142192,1.0142192 0 0 1 -1.014219,-1.01422 1.0142192,1.0142192 0 0 1 1.014219,-1.01422 1.0142192,1.0142192 0 0 1 1.014219,1.01422 z"
       style="opacity:1;fill:#000000;fill-opacity:1;stroke:#000000;stroke-width:0.4227477;stroke-linecap:round;stroke-linejoin:round;stroke-miterlimit:4;stroke-dasharray:none;stroke-dashoffset:0;stroke-opacity:1" />
    <path
       inkscape:connector-curvature="0"
       id="path815-4-9"
       d="m 94.143522,135.83647 a 1.0142192,1.0142192 0 0 1 -1.014219,1.01422 1.0142192,1.0142192 0 0 1 -1.014219,-1.01422 1.0142192,1.0142192 0 0 1 1.014219,-1.01422 1.0142192,1.0142192 0 0 1 1.014219,1.01422 z"
       style="opacity:1;fill:#000000;fill-opacity:1;stroke:#000000;stroke-width:0.4227477;stroke-linecap:round;stroke-linejoin:round;stroke-miterlimit:4;stroke-dasharray:none;stroke-dashoffset:0;stroke-opacity:1" />
    <path
       inkscape:connector-curvature="0"
       id="path815-54"
       d="m 38.846983,147.59633 a 1.0142192,1.0142192 0 0 1 -1.014219,1.01422 1.0142192,1.0142192 0 0 1 -1.014219,-1.01422 1.0142192,1.0142192 0 0 1 1.014219,-1.01422 1.0142192,1.0142192 0 0 1 1.014219,1.01422 z"
       style="opacity:1;fill:#ef2929;fill-opacity:1;stroke:#ef2929;stroke-width:0.4227477;stroke-linecap:round;stroke-linejoin:round;stroke-miterlimit:4;stroke-dasharray:none;stroke-dashoffset:0;stroke-opacity:1" />
    <path
       inkscape:connector-curvature="0"
       id="path815-5-0"
       d="m 52.671118,147.59633 a 1.0142192,1.0142192 0 0 1 -1.01422,1.01422 1.0142192,1.0142192 0 0 1 -1.014219,-1.01422 1.0142192,1.0142192 0 0 1 1.014219,-1.01422 1.0142192,1.0142192 0 0 1 1.01422,1.01422 z"
       style="opacity:1;fill:#ef2929;fill-opacity:1;stroke:#ef2929;stroke-width:0.4227477;stroke-linecap:round;stroke-linejoin:round;stroke-miterlimit:4;stroke-dasharray:none;stroke-dashoffset:0;stroke-opacity:1" />
    <path
       inkscape:connector-curvature="0"
       id="path815-6-5"
       d="m 66.495252,147.59633 a 1.0142192,1.0142192 0 0 1 -1.014219,1.01422 1.0142192,1.0142192 0 0 1 -1.014219,-1.01422 1.0142192,1.0142192 0 0 1 1.014219,-1.01422 1.0142192,1.0142192 0 0 1 1.014219,1.01422 z"
       style="opacity:1;fill:#ef2929;fill-opacity:1;stroke:#ef2929;stroke-width:0.4227477;stroke-linecap:round;stroke-linejoin:round;stroke-miterlimit:4;stroke-dasharray:none;stroke-dashoffset:0;stroke-opacity:1" />
    <path
       inkscape:connector-curvature="0"
       id="path815-59-9"
       d="m 80.319387,147.59633 a 1.0142192,1.0142192 0 0 1 -1.014219,1.01422 1.0142192,1.0142192 0 0 1 -1.014219,-1.01422 1.0142192,1.0142192 0 0 1 1.014219,-1.01422 1.0142192,1.0142192 0 0 1 1.014219,1.01422 z"
       style="opacity:1;fill:#ef2929;fill-opacity:1;stroke:#ef2929;stroke-width:0.4227477;stroke-linecap:round;stroke-linejoin:round;stroke-miterlimit:4;stroke-dasharray:none;stroke-dashoffset:0;stroke-opacity:1" />
    <path
       inkscape:connector-curvature="0"
       id="path815-4-4"
       d="m 94.143522,147.59633 a 1.0142192,1.0142192 0 0 1 -1.014219,1.01422 1.0142192,1.0142192 0 0 1 -1.014219,-1.01422 1.0142192,1.0142192 0 0 1 1.014219,-1.01422 1.0142192,1.0142192 0 0 1 1.014219,1.01422 z"
       style="opacity:1;fill:#ef2929;fill-opacity:1;stroke:#ef2929;stroke-width:0.4227477;stroke-linecap:round;stroke-linejoin:round;stroke-miterlimit:4;stroke-dasharray:none;stroke-dashoffset:0;stroke-opacity:1" />
    <path
       inkscape:connector-curvature="0"
       id="path815-2"
       d="m 38.846983,100.5569 a 1.0142192,1.0142192 0 0 1 -1.014219,1.01422 1.0142192,1.0142192 0 0 1 -1.014219,-1.01422 1.0142192,1.0142192 0 0 1 1.014219,-1.014219 1.0142192,1.0142192 0 0 1 1.014219,1.014219 z"
       style="opacity:1;fill:#000000;fill-opacity:1;stroke:#000000;stroke-width:0.4227477;stroke-linecap:round;stroke-linejoin:round;stroke-miterlimit:4;stroke-dasharray:none;stroke-dashoffset:0;stroke-opacity:1" />
    <path
       inkscape:connector-curvature="0"
       id="path815-5-8"
       d="m 52.671118,100.5569 a 1.0142192,1.0142192 0 0 1 -1.01422,1.01422 1.0142192,1.0142192 0 0 1 -1.014219,-1.01422 1.0142192,1.0142192 0 0 1 1.014219,-1.014219 1.0142192,1.0142192 0 0 1 1.01422,1.014219 z"
       style="opacity:1;fill:#000000;fill-opacity:1;stroke:#000000;stroke-width:0.4227477;stroke-linecap:round;stroke-linejoin:round;stroke-miterlimit:4;stroke-dasharray:none;stroke-dashoffset:0;stroke-opacity:1" />
    <path
       inkscape:connector-curvature="0"
       id="path815-6-9"
       d="m 66.495252,100.5569 a 1.0142192,1.0142192 0 0 1 -1.014219,1.01422 1.0142192,1.0142192 0 0 1 -1.014219,-1.01422 1.0142192,1.0142192 0 0 1 1.014219,-1.014219 1.0142192,1.0142192 0 0 1 1.014219,1.014219 z"
       style="opacity:1;fill:#000000;fill-opacity:1;stroke:#000000;stroke-width:0.4227477;stroke-linecap:round;stroke-linejoin:round;stroke-miterlimit:4;stroke-dasharray:none;stroke-dashoffset:0;stroke-opacity:1" />
    <path
       inkscape:connector-curvature="0"
       id="path815-59-3"
       d="m 80.319387,100.5569 a 1.0142192,1.0142192 0 0 1 -1.014219,1.01422 1.0142192,1.0142192 0 0 1 -1.014219,-1.01422 1.0142192,1.0142192 0 0 1 1.014219,-1.014219 1.0142192,1.0142192 0 0 1 1.014219,1.014219 z"
       style="opacity:1;fill:#4e9a06;fill-opacity:1;stroke:#4e9a06;stroke-width:0.4227477;stroke-linecap:round;stroke-linejoin:round;stroke-miterlimit:4;stroke-dasharray:none;stroke-dashoffset:0;stroke-opacity:1" />
    <path
       inkscape:connector-curvature="0"
       id="path815-4-6"
       d="m 94.143522,100.5569 a 1.0142192,1.0142192 0 0 1 -1.014219,1.01422 1.0142192,1.0142192 0 0 1 -1.014219,-1.01422 1.0142192,1.0142192 0 0 1 1.014219,-1.014219 1.0142192,1.0142192 0 0 1 1.014219,1.014219 z"
       style="opacity:1;fill:#000000;fill-opacity:1;stroke:#000000;stroke-width:0.4227477;stroke-linecap:round;stroke-linejoin:round;stroke-miterlimit:4;stroke-dasharray:none;stroke-dashoffset:0;stroke-opacity:1" />
    <path
       inkscape:connector-curvature="0"
       id="path815-8"
       d="m 38.846983,124.07661 a 1.0142192,1.0142192 0 0 1 -1.014219,1.01422 1.0142192,1.0142192 0 0 1 -1.014219,-1.01422 1.0142192,1.0142192 0 0 1 1.014219,-1.01422 1.0142192,1.0142192 0 0 1 1.014219,1.01422 z"
       style="opacity:1;fill:#000000;fill-opacity:1;stroke:#000000;stroke-width:0.4227477;stroke-linecap:round;stroke-linejoin:round;stroke-miterlimit:4;stroke-dasharray:none;stroke-dashoffset:0;stroke-opacity:1" />
    <path
       inkscape:connector-curvature="0"
       id="path815-5-50"
       d="m 52.671118,124.07661 a 1.0142192,1.0142192 0 0 1 -1.01422,1.01422 1.0142192,1.0142192 0 0 1 -1.014219,-1.01422 1.0142192,1.0142192 0 0 1 1.014219,-1.01422 1.0142192,1.0142192 0 0 1 1.01422,1.01422 z"
       style="opacity:1;fill:#000000;fill-opacity:1;stroke:#000000;stroke-width:0.4227477;stroke-linecap:round;stroke-linejoin:round;stroke-miterlimit:4;stroke-dasharray:none;stroke-dashoffset:0;stroke-opacity:1" />
    <path
       inkscape:connector-curvature="0"
       id="path815-6-6"
       d="m 66.495252,124.07661 a 1.0142192,1.0142192 0 0 1 -1.014219,1.01422 1.0142192,1.0142192 0 0 1 -1.014219,-1.01422 1.0142192,1.0142192 0 0 1 1.014219,-1.01422 1.0142192,1.0142192 0 0 1 1.014219,1.01422 z"
       style="opacity:1;fill:#000000;fill-opacity:1;stroke:#000000;stroke-width:0.4227477;stroke-linecap:round;stroke-linejoin:round;stroke-miterlimit:4;stroke-dasharray:none;stroke-dashoffset:0;stroke-opacity:1" />
    <path
       inkscape:connector-curvature="0"
       id="path815-59-4"
       d="m 80.319387,124.07661 a 1.0142192,1.0142192 0 0 1 -1.014219,1.01422 1.0142192,1.0142192 0 0 1 -1.014219,-1.01422 1.0142192,1.0142192 0 0 1 1.014219,-1.01422 1.0142192,1.0142192 0 0 1 1.014219,1.01422 z"
       style="opacity:1;fill:#000000;fill-opacity:1;stroke:#000000;stroke-width:0.4227477;stroke-linecap:round;stroke-linejoin:round;stroke-miterlimit:4;stroke-dasharray:none;stroke-dashoffset:0;stroke-opacity:1" />
    <path
       inkscape:connector-curvature="0"
       id="path815-4-62"
       d="m 94.143522,124.07661 a 1.0142192,1.0142192 0 0 1 -1.014219,1.01422 1.0142192,1.0142192 0 0 1 -1.014219,-1.01422 1.0142192,1.0142192 0 0 1 1.014219,-1.01422 1.0142192,1.0142192 0 0 1 1.014219,1.01422 z"
       style="opacity:1;fill:#000000;fill-opacity:1;stroke:#000000;stroke-width:0.4227477;stroke-linecap:round;stroke-linejoin:round;stroke-miterlimit:4;stroke-dasharray:none;stroke-dashoffset:0;stroke-opacity:1" />
    <path
       style="fill:none;fill-rule:evenodd;stroke:#000000;stroke-width:0.26499999;stroke-linecap:butt;stroke-linejoin:miter;stroke-miterlimit:4;stroke-dasharray:none;stroke-opacity:1;marker-start:url(#Arrow1Lstart);marker-end:url(#Arrow1Lend)"
       d="m 17.10525,87.46069 v 61.47199"
       id="path998"
       inkscape:connector-curvature="0" />
    <path
       d="m 11.15276,115.76668 -0.027,-0.051 -0.027,-0.051 -0.027,-0.048 -0.027,-0.048 -0.03,-0.048 -0.03,-0.048 -0.033,-0.045 -0.033,-0.042 -0.033,-0.045 -0.036,-0.039 -0.036,-0.042 -0.036,-0.039 -0.039,-0.036 -0.039,-0.036 -0.042,-0.033 -0.042,-0.033 -0.042,-0.033 -0.045,-0.027 -0.045,-0.03 -0.045,-0.024 -0.048,-0.024 -0.051,-0.024 -0.051,-0.018 -0.051,-0.021 -0.051,-0.015 -0.054,-0.015 -0.057,-0.012 -0.057,-0.009 -0.057,-0.009 -0.06,-0.006 -0.06,-0.003 h -0.063 l 0.015,0.327 c 0.969,0 1.179,1.224 1.179,1.311 0,0.096 -0.027,0.183 -0.042,0.258 l -0.75,2.931 c -0.075,0.267 -0.075,0.294 -0.3,0.552 -0.654,0.822 -1.269,1.059 -1.686,1.059 -0.747,0 -0.957,-0.819 -0.957,-1.404 0,-0.747 0.477,-2.583 0.822,-3.273 0.462,-0.882 1.137,-1.434 1.734,-1.434 l -0.015,-0.327 c -1.749,0 -3.6,2.193 -3.6,4.377 0,1.407 0.819,2.391 1.986,2.391 0.297,0 1.047,-0.063 1.941,-1.122 0.123,0.63 0.642,1.122 1.359,1.122 0.525,0 0.87,-0.342 1.107,-0.822 0.255,-0.537 0.45,-1.452 0.45,-1.479 0,-0.15 -0.135,-0.15 -0.177,-0.15 -0.15,0 -0.165,0.06 -0.21,0.27 -0.255,0.972 -0.525,1.851 -1.137,1.851 -0.402,0 -0.45,-0.387 -0.45,-0.687 0,-0.33 0.03,-0.447 0.192,-1.107 0.171,-0.627 0.198,-0.777 0.333,-1.344 l 0.537,-2.091 c 0.105,-0.417 0.105,-0.45 0.105,-0.507 0,-0.258 -0.18,-0.408 -0.435,-0.408 -0.357,0 -0.582,0.333 -0.627,0.66 z"
       id="path1861"
       inkscape:connector-curvature="0"
       style="font-style:normal;font-variant:normal;font-weight:normal;font-stretch:normal;letter-spacing:normal;word-spacing:normal;text-anchor:start;fill:#000000;fill-opacity:1;fill-rule:evenodd;stroke:#000000;stroke-width:0;stroke-linecap:butt;stroke-linejoin:miter;stroke-miterlimit:10.43299961;stroke-dasharray:none;stroke-dashoffset:0;stroke-opacity:1" />
    <path
       style="fill:none;fill-rule:evenodd;stroke:#000000;stroke-width:0.26499999;stroke-linecap:butt;stroke-linejoin:miter;stroke-miterlimit:4;stroke-dasharray:none;stroke-opacity:1;marker-start:url(#Arrow1Lstart-9);marker-end:url(#Arrow1Lend-8)"
       d="M 96.217025,162.29615 H 34.745043"
       id="path998-0"
       inkscape:connector-curvature="0" />
    <path
       id="path1982"
       d="m 65.602534,166.31828 v 0 -0.003 0 -0.003 l -0.003,-0.006 v -0.003 -0.006 -0.006 -0.006 l -0.003,-0.006 v -0.006 l -0.003,-0.006 -0.003,-0.006 -0.003,-0.009 -0.003,-0.006 -0.003,-0.009 -0.003,-0.006 -0.006,-0.009 -0.006,-0.006 -0.006,-0.006 -0.006,-0.009 -0.003,-0.003 -0.006,-0.003 -0.003,-0.003 -0.003,-0.003 -0.006,-0.003 -0.003,-0.003 -0.006,-0.003 -0.003,-0.003 -0.006,-0.003 -0.006,-0.003 h -0.006 l -0.006,-0.003 -0.006,-0.003 h -0.006 l -0.006,-0.003 -0.006,-0.003 h -0.009 -0.006 l -0.009,-0.003 h -0.006 -0.009 l -0.009,-0.003 h -0.009 -0.006 c -0.348,0 -1.437,0.123 -1.824,0.15 -0.123,0.015 -0.288,0.03 -0.288,0.3 0,0.18 0.138,0.18 0.363,0.18 0.717,0 0.744,0.102 0.744,0.252 0,0.108 -0.135,0.615 -0.21,0.927 l -1.224,4.872 c -0.177,0.75 -0.24,0.99 -0.24,1.509 0,1.419 0.792,2.349 1.899,2.349 v -0.33 c -0.51,0 -1.002,-0.402 -1.002,-1.509 0,-0.285 0,-0.567 0.237,-1.509 l 0.33,-1.377 c 0.09,-0.33 0.09,-0.357 0.225,-0.522 0.732,-0.969 1.407,-1.194 1.794,-1.194 0.54,0 0.942,0.444 0.942,1.407 0,0.879 -0.495,2.595 -0.762,3.168 -0.492,0.999 -1.182,1.536 -1.764,1.536 v 0.33 c 1.764,0 3.6,-2.226 3.6,-4.38 0,-1.359 -0.792,-2.388 -1.986,-2.388 -0.684,0 -1.299,0.429 -1.749,0.894 z"
       inkscape:connector-curvature="0"
       style="font-style:normal;font-variant:normal;font-weight:normal;font-stretch:normal;letter-spacing:normal;word-spacing:normal;text-anchor:start;fill:#000000;fill-opacity:1;fill-rule:evenodd;stroke:#000000;stroke-width:0;stroke-linecap:butt;stroke-linejoin:miter;stroke-miterlimit:10.43299961;stroke-dasharray:none;stroke-dashoffset:0;stroke-opacity:1" />
    <path
       id="path2415"
       d="m 80.284433,95.807728 0.0072,0.02744 0.0087,0.02744 0.01011,0.026 0.01155,0.026 0.01156,0.02455 0.013,0.02311 0.013,0.02311 0.01444,0.02311 0.01589,0.02167 0.01589,0.02167 0.01589,0.02022 0.01878,0.01878 0.01733,0.01878 0.02022,0.01733 0.02022,0.01733 0.02022,0.01589 0.02167,0.01589 0.02167,0.01444 0.02166,0.013 0.02311,0.013 0.02455,0.01156 0.02456,0.01011 0.02455,0.01011 0.026,0.0087 0.02456,0.0087 0.02744,0.0058 0.026,0.0072 0.02744,0.0043 0.02744,0.0029 0.02889,0.0029 0.02889,0.0014 0.02744,0.0014 c 0.251323,0 0.418872,-0.16466 0.532978,-0.395762 0.122773,-0.258545 0.215214,-0.699083 0.215214,-0.712083 0,-0.07222 -0.06355,-0.07222 -0.08666,-0.07222 -0.07222,0 -0.078,0.02889 -0.101108,0.129995 -0.09966,0.401539 -0.236879,0.891186 -0.538756,0.891186 -0.15166,0 -0.222435,-0.09389 -0.222435,-0.330764 0,-0.158883 0.08666,-0.496869 0.142994,-0.746748 l 0.202214,-0.779969 c 0.02167,-0.108329 0.09389,-0.381318 0.122773,-0.489646 0.03611,-0.164661 0.108329,-0.43765 0.108329,-0.479537 0,-0.131439 -0.101107,-0.194992 -0.209436,-0.194992 -0.03611,0 -0.22388,0.0072 -0.280211,0.251323 -0.138661,0.525757 -0.453537,1.785262 -0.5402,2.16658 -0.0087,0.02889 -0.294655,0.603753 -0.820412,0.603753 -0.37554,0 -0.44776,-0.324987 -0.44776,-0.590754 0,-0.401539 0.203659,-0.970627 0.391429,-1.467496 0.08522,-0.216658 0.121329,-0.314876 0.121329,-0.453538 0,-0.322098 -0.229658,-0.587865 -0.590754,-0.587865 -0.68464,0 -0.950407,1.041403 -0.950407,1.107845 0,0.07222 0.07222,0.07222 0.08811,0.07222 0.07222,0 0.078,-0.01589 0.114106,-0.131439 0.179104,-0.62542 0.453538,-0.891187 0.726527,-0.891187 0.06355,0 0.180548,0.0072 0.180548,0.23688 0,0.173326 -0.08089,0.381318 -0.122773,0.489647 -0.267211,0.713526 -0.418872,1.158397 -0.418872,1.509383 0,0.684639 0.496869,0.865188 0.888298,0.865188 0.473758,0 0.732304,-0.323543 0.855076,-0.48387 z"
       inkscape:connector-curvature="0"
       style="font-style:normal;font-variant:normal;font-weight:normal;font-stretch:normal;letter-spacing:normal;word-spacing:normal;text-anchor:start;fill:#4e9a06;fill-opacity:1;fill-rule:evenodd;stroke:#4e9a06;stroke-width:0;stroke-linecap:butt;stroke-linejoin:miter;stroke-miterlimit:10.43299961;stroke-dasharray:none;stroke-dashoffset:0;stroke-opacity:1" />
    <path
       id="path2417"
       d="m 60.689002,110.92261 v -0.0173 -0.0188 l -0.0014,-0.0173 v -0.0159 l -0.0014,-0.0173 -0.0014,-0.0159 -0.0014,-0.0159 -0.0029,-0.0144 -0.0043,-0.0303 -0.0043,-0.0274 -0.0072,-0.026 -0.0072,-0.026 -0.0072,-0.0231 -0.0087,-0.0231 -0.0087,-0.0217 -0.01011,-0.0188 -0.01011,-0.0188 -0.01011,-0.0173 -0.01155,-0.0173 -0.01156,-0.0144 -0.01156,-0.0144 -0.013,-0.013 -0.01156,-0.0116 -0.013,-0.0101 -0.013,-0.0101 -0.013,-0.009 -0.01444,-0.007 -0.013,-0.007 -0.013,-0.006 -0.013,-0.004 -0.01444,-0.004 -0.013,-0.004 -0.013,-0.001 -0.013,-0.003 h -0.01156 -0.013 c -0.180548,0 -0.350986,0.18633 -0.350986,0.34521 0,0.0924 0.03611,0.13433 0.114107,0.21377 0.15166,0.14444 0.244101,0.33221 0.244101,0.59076 0,0.30332 -0.437649,1.94992 -1.279726,1.94992 -0.368319,0 -0.532979,-0.25277 -0.532979,-0.62398 0,-0.40443 0.194992,-0.93018 0.417428,-1.52671 0.05055,-0.12422 0.08666,-0.22244 0.08666,-0.3611 0,-0.3221 -0.231102,-0.58787 -0.592199,-0.58787 -0.674528,0 -0.948961,1.04141 -0.948961,1.10785 0,0.0722 0.07222,0.0722 0.08666,0.0722 0.07222,0 0.07944,-0.0159 0.115551,-0.13144 0.207991,-0.72653 0.51709,-0.89119 0.726526,-0.89119 0.05633,0 0.180548,0 0.180548,0.22966 0,0.18055 -0.07222,0.37554 -0.124217,0.50409 -0.314876,0.83486 -0.407317,1.16707 -0.407317,1.47616 0,0.77564 0.631197,0.89119 0.963406,0.89119 1.208951,0 1.617712,-2.38179 1.617712,-2.75589 z"
       inkscape:connector-curvature="0"
       style="font-style:normal;font-variant:normal;font-weight:normal;font-stretch:normal;letter-spacing:normal;word-spacing:normal;text-anchor:start;fill:#4e9a06;fill-opacity:1;fill-rule:evenodd;stroke:#4e9a06;stroke-width:0;stroke-linecap:butt;stroke-linejoin:miter;stroke-miterlimit:10.43299961;stroke-dasharray:none;stroke-dashoffset:0;stroke-opacity:1" />
    <path
       id="path2419"
       d="m 75.977823,105.30451 h 0.378685 c 0.08848,0 0.132717,0 0.132717,-0.0885 0,-0.0487 -0.04424,-0.0487 -0.118561,-0.0487 h -0.367182 l 0.0929,-0.50344 c 0.0177,-0.092 0.08051,-0.40434 0.106174,-0.45743 0.0407,-0.0841 0.115021,-0.15041 0.207922,-0.15041 0.01593,0 0.130948,0 0.215001,0.0805 -0.192881,0.0159 -0.23712,0.17077 -0.23712,0.23712 0,0.10087 0.07874,0.15395 0.162799,0.15395 0.115021,0 0.24243,-0.0973 0.24243,-0.26454 0,-0.20262 -0.203499,-0.30348 -0.38311,-0.30348 -0.150412,0 -0.429117,0.0787 -0.560064,0.51494 -0.02654,0.0929 -0.03982,0.13714 -0.145104,0.69278 h -0.304363 c -0.08405,0 -0.132717,0 -0.132717,0.0832 0,0.054 0.0407,0.054 0.122984,0.054 h 0.291977 l -0.331792,1.74036 c -0.07874,0.42735 -0.153067,0.82992 -0.383109,0.82992 -0.0177,0 -0.127408,0 -0.211462,-0.0805 0.203499,-0.0124 0.242429,-0.17165 0.242429,-0.23801 0,-0.10086 -0.07963,-0.15483 -0.163684,-0.15483 -0.115021,0 -0.241544,0.0973 -0.241544,0.26543 0,0.19819 0.192881,0.30436 0.374261,0.30436 0.241544,0 0.4185,-0.26012 0.49813,-0.42823 0.14068,-0.27782 0.243314,-0.81046 0.246853,-0.84231 z"
       inkscape:connector-curvature="0"
       style="font-style:normal;font-variant:normal;font-weight:normal;font-stretch:normal;letter-spacing:normal;word-spacing:normal;text-anchor:start;fill:#4e9a06;fill-opacity:1;fill-rule:evenodd;stroke:#4e9a06;stroke-width:0;stroke-linecap:butt;stroke-linejoin:miter;stroke-miterlimit:10.43299961;stroke-dasharray:none;stroke-dashoffset:0;stroke-opacity:1" />
    <path
       id="path2421"
       d="m 78.451663,108.1243 v -0.002 -0.003 l -8.58e-4,-8.6e-4 v -0.002 -8.5e-4 l -8.57e-4,-0.002 v -8.6e-4 l -8.58e-4,-0.002 -8.57e-4,-0.002 -8.58e-4,-0.002 -8.58e-4,-0.002 -8.57e-4,-0.003 -0.0018,-0.002 -0.0018,-0.003 -0.0018,-0.003 -0.0018,-0.003 -0.0026,-0.003 -0.0026,-0.004 -8.58e-4,-0.002 -0.0018,-0.002 -0.0018,-0.002 -0.0018,-0.002 -0.0018,-0.002 -0.0018,-0.003 -0.0018,-0.002 -0.0018,-0.002 -0.0018,-0.003 -0.0018,-0.002 -0.0026,-0.003 -0.0018,-0.003 -0.0026,-0.003 -0.0026,-0.003 -0.0026,-0.003 -0.0026,-0.003 -0.0026,-0.003 -0.0026,-0.003 -0.0026,-0.004 -0.0036,-0.003 -0.0026,-0.004 -0.0036,-0.003 -0.0036,-0.004 -0.0026,-0.004 c -0.550332,-0.55564 -0.691896,-1.38821 -0.691896,-2.06241 0,-0.76711 0.167223,-1.53509 0.709592,-2.08454 0.05663,-0.054 0.05663,-0.0628 0.05663,-0.0761 0,-0.031 -0.01681,-0.0434 -0.04335,-0.0434 -0.04424,0 -0.44062,0.29905 -0.700744,0.85823 -0.225619,0.48575 -0.277821,0.97503 -0.277821,1.34575 0,0.34418 0.04866,0.87593 0.290208,1.37495 0.264548,0.54236 0.644118,0.82815 0.688357,0.82815 0.02654,0 0.04335,-0.0124 0.04335,-0.0442 z"
       inkscape:connector-curvature="0"
       style="font-style:normal;font-variant:normal;font-weight:normal;font-stretch:normal;letter-spacing:normal;word-spacing:normal;text-anchor:start;fill:#4e9a06;fill-opacity:1;fill-rule:evenodd;stroke:#4e9a06;stroke-width:0;stroke-linecap:butt;stroke-linejoin:miter;stroke-miterlimit:10.43299961;stroke-dasharray:none;stroke-dashoffset:0;stroke-opacity:1" />
    <path
       id="path2423"
       d="m 80.245109,106.81925 0.0043,0.0168 0.0055,0.0168 0.0062,0.0159 0.007,0.0159 0.0071,0.015 0.008,0.0142 0.008,0.0142 0.0088,0.0142 0.0097,0.0133 0.0097,0.0133 0.0106,0.0124 0.0106,0.0115 0.01152,0.0115 0.01152,0.0106 0.01237,0.0106 0.01237,0.01 0.01329,0.01 0.01329,0.009 0.01329,0.008 0.01415,0.008 0.01507,0.007 0.01507,0.006 0.01507,0.006 0.01593,0.005 0.01593,0.005 0.01593,0.004 0.01593,0.004 0.01678,0.003 0.01678,0.002 0.0177,0.002 0.0177,8.5e-4 0.0177,8.6e-4 c 0.153061,0 0.255696,-0.10086 0.325596,-0.24243 0.0752,-0.15837 0.13183,-0.42823 0.13183,-0.43619 0,-0.0442 -0.0389,-0.0442 -0.05311,-0.0442 -0.04423,0 -0.04778,0.0177 -0.06194,0.0796 -0.06107,0.24597 -0.145104,0.54591 -0.330018,0.54591 -0.0929,0 -0.136259,-0.0575 -0.136259,-0.20262 0,-0.0973 0.05311,-0.30436 0.0876,-0.45743 l 0.124748,-0.47778 c 0.01237,-0.0664 0.0566,-0.23358 0.07432,-0.29994 0.02211,-0.10086 0.06636,-0.26809 0.06636,-0.29375 0,-0.0805 -0.06193,-0.11944 -0.128289,-0.11944 -0.02211,0 -0.13714,0.004 -0.171646,0.15395 -0.08406,0.32206 -0.277822,1.09359 -0.330913,1.32717 -0.0055,0.0177 -0.180492,0.36984 -0.502553,0.36984 -0.230042,0 -0.274281,-0.19908 -0.274281,-0.36188 0,-0.24597 0.124754,-0.59457 0.239775,-0.89893 0.05219,-0.13272 0.07432,-0.19288 0.07432,-0.27782 0,-0.19731 -0.140682,-0.36011 -0.361872,-0.36011 -0.419387,0 -0.582186,0.63793 -0.582186,0.67863 0,0.0442 0.04424,0.0442 0.05397,0.0442 0.04424,0 0.04778,-0.01 0.0699,-0.0805 0.109712,-0.38311 0.277817,-0.54591 0.445929,-0.54591 0.03804,0 0.110592,0.004 0.110592,0.14511 0,0.10617 -0.05041,0.23358 -0.07609,0.29994 -0.163689,0.43708 -0.255701,0.70959 -0.255701,0.92459 0,0.41938 0.303475,0.52998 0.543251,0.52998 0.290208,0 0.448586,-0.19819 0.523791,-0.2964 z"
       inkscape:connector-curvature="0"
       style="font-style:normal;font-variant:normal;font-weight:normal;font-stretch:normal;letter-spacing:normal;word-spacing:normal;text-anchor:start;fill:#4e9a06;fill-opacity:1;fill-rule:evenodd;stroke:#4e9a06;stroke-width:0;stroke-linecap:butt;stroke-linejoin:miter;stroke-miterlimit:10.43299961;stroke-dasharray:none;stroke-dashoffset:0;stroke-opacity:1" />
    <path
       id="path2425"
       d="m 82.123491,107.06256 -6.12e-4,-0.0265 -6.13e-4,-0.0265 -6.12e-4,-0.0257 -0.0025,-0.0248 -0.0024,-0.0239 -0.0037,-0.023 -0.0037,-0.023 -0.0055,-0.0212 -0.0043,-0.0212 -0.0062,-0.0204 -0.0062,-0.0195 -0.0071,-0.0186 -0.007,-0.0177 -0.008,-0.0168 -0.008,-0.0168 -0.0088,-0.015 -0.0097,-0.0142 -0.0097,-0.0142 -0.0106,-0.0124 -0.0106,-0.0115 -0.01152,-0.0115 -0.01152,-0.01 -0.01237,-0.009 -0.01329,-0.009 -0.01329,-0.007 -0.01329,-0.006 -0.01415,-0.005 -0.01415,-0.004 -0.01507,-0.004 -0.01507,-0.003 -0.01593,-8.6e-4 -0.01593,-8.6e-4 c -0.145104,0 -0.233583,0.1106 -0.233583,0.23358 0,0.11856 0.08848,0.23358 0.233583,0.23358 0.05311,0 0.110598,-0.0177 0.154837,-0.0566 0.01237,-0.01 0.0177,-0.0142 0.02211,-0.0142 0.0043,0 0.0088,0.004 0.0088,0.0664 0,0.32648 -0.15395,0.59103 -0.300824,0.73614 -0.04778,0.0478 -0.04778,0.0575 -0.04778,0.0699 0,0.0319 0.02211,0.0487 0.04423,0.0487 0.04778,0 0.400807,-0.33887 0.400807,-0.8547 z"
       inkscape:connector-curvature="0"
       style="font-style:normal;font-variant:normal;font-weight:normal;font-stretch:normal;letter-spacing:normal;word-spacing:normal;text-anchor:start;fill:#4e9a06;fill-opacity:1;fill-rule:evenodd;stroke:#4e9a06;stroke-width:0;stroke-linecap:butt;stroke-linejoin:miter;stroke-miterlimit:10.43299961;stroke-dasharray:none;stroke-dashoffset:0;stroke-opacity:1" />
    <path
       id="path2427"
       d="m 85.244992,105.42749 v -0.0106 -0.0115 l -6.13e-4,-0.0106 v -0.01 l -6.12e-4,-0.0106 -6.13e-4,-0.01 -6.12e-4,-0.01 -0.0018,-0.009 -0.0024,-0.0186 -0.0037,-0.0168 -0.0037,-0.0159 -0.0043,-0.0159 -0.0043,-0.0142 -0.0055,-0.0142 -0.0055,-0.0133 -0.0062,-0.0115 -0.0062,-0.0115 -0.0062,-0.0106 -0.007,-0.0106 -0.0071,-0.009 -0.007,-0.009 -0.008,-0.008 -0.008,-0.007 -0.0071,-0.006 -0.008,-0.006 -0.0088,-0.005 -0.008,-0.004 -0.008,-0.004 -0.008,-0.004 -0.0088,-0.003 -0.008,-0.003 -0.008,-0.003 -0.008,-8.6e-4 -0.008,-0.002 h -0.0071 -0.008 c -0.110593,0 -0.214998,0.11414 -0.214998,0.21147 0,0.0566 0.02211,0.0823 0.0699,0.13094 0.0929,0.0885 0.149526,0.2035 0.149526,0.36188 0,0.1858 -0.268088,1.19445 -0.783915,1.19445 -0.22562,0 -0.326484,-0.15484 -0.326484,-0.38223 0,-0.24773 0.119443,-0.56979 0.255702,-0.93521 0.031,-0.0761 0.05311,-0.13625 0.05311,-0.22119 0,-0.19731 -0.141563,-0.36011 -0.36276,-0.36011 -0.413186,0 -0.581298,0.63793 -0.581298,0.67863 0,0.0442 0.04423,0.0442 0.05311,0.0442 0.04423,0 0.04864,-0.01 0.07078,-0.0805 0.127407,-0.44504 0.31675,-0.5459 0.44504,-0.5459 0.03449,0 0.110598,0 0.110598,0.14068 0,0.11059 -0.04423,0.23004 -0.07609,0.30878 -0.193766,0.51141 -0.249503,0.7149 -0.249503,0.90425 0,0.47512 0.386644,0.5459 0.590144,0.5459 0.740558,0 0.990956,-1.45899 0.990956,-1.68815 z"
       inkscape:connector-curvature="0"
       style="font-style:normal;font-variant:normal;font-weight:normal;font-stretch:normal;letter-spacing:normal;word-spacing:normal;text-anchor:start;fill:#4e9a06;fill-opacity:1;fill-rule:evenodd;stroke:#4e9a06;stroke-width:0;stroke-linecap:butt;stroke-linejoin:miter;stroke-miterlimit:10.43299961;stroke-dasharray:none;stroke-dashoffset:0;stroke-opacity:1" />
    <path
       id="path2429"
       d="m 86.749111,105.96544 -6.13e-4,-0.0327 v -0.0345 l -6.13e-4,-0.0345 -6.12e-4,-0.0363 -0.0037,-0.0743 -0.0055,-0.0779 -0.0071,-0.0814 -0.0097,-0.084 -0.01237,-0.0858 -0.01415,-0.0894 -0.0177,-0.0902 -0.02034,-0.0911 -0.02303,-0.0929 -0.02744,-0.0938 -0.031,-0.0947 -0.03449,-0.0947 -0.01856,-0.0469 -0.02034,-0.0469 -0.02126,-0.0469 -0.02211,-0.0469 c -0.263665,-0.54149 -0.642352,-0.82815 -0.686585,-0.82815 -0.02652,0 -0.04423,0.0168 -0.04423,0.0434 0,0.0133 0,0.0221 0.08317,0.10175 0.432654,0.43531 0.683934,1.13694 0.683934,2.05888 0,0.75294 -0.162801,1.52889 -0.710476,2.08453 -0.0566,0.0522 -0.0566,0.0619 -0.0566,0.0743 0,0.0266 0.0177,0.0442 0.04423,0.0442 0.04423,0 0.439735,-0.29994 0.700742,-0.85912 0.223849,-0.48397 0.276934,-0.97325 0.276934,-1.34397 z"
       inkscape:connector-curvature="0"
       style="font-style:normal;font-variant:normal;font-weight:normal;font-stretch:normal;letter-spacing:normal;word-spacing:normal;text-anchor:start;fill:#4e9a06;fill-opacity:1;fill-rule:evenodd;stroke:#4e9a06;stroke-width:0;stroke-linecap:butt;stroke-linejoin:miter;stroke-miterlimit:10.43299961;stroke-dasharray:none;stroke-dashoffset:0;stroke-opacity:1" />
    <path
       style="fill:#4e9a06;fill-rule:evenodd;stroke:#4e9a06;stroke-width:0.26499999;stroke-linecap:butt;stroke-linejoin:miter;stroke-miterlimit:4;stroke-dasharray:none;stroke-opacity:1;marker-end:url(#marker2537)"
       d="m 78.997023,100.64136 c -13.04018,10.96131 -13.04018,10.96131 -13.04018,10.96131"
       id="path2527"
       inkscape:connector-curvature="0" />
  </g>
</svg>
