<?xml version="1.0" encoding="UTF-8" standalone="no"?>
<!-- Created with Inkscape (http://www.inkscape.org/) -->

<svg
   xmlns:dc="http://purl.org/dc/elements/1.1/"
   xmlns:cc="http://creativecommons.org/ns#"
   xmlns:rdf="http://www.w3.org/1999/02/22-rdf-syntax-ns#"
   xmlns:svg="http://www.w3.org/2000/svg"
   xmlns="http://www.w3.org/2000/svg"
   xmlns:sodipodi="http://sodipodi.sourceforge.net/DTD/sodipodi-0.dtd"
   xmlns:inkscape="http://www.inkscape.org/namespaces/inkscape"
   id="svg8"
   version="1.1"
   viewBox="0 0 228 63.938999"
   height="63.938999mm"
   width="228mm"
   inkscape:version="0.92.3 (2405546, 2018-03-11)"
   sodipodi:docname="PCR_derivation.svg">
  <sodipodi:namedview
     inkscape:window-maximized="1"
     inkscape:window-y="27"
     inkscape:window-x="67"
     inkscape:window-height="1025"
     inkscape:window-width="1853"
     showgrid="false"
     inkscape:current-layer="svg8"
     inkscape:document-units="mm"
     inkscape:cy="40.167561"
     inkscape:cx="456.75278"
     inkscape:zoom="0.24748737"
     inkscape:pageshadow="2"
     inkscape:pageopacity="0.0"
     borderopacity="1.0"
     bordercolor="#666666"
     pagecolor="#ffffff"
     id="base"
     fit-margin-top="0"
     fit-margin-left="0"
     fit-margin-right="0"
     fit-margin-bottom="0" />
  <defs
     id="defs2" />
  <metadata
     id="metadata5">
    <rdf:RDF>
      <cc:Work
         rdf:about="">
        <dc:format>image/svg+xml</dc:format>
        <dc:type
           rdf:resource="http://purl.org/dc/dcmitype/StillImage" />
        <dc:title></dc:title>
      </cc:Work>
    </rdf:RDF>
  </metadata>
  <g
     id="layer1"
     inkscape:groupmode="layer"
     inkscape:label="Layer 1"
     transform="translate(-43.82381,-90.97439)" />
  <g
     id="g1043"
     transform="translate(-210.6,-85.629)">
    <g
       word-spacing="normal"
       letter-spacing="normal"
       font-size-adjust="none"
       font-stretch="normal"
       font-weight="normal"
       font-variant="normal"
       font-style="normal"
       stroke-miterlimit="10.433"
       xml:space="preserve"
       transform="matrix(0.3,0,0,-0.3,-52.5,222.75)"
       id="content"
       style="font-style:normal;font-variant:normal;font-weight:normal;font-stretch:normal;letter-spacing:normal;word-spacing:normal;text-anchor:start;fill:none;fill-opacity:1;fill-rule:evenodd;stroke:#000000;stroke-linecap:butt;stroke-linejoin:miter;stroke-miterlimit:10.43299961;stroke-dasharray:none;stroke-dashoffset:0;stroke-opacity:1"><path
         id="path958"
         d="m 935.02,446.66 0.01,0.04 0.01,0.03 0.01,0.06 0.02,0.05 0.01,0.06 0.01,0.05 0.02,0.05 0.01,0.04 0.01,0.04 0.01,0.05 0.01,0.03 v 0.04 l 0.01,0.04 0.01,0.03 v 0.03 l 0.01,0.03 v 0.03 l 0.01,0.03 v 0.03 l 0.01,0.05 v 0.06 0.05 l 0.01,0.05 v 0.06 0.02 0.03 0.03 0.03 c 0,0.91 -0.69,1.35 -1.44,1.35 -0.5,0 -1.3,-0.3 -1.75,-1.05 -0.09,-0.25 -0.5,-1.78 -0.69,-2.69 -0.36,-1.29 -0.7,-2.64 -1,-3.98 l -2.25,-8.97 c -0.18,-0.75 -2.33,-4.23 -5.62,-4.23 -2.53,0 -3.1,2.18 -3.1,4.03 0,2.29 0.86,5.39 2.55,9.76 0.8,2.05 1,2.6 1,3.6 0,2.23 -1.59,4.08 -4.09,4.08 -4.74,0 -6.58,-7.22 -6.58,-7.68 0,-0.5 0.5,-0.5 0.61,-0.5 0.5,0 0.55,0.11 0.8,0.91 1.34,4.69 3.32,6.17 5.03,6.17 0.39,0 1.25,0 1.25,-1.59 0,-1.25 -0.5,-2.53 -0.86,-3.49 -1.99,-5.28 -2.89,-8.12 -2.89,-10.47 0,-4.42 3.14,-5.92 6.07,-5.92 1.96,0 3.65,0.85 5.03,2.24 -0.63,-2.58 -1.23,-5.03 -3.23,-7.67 -1.3,-1.69 -3.19,-3.15 -5.48,-3.15 -0.69,0 -2.94,0.16 -3.79,2.1 0.8,0 1.46,0 2.15,0.61 0.5,0.44 1,1.09 1,2.03 0,1.55 -1.35,1.75 -1.85,1.75 -1.14,0 -2.8,-0.8 -2.8,-3.24 0,-2.5 2.21,-4.34 5.29,-4.34 5.14,0 10.26,4.55 11.67,10.17 z"
         inkscape:connector-curvature="0"
         style="fill:#000000;stroke-width:0" /><polygon
         id="polygon960"
         points="943.52,455.52 961.5,455.52 961.5,457.07 943.52,457.07 "
         style="fill:#000000;stroke-width:0" /><path
         id="path962"
         d="m 943.7,431.82 0.25,0.27 0.24,0.25 0.23,0.25 0.23,0.24 0.22,0.23 0.22,0.22 0.21,0.22 0.21,0.21 0.2,0.2 0.2,0.19 0.19,0.19 0.19,0.19 0.18,0.18 0.18,0.17 0.35,0.33 0.34,0.32 0.34,0.3 0.32,0.29 0.33,0.29 0.65,0.56 0.32,0.29 0.34,0.28 c 0,0.05 3.08,2.69 4.87,4.49 4.74,4.64 5.83,7.03 5.83,7.22 0,0.5 -0.45,0.5 -0.55,0.5 -0.34,0 -0.5,-0.1 -0.75,-0.55 -1.48,-2.39 -2.53,-3.19 -3.73,-3.19 -1.21,0 -1.8,0.75 -2.55,1.59 -0.94,1.16 -1.78,2.15 -3.44,2.15 -3.73,0 -6.01,-4.63 -6.01,-5.68 0,-0.25 0.14,-0.54 0.59,-0.54 0.45,0 0.55,0.25 0.64,0.54 0.96,2.3 3.85,2.35 4.24,2.35 1.04,0 2,-0.36 3.14,-0.75 2,-0.75 2.55,-0.75 3.84,-0.75 -1.79,-2.14 -5.98,-5.74 -6.92,-6.53 l -4.49,-4.18 c -3.38,-3.34 -5.13,-6.18 -5.13,-6.53 0,-0.5 0.5,-0.5 0.59,-0.5 0.41,0 0.5,0.1 0.79,0.64 1.16,1.75 2.65,3.1 4.24,3.1 1.16,0 1.66,-0.46 2.89,-1.89 0.86,-1.05 1.75,-1.85 3.19,-1.85 4.93,0 7.83,6.33 7.83,7.67 0,0.25 -0.21,0.5 -0.6,0.5 -0.45,0 -0.55,-0.29 -0.7,-0.65 -1.14,-3.24 -4.33,-4.17 -5.98,-4.17 -0.99,0 -1.9,0.29 -2.94,0.64 -1.69,0.64 -2.44,0.84 -3.49,0.84 -0.09,0 -0.89,0 -1.34,-0.14 z"
         inkscape:connector-curvature="0"
         style="fill:#000000;stroke-width:0" /><polyline
         id="polyline964"
         points="877,406 997,406 997,408.04 877,408.04 "
         style="fill:#000000;fill-rule:nonzero;stroke-width:0" /><path
         id="path966"
         d="m 913.28,382.85 0.03,0.13 0.04,0.15 0.04,0.16 0.04,0.18 0.06,0.2 0.06,0.2 0.06,0.22 0.08,0.22 0.08,0.24 0.08,0.24 0.1,0.24 0.1,0.25 0.11,0.25 0.12,0.25 0.13,0.25 0.14,0.24 0.15,0.24 0.15,0.24 0.17,0.23 0.18,0.23 0.18,0.21 0.2,0.2 0.21,0.19 0.22,0.18 0.23,0.16 0.25,0.14 0.13,0.07 0.13,0.06 0.13,0.05 0.13,0.05 0.14,0.05 0.15,0.04 0.14,0.03 0.15,0.03 0.15,0.02 0.16,0.02 0.16,0.01 h 0.16 c 0.25,0 1.44,0 2.48,-0.64 -1.39,-0.25 -2.39,-1.5 -2.39,-2.69 0,-0.79 0.55,-1.75 1.89,-1.75 1.1,0 2.69,0.9 2.69,2.9 0,2.59 -2.94,3.28 -4.62,3.28 -2.89,0 -4.65,-2.64 -5.24,-3.78 -1.25,3.28 -3.94,3.78 -5.37,3.78 -5.19,0 -8.04,-6.43 -8.04,-7.68 0,-0.5 0.5,-0.5 0.61,-0.5 0.39,0 0.55,0.11 0.65,0.55 1.68,5.28 4.98,6.53 6.67,6.53 0.95,0 2.68,-0.43 2.68,-3.33 0,-1.54 -0.84,-4.89 -2.68,-11.85 -0.8,-3.1 -2.53,-5.19 -4.74,-5.19 -0.29,0 -1.43,0 -2.48,0.65 1.25,0.24 2.34,1.29 2.34,2.69 0,1.35 -1.09,1.74 -1.84,1.74 -1.5,0 -2.75,-1.3 -2.75,-2.89 0,-2.29 2.5,-3.29 4.69,-3.29 3.29,0 5.07,3.49 5.23,3.79 0.59,-1.85 2.39,-3.79 5.38,-3.79 5.14,0 7.98,6.43 7.98,7.68 0,0.5 -0.45,0.5 -0.61,0.5 -0.44,0 -0.55,-0.21 -0.64,-0.55 -1.64,-5.33 -5.03,-6.53 -6.63,-6.53 -1.95,0 -2.75,1.59 -2.75,3.29 0,1.1 0.3,2.19 0.86,4.38 z"
         inkscape:connector-curvature="0"
         style="fill:#000000;stroke-width:0" /><path
         id="path968"
         d="m 949.3,386.79 0.01,0.03 v 0.03 l 0.02,0.06 0.01,0.05 0.02,0.06 0.01,0.05 0.01,0.05 0.01,0.04 0.02,0.05 v 0.04 l 0.01,0.04 0.01,0.03 0.01,0.04 v 0.03 l 0.01,0.03 0.01,0.03 v 0.03 0.03 l 0.01,0.03 v 0.06 l 0.01,0.05 v 0.05 0.05 0.06 0.02 0.03 0.03 0.04 c 0,0.9 -0.68,1.34 -1.43,1.34 -0.5,0 -1.3,-0.3 -1.75,-1.05 -0.1,-0.25 -0.5,-1.78 -0.69,-2.68 -0.36,-1.3 -0.7,-2.65 -1,-3.99 l -2.25,-8.97 c -0.19,-0.75 -2.33,-4.23 -5.63,-4.23 -2.53,0 -3.09,2.19 -3.09,4.03 0,2.3 0.86,5.39 2.55,9.76 0.79,2.05 1,2.6 1,3.6 0,2.23 -1.6,4.08 -4.1,4.08 -4.73,0 -6.57,-7.22 -6.57,-7.68 0,-0.5 0.5,-0.5 0.6,-0.5 0.5,0 0.55,0.11 0.8,0.91 1.35,4.69 3.33,6.17 5.03,6.17 0.39,0 1.25,0 1.25,-1.59 0,-1.25 -0.5,-2.53 -0.86,-3.49 -1.98,-5.28 -2.89,-8.12 -2.89,-10.46 0,-4.43 3.14,-5.93 6.08,-5.93 1.95,0 3.64,0.85 5.03,2.24 -0.64,-2.58 -1.23,-5.03 -3.23,-7.67 -1.3,-1.69 -3.19,-3.14 -5.49,-3.14 -0.68,0 -2.93,0.15 -3.78,2.09 0.8,0 1.46,0 2.14,0.61 0.5,0.44 1,1.09 1,2.03 0,1.55 -1.34,1.75 -1.84,1.75 -1.14,0 -2.8,-0.8 -2.8,-3.23 0,-2.5 2.21,-4.35 5.28,-4.35 5.14,0 10.27,4.55 11.68,10.17 z"
         inkscape:connector-curvature="0"
         style="fill:#000000;stroke-width:0" /><polygon
         id="polygon970"
         points="957.79,395.64 975.78,395.64 975.78,397.19 957.79,397.19 "
         style="fill:#000000;stroke-width:0" /><path
         id="path972"
         d="m 957.98,371.94 0.25,0.27 0.24,0.25 0.23,0.25 0.23,0.24 0.22,0.23 0.22,0.23 0.21,0.21 0.21,0.21 0.2,0.2 0.19,0.2 0.19,0.18 0.19,0.19 0.19,0.18 0.18,0.17 0.35,0.33 0.34,0.32 0.33,0.3 0.33,0.29 0.33,0.29 0.64,0.56 0.33,0.29 0.33,0.28 c 0,0.05 3.08,2.69 4.88,4.49 4.73,4.64 5.83,7.03 5.83,7.22 0,0.5 -0.46,0.5 -0.55,0.5 -0.34,0 -0.5,-0.1 -0.75,-0.55 -1.48,-2.39 -2.53,-3.19 -3.73,-3.19 -1.21,0 -1.8,0.75 -2.55,1.6 -0.94,1.15 -1.78,2.14 -3.44,2.14 -3.73,0 -6.01,-4.63 -6.01,-5.68 0,-0.25 0.14,-0.54 0.59,-0.54 0.45,0 0.55,0.25 0.64,0.54 0.95,2.3 3.84,2.35 4.23,2.35 1.05,0 2,-0.36 3.15,-0.75 2,-0.75 2.54,-0.75 3.84,-0.75 -1.8,-2.14 -5.99,-5.74 -6.92,-6.53 l -4.49,-4.17 c -3.39,-3.35 -5.14,-6.19 -5.14,-6.54 0,-0.5 0.5,-0.5 0.6,-0.5 0.4,0 0.5,0.1 0.79,0.64 1.16,1.75 2.64,3.1 4.24,3.1 1.15,0 1.65,-0.45 2.89,-1.89 0.86,-1.05 1.75,-1.85 3.19,-1.85 4.93,0 7.82,6.33 7.82,7.68 0,0.25 -0.2,0.5 -0.59,0.5 -0.45,0 -0.55,-0.3 -0.7,-0.66 -1.14,-3.23 -4.33,-4.17 -5.99,-4.17 -0.98,0 -1.89,0.29 -2.94,0.64 -1.68,0.64 -2.43,0.84 -3.48,0.84 -0.09,0 -0.89,0 -1.34,-0.14 z"
         inkscape:connector-curvature="0"
         style="fill:#000000;stroke-width:0" /><path
         id="path974"
         d="m 1164.6,427.14 0.3,0.27 0.2,0.25 0.3,0.25 0.2,0.24 0.2,0.23 0.2,0.23 0.2,0.21 0.2,0.21 0.2,0.2 0.2,0.2 0.2,0.18 0.2,0.19 0.2,0.18 0.2,0.17 0.3,0.33 0.4,0.32 0.3,0.3 0.3,0.29 0.4,0.29 0.6,0.56 0.3,0.29 0.4,0.28 c 0,0.05 3,2.69 4.8,4.49 4.8,4.64 5.9,7.03 5.9,7.22 0,0.5 -0.5,0.5 -0.6,0.5 -0.3,0 -0.5,-0.1 -0.7,-0.55 -1.5,-2.39 -2.6,-3.19 -3.8,-3.19 -1.2,0 -1.8,0.75 -2.5,1.6 -0.9,1.15 -1.8,2.14 -3.5,2.14 -3.7,0 -6,-4.63 -6,-5.68 0,-0.25 0.2,-0.54 0.6,-0.54 0.5,0 0.6,0.25 0.7,0.54 0.9,2.3 3.8,2.35 4.2,2.35 1.1,0 2,-0.36 3.1,-0.75 2,-0.75 2.6,-0.75 3.9,-0.75 -1.8,-2.14 -6,-5.74 -6.9,-6.53 l -4.5,-4.18 c -3.4,-3.34 -5.2,-6.18 -5.2,-6.53 0,-0.5 0.5,-0.5 0.6,-0.5 0.4,0 0.5,0.1 0.8,0.64 1.2,1.75 2.7,3.1 4.3,3.1 1.1,0 1.6,-0.46 2.9,-1.89 0.8,-1.05 1.7,-1.85 3.1,-1.85 5,0 7.9,6.33 7.9,7.67 0,0.26 -0.2,0.5 -0.6,0.5 -0.5,0 -0.6,-0.29 -0.7,-0.65 -1.2,-3.24 -4.3,-4.17 -6,-4.17 -1,0 -1.9,0.29 -3,0.64 -1.6,0.64 -2.4,0.84 -3.4,0.84 -0.1,0 -0.9,0 -1.4,-0.14 z"
         inkscape:connector-curvature="0"
         style="fill:#000000;stroke-width:0" /><path
         id="path976"
         d="m 1214.8,434.45 h 14 c 0.6,0 1.6,0 1.6,1 0,1 -1,1 -1.6,1 h -14 v 13.96 c 0,0.68 0,1.64 -1,1.64 -0.9,0 -0.9,-0.96 -0.9,-1.64 v -13.96 h -14 c -0.7,0 -1.6,0 -1.6,-1 0,-1 0.9,-1 1.6,-1 h 14 v -13.93 c 0,-0.71 0,-1.66 0.9,-1.66 1,0 1,0.95 1,1.66 z"
         inkscape:connector-curvature="0"
         style="fill:#000000;stroke-width:0" /><polygon
         id="polygon978"
         points="1250.7,450.84 1268.7,450.84 1268.7,452.39 1250.7,452.39 "
         style="fill:#000000;stroke-width:0" /><path
         id="path980"
         d="m 1250.9,427.14 0.2,0.27 0.3,0.25 0.2,0.25 0.2,0.24 0.3,0.23 0.2,0.23 0.2,0.21 0.2,0.21 0.2,0.2 0.2,0.2 0.2,0.18 0.2,0.19 0.2,0.18 0.1,0.17 0.4,0.33 0.3,0.32 0.4,0.3 0.3,0.29 0.3,0.29 0.7,0.56 0.3,0.29 0.3,0.28 c 0,0.05 3.1,2.69 4.9,4.49 4.7,4.64 5.8,7.03 5.8,7.22 0,0.5 -0.4,0.5 -0.5,0.5 -0.4,0 -0.5,-0.1 -0.8,-0.55 -1.4,-2.39 -2.5,-3.19 -3.7,-3.19 -1.2,0 -1.8,0.75 -2.5,1.6 -1,1.15 -1.8,2.14 -3.5,2.14 -3.7,0 -6,-4.63 -6,-5.68 0,-0.25 0.1,-0.54 0.6,-0.54 0.5,0 0.5,0.25 0.6,0.54 1,2.3 3.9,2.35 4.3,2.35 1,0 2,-0.36 3.1,-0.75 2,-0.75 2.6,-0.75 3.9,-0.75 -1.8,-2.14 -6,-5.74 -7,-6.53 l -4.4,-4.18 c -3.4,-3.34 -5.2,-6.18 -5.2,-6.53 0,-0.5 0.5,-0.5 0.6,-0.5 0.4,0 0.5,0.1 0.8,0.64 1.2,1.75 2.6,3.1 4.2,3.1 1.2,0 1.7,-0.46 2.9,-1.89 0.9,-1.05 1.8,-1.85 3.2,-1.85 5,0 7.8,6.33 7.8,7.67 0,0.26 -0.2,0.5 -0.6,0.5 -0.4,0 -0.5,-0.29 -0.7,-0.65 -1.1,-3.24 -4.3,-4.17 -5.9,-4.17 -1,0 -1.9,0.29 -3,0.64 -1.7,0.64 -2.4,0.84 -3.5,0.84 -0.1,0 -0.9,0 -1.3,-0.14 z"
         inkscape:connector-curvature="0"
         style="fill:#000000;stroke-width:0" /><path
         id="path982"
         d="m 1313.5,434.45 h 0.1 0.2 l 0.1,0.01 h 0.1 l 0.1,0.01 0.1,0.01 v 0 l 0.1,0.01 0.1,0.02 0.1,0.01 v 0.02 l 0.1,0.02 v 0.02 l 0.1,0.02 0.1,0.03 v 0.03 l 0.1,0.04 v 0.04 l 0.1,0.04 v 0.04 l 0.1,0.05 v 0.03 0.03 0.03 0.03 0.03 0.03 l 0.1,0.04 v 0.03 0.04 0.04 0.04 0.04 0.04 0.04 0.05 0.04 c 0,1 -0.9,1 -1.7,1 h -27 c -0.8,0 -1.7,0 -1.7,-1 0,-1 0.9,-1 1.7,-1 z"
         inkscape:connector-curvature="0"
         style="fill:#000000;stroke-width:0" /><path
         id="path984"
         d="m 1345.2,454.89 v 0.06 0.05 0.05 0.05 0.05 0.05 0.04 0.05 0.04 0.04 0.04 0.04 0.04 0.04 0.03 0.03 0.07 0.06 l -0.1,0.05 v 0.05 0.05 0.04 0.04 l -0.1,0.03 v 0.04 0.02 0.03 l -0.1,0.02 v 0.02 l -0.1,0.01 v 0.01 0 0.01 l -0.1,0.01 v 0 0.01 h -0.1 v 0.01 0 h -0.1 v 0.01 0 h -0.1 v 0 h -0.1 v 0.01 0 h -0.1 v 0 h -0.1 v 0 C 1340.9,453 1336.6,453 1335,453 v -1.55 c 1,0 3.9,0 6.5,1.3 v -25.81 c 0,-1.8 -0.1,-2.39 -4.6,-2.39 h -1.6 V 423 c 1.7,0.16 6.1,0.16 8,0.16 2,0 6.4,0 8.1,-0.16 v 1.55 h -1.6 c -4.5,0 -4.6,0.54 -4.6,2.39 z"
         inkscape:connector-curvature="0"
         style="fill:#000000;stroke-width:0" /><polyline
         id="polyline986"
         points="1069,407 1445.4,407 1445.4,409.04 1069,409.04 "
         style="fill:#000000;fill-rule:nonzero;stroke-width:0" /><path
         id="path988"
         d="m 1105.2,382.85 v 0.13 0.15 l 0.1,0.16 v 0.18 l 0.1,0.2 v 0.2 l 0.1,0.22 0.1,0.22 v 0.24 l 0.1,0.24 0.1,0.24 0.1,0.25 0.1,0.25 0.2,0.25 0.1,0.25 0.1,0.24 0.2,0.24 0.1,0.24 0.2,0.23 0.2,0.23 0.2,0.21 0.2,0.2 0.2,0.19 0.2,0.18 0.2,0.16 0.3,0.14 0.1,0.07 0.1,0.06 0.2,0.05 0.1,0.05 0.1,0.05 0.2,0.04 0.1,0.03 0.2,0.03 0.1,0.02 0.2,0.02 0.1,0.01 h 0.2 c 0.2,0 1.4,0 2.5,-0.64 -1.4,-0.25 -2.4,-1.5 -2.4,-2.69 0,-0.79 0.5,-1.75 1.9,-1.75 1.1,0 2.7,0.9 2.7,2.9 0,2.59 -3,3.28 -4.7,3.28 -2.9,0 -4.6,-2.64 -5.2,-3.78 -1.2,3.28 -3.9,3.78 -5.4,3.78 -5.2,0 -8,-6.43 -8,-7.68 0,-0.5 0.5,-0.5 0.6,-0.5 0.4,0 0.6,0.11 0.7,0.55 1.6,5.28 4.9,6.53 6.6,6.53 1,0 2.7,-0.43 2.7,-3.33 0,-1.54 -0.8,-4.89 -2.7,-11.85 -0.8,-3.1 -2.5,-5.19 -4.7,-5.19 -0.3,0 -1.5,0 -2.5,0.65 1.3,0.24 2.4,1.29 2.4,2.69 0,1.35 -1.1,1.74 -1.9,1.74 -1.5,0 -2.7,-1.3 -2.7,-2.89 0,-2.29 2.5,-3.29 4.6,-3.29 3.3,0 5.1,3.49 5.3,3.79 0.6,-1.85 2.4,-3.79 5.3,-3.79 5.2,0 8,6.43 8,7.68 0,0.5 -0.4,0.5 -0.6,0.5 -0.4,0 -0.5,-0.21 -0.6,-0.55 -1.7,-5.33 -5,-6.53 -6.6,-6.53 -2,0 -2.8,1.59 -2.8,3.29 0,1.1 0.3,2.19 0.9,4.38 z"
         inkscape:connector-curvature="0"
         style="fill:#000000;stroke-width:0" /><path
         id="path990"
         d="m 1141.2,386.79 v 0.03 0.03 0.06 0.05 0.06 l 0.1,0.05 v 0.05 0.04 0.05 0.04 0.04 0.03 0.04 0.03 0.03 0.03 0.03 0.03 0.03 l 0.1,0.06 v 0.05 0.05 0.05 0.06 0.02 0.03 0.03 0.04 c 0,0.9 -0.7,1.34 -1.5,1.34 -0.5,0 -1.3,-0.3 -1.7,-1.05 -0.1,-0.25 -0.5,-1.78 -0.7,-2.68 -0.4,-1.3 -0.7,-2.65 -1,-3.99 l -2.3,-8.97 c -0.1,-0.75 -2.3,-4.23 -5.6,-4.23 -2.5,0 -3.1,2.19 -3.1,4.03 0,2.3 0.9,5.39 2.6,9.76 0.8,2.05 1,2.6 1,3.6 0,2.23 -1.6,4.08 -4.1,4.08 -4.8,0 -6.6,-7.22 -6.6,-7.68 0,-0.5 0.5,-0.5 0.6,-0.5 0.5,0 0.6,0.11 0.8,0.91 1.3,4.69 3.3,6.17 5,6.17 0.4,0 1.3,0 1.3,-1.59 0,-1.25 -0.5,-2.53 -0.9,-3.49 -2,-5.28 -2.9,-8.12 -2.9,-10.46 0,-4.43 3.2,-5.93 6.1,-5.93 2,0 3.7,0.85 5,2.24 -0.6,-2.58 -1.2,-5.03 -3.2,-7.67 -1.3,-1.69 -3.2,-3.14 -5.5,-3.14 -0.7,0 -2.9,0.15 -3.8,2.09 0.8,0 1.5,0 2.2,0.61 0.5,0.44 1,1.09 1,2.03 0,1.55 -1.4,1.75 -1.9,1.75 -1.1,0 -2.8,-0.8 -2.8,-3.23 0,-2.5 2.2,-4.35 5.3,-4.35 5.2,0 10.3,4.55 11.7,10.17 z"
         inkscape:connector-curvature="0"
         style="fill:#000000;stroke-width:0" /><path
         id="path992"
         d="m 1149.9,371.94 0.2,0.27 0.3,0.25 0.2,0.25 0.2,0.24 0.2,0.23 0.3,0.23 0.2,0.21 0.2,0.21 0.2,0.2 0.2,0.2 0.2,0.18 0.1,0.19 0.2,0.18 0.2,0.17 0.4,0.33 0.3,0.32 0.3,0.3 0.4,0.29 0.3,0.29 0.6,0.56 0.4,0.29 0.3,0.28 c 0,0.05 3.1,2.69 4.9,4.49 4.7,4.64 5.8,7.03 5.8,7.22 0,0.5 -0.4,0.5 -0.6,0.5 -0.3,0 -0.5,-0.1 -0.7,-0.55 -1.5,-2.39 -2.5,-3.19 -3.7,-3.19 -1.2,0 -1.8,0.75 -2.6,1.6 -0.9,1.15 -1.8,2.14 -3.4,2.14 -3.7,0 -6,-4.63 -6,-5.68 0,-0.25 0.1,-0.54 0.6,-0.54 0.4,0 0.5,0.25 0.6,0.54 1,2.3 3.9,2.35 4.2,2.35 1.1,0 2,-0.36 3.2,-0.75 2,-0.75 2.5,-0.75 3.8,-0.75 -1.8,-2.14 -6,-5.74 -6.9,-6.53 l -4.5,-4.17 c -3.4,-3.35 -5.1,-6.19 -5.1,-6.54 0,-0.5 0.5,-0.5 0.6,-0.5 0.4,0 0.5,0.1 0.8,0.64 1.1,1.75 2.6,3.1 4.2,3.1 1.2,0 1.7,-0.45 2.9,-1.89 0.9,-1.05 1.7,-1.85 3.2,-1.85 4.9,0 7.8,6.33 7.8,7.68 0,0.25 -0.2,0.5 -0.6,0.5 -0.4,0 -0.5,-0.3 -0.7,-0.66 -1.1,-3.23 -4.3,-4.17 -6,-4.17 -1,0 -1.9,0.29 -2.9,0.64 -1.7,0.64 -2.5,0.84 -3.5,0.84 -0.1,0 -0.9,0 -1.3,-0.14 z"
         inkscape:connector-curvature="0"
         style="fill:#000000;stroke-width:0" /><path
         id="path994"
         d="m 1200,379.25 h 13.9 c 0.7,0 1.6,0 1.6,1 0,1 -0.9,1 -1.6,1 H 1200 v 13.96 c 0,0.68 0,1.64 -1,1.64 -1,0 -1,-0.96 -1,-1.64 v -13.96 h -14 c -0.7,0 -1.6,0 -1.6,-1 0,-1 0.9,-1 1.6,-1 h 14 v -13.93 c 0,-0.71 0,-1.66 1,-1.66 1,0 1,0.95 1,1.66 z"
         inkscape:connector-curvature="0"
         style="fill:#000000;stroke-width:0" /><path
         id="path996"
         d="m 1246,382.85 0.1,0.13 v 0.15 0.16 l 0.1,0.18 v 0.2 l 0.1,0.2 0.1,0.22 v 0.22 l 0.1,0.24 0.1,0.24 0.1,0.24 0.1,0.25 0.1,0.25 0.1,0.25 0.2,0.25 0.1,0.24 0.1,0.24 0.2,0.24 0.2,0.23 0.1,0.23 0.2,0.21 0.2,0.2 0.2,0.19 0.3,0.18 0.2,0.16 0.2,0.14 0.2,0.07 0.1,0.06 0.1,0.05 0.2,0.05 0.1,0.05 0.1,0.04 0.2,0.03 0.1,0.03 0.2,0.02 0.1,0.02 0.2,0.01 h 0.2 c 0.2,0 1.4,0 2.4,-0.64 -1.3,-0.25 -2.3,-1.5 -2.3,-2.69 0,-0.79 0.5,-1.75 1.8,-1.75 1.1,0 2.7,0.9 2.7,2.9 0,2.59 -2.9,3.28 -4.6,3.28 -2.9,0 -4.6,-2.64 -5.2,-3.78 -1.3,3.28 -4,3.78 -5.4,3.78 -5.2,0 -8,-6.43 -8,-7.68 0,-0.5 0.5,-0.5 0.6,-0.5 0.4,0 0.5,0.11 0.6,0.55 1.7,5.28 5,6.53 6.7,6.53 0.9,0 2.7,-0.43 2.7,-3.33 0,-1.54 -0.9,-4.89 -2.7,-11.85 -0.8,-3.1 -2.5,-5.19 -4.7,-5.19 -0.3,0 -1.5,0 -2.5,0.65 1.2,0.24 2.3,1.29 2.3,2.69 0,1.35 -1.1,1.74 -1.8,1.74 -1.5,0 -2.8,-1.3 -2.8,-2.89 0,-2.29 2.5,-3.29 4.7,-3.29 3.3,0 5.1,3.49 5.3,3.79 0.5,-1.85 2.3,-3.79 5.3,-3.79 5.2,0 8,6.43 8,7.68 0,0.5 -0.4,0.5 -0.6,0.5 -0.4,0 -0.6,-0.21 -0.6,-0.55 -1.7,-5.33 -5.1,-6.53 -6.7,-6.53 -1.9,0 -2.7,1.59 -2.7,3.29 0,1.1 0.3,2.19 0.8,4.38 z"
         inkscape:connector-curvature="0"
         style="fill:#000000;stroke-width:0" /><path
         id="path998"
         d="m 1282,386.79 v 0.03 l 0.1,0.03 v 0.06 0.05 0.06 0.05 0.05 0.04 0.05 l 0.1,0.04 v 0.04 0.03 0.04 0.03 0.03 0.03 0.03 0.03 0.03 0.06 0.05 0.05 0.05 0.06 0.02 0.03 0.03 0.04 c 0,0.9 -0.7,1.34 -1.4,1.34 -0.5,0 -1.3,-0.3 -1.8,-1.05 -0.1,-0.25 -0.5,-1.78 -0.6,-2.68 -0.4,-1.3 -0.7,-2.65 -1,-3.99 l -2.3,-8.97 c -0.2,-0.75 -2.3,-4.23 -5.6,-4.23 -2.6,0 -3.1,2.19 -3.1,4.03 0,2.3 0.8,5.39 2.5,9.76 0.8,2.05 1,2.6 1,3.6 0,2.23 -1.6,4.08 -4.1,4.08 -4.7,0 -6.5,-7.22 -6.5,-7.68 0,-0.5 0.5,-0.5 0.6,-0.5 0.5,0 0.5,0.11 0.8,0.91 1.3,4.69 3.3,6.17 5,6.17 0.4,0 1.2,0 1.2,-1.59 0,-1.25 -0.5,-2.53 -0.8,-3.49 -2,-5.28 -2.9,-8.12 -2.9,-10.46 0,-4.43 3.1,-5.93 6.1,-5.93 1.9,0 3.6,0.85 5,2.24 -0.6,-2.58 -1.2,-5.03 -3.2,-7.67 -1.3,-1.69 -3.2,-3.14 -5.5,-3.14 -0.7,0 -2.9,0.15 -3.8,2.09 0.8,0 1.5,0 2.1,0.61 0.5,0.44 1,1.09 1,2.03 0,1.55 -1.3,1.75 -1.8,1.75 -1.1,0 -2.8,-0.8 -2.8,-3.23 0,-2.5 2.2,-4.35 5.3,-4.35 5.1,0 10.3,4.55 11.7,10.17 z"
         inkscape:connector-curvature="0"
         style="fill:#000000;stroke-width:0" /><polygon
         id="polygon1000"
         points="1290.5,395.64 1308.5,395.64 1308.5,397.19 1290.5,397.19 "
         style="fill:#000000;stroke-width:0" /><path
         id="path1002"
         d="m 1290.7,371.94 0.3,0.27 0.2,0.25 0.2,0.25 0.3,0.24 0.2,0.23 0.2,0.23 0.2,0.21 0.2,0.21 0.2,0.2 0.2,0.2 0.2,0.18 0.2,0.19 0.2,0.18 0.2,0.17 0.3,0.33 0.4,0.32 0.3,0.3 0.3,0.29 0.4,0.29 0.6,0.56 0.3,0.29 0.4,0.28 c 0,0.05 3,2.69 4.8,4.49 4.8,4.64 5.9,7.03 5.9,7.22 0,0.5 -0.5,0.5 -0.6,0.5 -0.3,0 -0.5,-0.1 -0.7,-0.55 -1.5,-2.39 -2.6,-3.19 -3.8,-3.19 -1.2,0 -1.8,0.75 -2.5,1.6 -1,1.15 -1.8,2.14 -3.5,2.14 -3.7,0 -6,-4.63 -6,-5.68 0,-0.25 0.2,-0.54 0.6,-0.54 0.5,0 0.6,0.25 0.7,0.54 0.9,2.3 3.8,2.35 4.2,2.35 1,0 2,-0.36 3.1,-0.75 2,-0.75 2.6,-0.75 3.9,-0.75 -1.8,-2.14 -6,-5.74 -6.9,-6.53 l -4.5,-4.17 c -3.4,-3.35 -5.2,-6.19 -5.2,-6.54 0,-0.5 0.5,-0.5 0.6,-0.5 0.4,0 0.5,0.1 0.8,0.64 1.2,1.75 2.7,3.1 4.3,3.1 1.1,0 1.6,-0.45 2.9,-1.89 0.8,-1.05 1.7,-1.85 3.1,-1.85 5,0 7.9,6.33 7.9,7.68 0,0.25 -0.2,0.5 -0.6,0.5 -0.5,0 -0.6,-0.3 -0.7,-0.66 -1.2,-3.23 -4.4,-4.17 -6,-4.17 -1,0 -1.9,0.29 -2.9,0.64 -1.7,0.64 -2.5,0.84 -3.5,0.84 -0.1,0 -0.9,0 -1.4,-0.14 z"
         inkscape:connector-curvature="0"
         style="fill:#000000;stroke-width:0" /><path
         id="path1004"
         d="m 1353.3,379.25 h 0.1 l 0.2,0.01 h 0.2 v 0 l 0.1,0.01 0.1,0.01 h 0.1 v 0.01 l 0.1,0.02 0.1,0.01 0.1,0.02 v 0.02 l 0.1,0.02 v 0.02 l 0.1,0.03 0.1,0.03 v 0.04 l 0.1,0.04 v 0.04 0.05 l 0.1,0.05 v 0.02 0.03 0.03 l 0.1,0.03 v 0.03 0.03 0.04 0.03 0.04 0.04 0.04 0.04 0.04 0.04 0.05 0.04 c 0,1 -0.9,1 -1.7,1 h -27 c -0.8,0 -1.7,0 -1.7,-1 0,-1 0.9,-1 1.7,-1 z"
         inkscape:connector-curvature="0"
         style="fill:#000000;stroke-width:0" /><path
         id="path1006"
         d="m 1386.9,382.85 v 0.13 l 0.1,0.15 v 0.16 0.18 l 0.1,0.2 0.1,0.2 v 0.22 l 0.1,0.22 0.1,0.24 0.1,0.24 0.1,0.24 0.1,0.25 0.1,0.25 0.1,0.25 0.1,0.25 0.2,0.24 0.1,0.24 0.2,0.24 0.1,0.23 0.2,0.23 0.2,0.21 0.2,0.2 0.2,0.19 0.2,0.18 0.3,0.16 0.2,0.14 0.1,0.07 0.2,0.06 0.1,0.05 0.1,0.05 0.2,0.05 0.1,0.04 0.2,0.03 0.1,0.03 0.2,0.02 0.1,0.02 0.2,0.01 h 0.1 c 0.3,0 1.5,0 2.5,-0.64 -1.4,-0.25 -2.4,-1.5 -2.4,-2.69 0,-0.79 0.6,-1.75 1.9,-1.75 1.1,0 2.7,0.9 2.7,2.9 0,2.59 -2.9,3.28 -4.6,3.28 -2.9,0 -4.7,-2.64 -5.3,-3.78 -1.2,3.28 -3.9,3.78 -5.3,3.78 -5.2,0 -8.1,-6.43 -8.1,-7.68 0,-0.5 0.5,-0.5 0.6,-0.5 0.4,0 0.6,0.11 0.7,0.55 1.7,5.28 5,6.53 6.7,6.53 0.9,0 2.6,-0.43 2.6,-3.33 0,-1.54 -0.8,-4.89 -2.6,-11.85 -0.8,-3.1 -2.6,-5.19 -4.8,-5.19 -0.3,0 -1.4,0 -2.5,0.65 1.3,0.24 2.4,1.29 2.4,2.69 0,1.35 -1.1,1.74 -1.9,1.74 -1.5,0 -2.7,-1.3 -2.7,-2.89 0,-2.29 2.5,-3.29 4.7,-3.29 3.3,0 5.1,3.49 5.2,3.79 0.6,-1.85 2.4,-3.79 5.4,-3.79 5.1,0 8,6.43 8,7.68 0,0.5 -0.5,0.5 -0.6,0.5 -0.5,0 -0.6,-0.21 -0.7,-0.55 -1.6,-5.33 -5,-6.53 -6.6,-6.53 -2,0 -2.8,1.59 -2.8,3.29 0,1.1 0.3,2.19 0.9,4.38 z"
         inkscape:connector-curvature="0"
         style="fill:#000000;stroke-width:0" /><path
         id="path1008"
         d="m 1422.9,386.79 v 0.03 0.03 0.06 l 0.1,0.05 v 0.06 0.05 0.05 0.04 0.05 0.04 0.04 0.03 l 0.1,0.04 v 0.03 0.03 0.03 0.03 0.03 0.03 0.06 0.05 0.05 0.05 0.06 0.02 0.03 0.03 0.04 c 0,0.9 -0.7,1.34 -1.4,1.34 -0.5,0 -1.3,-0.3 -1.8,-1.05 -0.1,-0.25 -0.5,-1.78 -0.7,-2.68 -0.3,-1.3 -0.7,-2.65 -1,-3.99 l -2.2,-8.97 c -0.2,-0.75 -2.4,-4.23 -5.7,-4.23 -2.5,0 -3.1,2.19 -3.1,4.03 0,2.3 0.9,5.39 2.6,9.76 0.8,2.05 1,2.6 1,3.6 0,2.23 -1.6,4.08 -4.1,4.08 -4.7,0 -6.6,-7.22 -6.6,-7.68 0,-0.5 0.5,-0.5 0.6,-0.5 0.5,0 0.6,0.11 0.8,0.91 1.4,4.69 3.4,6.17 5.1,6.17 0.4,0 1.2,0 1.2,-1.59 0,-1.25 -0.5,-2.53 -0.8,-3.49 -2,-5.28 -2.9,-8.12 -2.9,-10.46 0,-4.43 3.1,-5.93 6,-5.93 2,0 3.7,0.85 5.1,2.24 -0.7,-2.58 -1.3,-5.03 -3.3,-7.67 -1.3,-1.69 -3.1,-3.14 -5.4,-3.14 -0.7,0 -3,0.15 -3.8,2.09 0.8,0 1.4,0 2.1,0.61 0.5,0.44 1,1.09 1,2.03 0,1.55 -1.3,1.75 -1.8,1.75 -1.2,0 -2.8,-0.8 -2.8,-3.23 0,-2.5 2.2,-4.35 5.3,-4.35 5.1,0 10.2,4.55 11.6,10.17 z"
         inkscape:connector-curvature="0"
         style="fill:#000000;stroke-width:0" /><polyline
         id="polyline1010"
         points="877,346 1445.3,346 1445.3,348.04 877,348.04 "
         style="fill:#000000;fill-rule:nonzero;stroke-width:0" /><path
         id="path1012"
         d="m 1079.6,322.25 v 0.13 l 0.1,0.15 v 0.16 l 0.1,0.18 v 0.19 l 0.1,0.21 v 0.22 l 0.1,0.22 0.1,0.23 0.1,0.24 0.1,0.25 0.1,0.24 0.1,0.25 0.1,0.25 0.1,0.25 0.2,0.25 0.1,0.24 0.2,0.24 0.1,0.23 0.2,0.22 0.2,0.22 0.2,0.2 0.2,0.19 0.2,0.18 0.3,0.16 0.2,0.14 0.1,0.07 0.2,0.06 0.1,0.05 0.1,0.05 0.2,0.05 0.1,0.04 0.2,0.03 0.1,0.03 0.2,0.02 0.1,0.02 0.2,0.01 h 0.1 c 0.3,0 1.5,0 2.5,-0.64 -1.4,-0.25 -2.4,-1.5 -2.4,-2.69 0,-0.79 0.6,-1.75 1.9,-1.75 1.1,0 2.7,0.89 2.7,2.89 0,2.6 -2.9,3.28 -4.6,3.28 -2.9,0 -4.7,-2.64 -5.3,-3.78 -1.2,3.28 -3.9,3.78 -5.3,3.78 -5.2,0 -8.1,-6.42 -8.1,-7.67 0,-0.5 0.5,-0.5 0.7,-0.5 0.3,0 0.5,0.11 0.6,0.55 1.7,5.28 5,6.53 6.7,6.53 0.9,0 2.7,-0.44 2.7,-3.33 0,-1.54 -0.9,-4.89 -2.7,-11.86 -0.8,-3.09 -2.6,-5.18 -4.8,-5.18 -0.3,0 -1.4,0 -2.4,0.65 1.2,0.24 2.3,1.28 2.3,2.69 0,1.34 -1.1,1.73 -1.8,1.73 -1.5,0 -2.8,-1.29 -2.8,-2.89 0,-2.28 2.5,-3.28 4.7,-3.28 3.3,0 5.1,3.49 5.2,3.78 0.6,-1.84 2.4,-3.78 5.4,-3.78 5.1,0 8,6.42 8,7.67 0,0.5 -0.5,0.5 -0.6,0.5 -0.5,0 -0.6,-0.2 -0.7,-0.54 -1.6,-5.33 -5,-6.53 -6.6,-6.53 -2,0 -2.7,1.59 -2.7,3.29 0,1.1 0.2,2.19 0.8,4.38 z"
         inkscape:connector-curvature="0"
         style="fill:#000000;stroke-width:0" /><path
         id="path1014"
         d="m 1115.6,326.18 v 0.04 0.03 l 0.1,0.06 v 0.05 0.06 0.05 0.04 0.05 0.04 0.04 0.04 0.04 l 0.1,0.04 v 0.03 0.03 0.03 0.03 0.03 0.03 0.05 0.06 0.05 0.05 0.05 0.03 0.03 0.03 0.03 c 0,0.91 -0.7,1.35 -1.4,1.35 -0.5,0 -1.3,-0.3 -1.8,-1.05 -0.1,-0.25 -0.5,-1.78 -0.7,-2.69 -0.3,-1.29 -0.7,-2.64 -1,-3.98 l -2.2,-8.97 c -0.2,-0.75 -2.4,-4.23 -5.6,-4.23 -2.6,0 -3.1,2.18 -3.1,4.03 0,2.29 0.8,5.39 2.5,9.76 0.8,2.05 1,2.6 1,3.6 0,2.23 -1.6,4.07 -4.1,4.07 -4.7,0 -6.6,-7.21 -6.6,-7.67 0,-0.5 0.5,-0.5 0.6,-0.5 0.5,0 0.6,0.11 0.8,0.91 1.4,4.69 3.4,6.17 5.1,6.17 0.4,0 1.2,0 1.2,-1.59 0,-1.25 -0.5,-2.53 -0.8,-3.49 -2,-5.28 -2.9,-8.12 -2.9,-10.47 0,-4.42 3.1,-5.92 6,-5.92 2,0 3.7,0.85 5.1,2.24 -0.7,-2.58 -1.2,-5.03 -3.2,-7.68 -1.4,-1.68 -3.2,-3.14 -5.5,-3.14 -0.7,0 -3,0.16 -3.8,2.1 0.8,0 1.4,0 2.1,0.61 0.5,0.43 1,1.09 1,2.03 0,1.55 -1.3,1.75 -1.8,1.75 -1.2,0 -2.8,-0.8 -2.8,-3.24 0,-2.5 2.2,-4.34 5.3,-4.34 5.1,0 10.2,4.55 11.6,10.17 z"
         inkscape:connector-curvature="0"
         style="fill:#000000;stroke-width:0" /><path
         id="path1016"
         d="m 1161.5,318.65 h 0.2 0.2 l 0.1,0.01 h 0.1 l 0.1,0.01 v 0 l 0.1,0.01 0.1,0.01 0.1,0.01 v 0.02 l 0.1,0.02 0.1,0.02 v 0.02 l 0.1,0.02 0.1,0.03 v 0.03 l 0.1,0.04 v 0.03 l 0.1,0.05 v 0.04 0.05 l 0.1,0.03 v 0.03 0.03 0.03 0.03 0.03 0.04 0.03 l 0.1,0.04 v 0.04 0.04 0.04 0.04 0.04 0.05 0.04 c 0,1 -0.9,1 -1.8,1 h -26.9 c -0.8,0 -1.7,0 -1.7,-1 0,-1 0.9,-1 1.7,-1 z"
         inkscape:connector-curvature="0"
         style="fill:#000000;stroke-width:0" /><path
         id="path1018"
         d="m 1195.2,322.25 v 0.13 0.15 l 0.1,0.16 v 0.18 l 0.1,0.19 v 0.21 l 0.1,0.22 0.1,0.22 v 0.23 l 0.1,0.24 0.1,0.25 0.1,0.24 0.1,0.25 0.2,0.25 0.1,0.25 0.1,0.25 0.2,0.24 0.1,0.24 0.2,0.23 0.2,0.22 0.2,0.22 0.2,0.2 0.2,0.19 0.2,0.18 0.2,0.16 0.3,0.14 0.1,0.07 0.1,0.06 0.1,0.05 0.2,0.05 0.1,0.05 0.2,0.04 0.1,0.03 0.2,0.03 0.1,0.02 0.2,0.02 0.1,0.01 h 0.2 c 0.2,0 1.4,0 2.5,-0.64 -1.4,-0.25 -2.4,-1.5 -2.4,-2.69 0,-0.79 0.5,-1.75 1.9,-1.75 1.1,0 2.7,0.89 2.7,2.89 0,2.6 -3,3.28 -4.7,3.28 -2.9,0 -4.6,-2.64 -5.2,-3.78 -1.2,3.28 -3.9,3.78 -5.4,3.78 -5.2,0 -8,-6.42 -8,-7.67 0,-0.5 0.5,-0.5 0.6,-0.5 0.4,0 0.6,0.11 0.7,0.55 1.6,5.28 4.9,6.53 6.6,6.53 1,0 2.7,-0.44 2.7,-3.33 0,-1.54 -0.8,-4.89 -2.7,-11.86 -0.8,-3.09 -2.5,-5.18 -4.7,-5.18 -0.3,0 -1.5,0 -2.5,0.65 1.2,0.24 2.3,1.28 2.3,2.69 0,1.34 -1.1,1.73 -1.8,1.73 -1.5,0 -2.8,-1.29 -2.8,-2.89 0,-2.28 2.5,-3.28 4.7,-3.28 3.3,0 5.1,3.49 5.3,3.78 0.6,-1.84 2.4,-3.78 5.3,-3.78 5.2,0 8,6.42 8,7.67 0,0.5 -0.4,0.5 -0.6,0.5 -0.4,0 -0.5,-0.2 -0.6,-0.54 -1.7,-5.33 -5.1,-6.53 -6.6,-6.53 -2,0 -2.8,1.59 -2.8,3.29 0,1.1 0.3,2.19 0.9,4.38 z"
         inkscape:connector-curvature="0"
         style="fill:#000000;stroke-width:0" /><path
         id="path1020"
         d="m 1231.2,326.18 v 0.04 0.03 0.06 0.05 0.06 0.05 l 0.1,0.04 v 0.05 0.04 0.04 0.04 0.04 0.04 0.03 0.03 0.03 0.03 0.03 0.03 0.05 l 0.1,0.06 v 0.05 0.05 0.05 0.03 0.03 0.03 0.03 c 0,0.91 -0.7,1.35 -1.5,1.35 -0.5,0 -1.3,-0.3 -1.7,-1.05 -0.1,-0.25 -0.5,-1.78 -0.7,-2.69 -0.4,-1.29 -0.7,-2.64 -1,-3.98 l -2.3,-8.97 c -0.2,-0.75 -2.3,-4.23 -5.6,-4.23 -2.5,0 -3.1,2.18 -3.1,4.03 0,2.29 0.9,5.39 2.6,9.76 0.8,2.05 1,2.6 1,3.6 0,2.23 -1.6,4.07 -4.1,4.07 -4.8,0 -6.6,-7.21 -6.6,-7.67 0,-0.5 0.5,-0.5 0.6,-0.5 0.5,0 0.5,0.11 0.8,0.91 1.3,4.69 3.3,6.17 5,6.17 0.4,0 1.3,0 1.3,-1.59 0,-1.25 -0.5,-2.53 -0.9,-3.49 -2,-5.28 -2.9,-8.12 -2.9,-10.47 0,-4.42 3.2,-5.92 6.1,-5.92 2,0 3.6,0.85 5,2.24 -0.6,-2.58 -1.2,-5.03 -3.2,-7.68 -1.3,-1.68 -3.2,-3.14 -5.5,-3.14 -0.7,0 -2.9,0.16 -3.8,2.1 0.8,0 1.5,0 2.2,0.61 0.5,0.43 1,1.09 1,2.03 0,1.55 -1.4,1.75 -1.9,1.75 -1.1,0 -2.8,-0.8 -2.8,-3.24 0,-2.5 2.2,-4.34 5.3,-4.34 5.2,0 10.3,4.55 11.7,10.17 z"
         inkscape:connector-curvature="0"
         style="fill:#000000;stroke-width:0" /><path
         id="path1022"
         d="m 1239.8,311.34 0.3,0.27 0.2,0.25 0.3,0.25 0.2,0.24 0.2,0.23 0.2,0.22 0.3,0.22 0.2,0.21 0.2,0.2 0.2,0.19 0.1,0.19 0.2,0.19 0.2,0.17 0.2,0.18 0.4,0.33 0.3,0.32 0.3,0.3 0.4,0.29 0.3,0.29 0.6,0.56 0.4,0.29 0.3,0.28 c 0,0.05 3.1,2.69 4.9,4.49 4.7,4.64 5.8,7.03 5.8,7.21 0,0.5 -0.5,0.5 -0.6,0.5 -0.3,0 -0.5,-0.09 -0.7,-0.54 -1.5,-2.39 -2.5,-3.19 -3.7,-3.19 -1.2,0 -1.8,0.75 -2.6,1.59 -0.9,1.16 -1.8,2.14 -3.4,2.14 -3.8,0 -6,-4.62 -6,-5.67 0,-0.25 0.1,-0.54 0.6,-0.54 0.4,0 0.5,0.25 0.6,0.54 1,2.3 3.8,2.35 4.2,2.35 1.1,0 2,-0.36 3.2,-0.75 2,-0.75 2.5,-0.75 3.8,-0.75 -1.8,-2.14 -6,-5.74 -6.9,-6.53 l -4.5,-4.18 c -3.4,-3.34 -5.1,-6.18 -5.1,-6.53 0,-0.5 0.5,-0.5 0.6,-0.5 0.4,0 0.5,0.1 0.8,0.64 1.1,1.75 2.6,3.1 4.2,3.1 1.2,0 1.7,-0.46 2.9,-1.89 0.8,-1.05 1.7,-1.85 3.2,-1.85 4.9,0 7.8,6.33 7.8,7.67 0,0.25 -0.2,0.5 -0.6,0.5 -0.5,0 -0.5,-0.29 -0.7,-0.65 -1.1,-3.24 -4.3,-4.17 -6,-4.17 -1,0 -1.9,0.29 -2.9,0.64 -1.7,0.64 -2.5,0.84 -3.5,0.84 -0.1,0 -0.9,0 -1.4,-0.14 z"
         inkscape:connector-curvature="0"
         style="fill:#000000;stroke-width:0" /><path
         id="path1024"
         d="m 1566.6,365.57 v 0.13 0.15 l 0.1,0.16 v 0.18 l 0.1,0.19 v 0.21 l 0.1,0.22 0.1,0.22 v 0.23 l 0.1,0.24 0.1,0.25 0.1,0.24 0.1,0.25 0.2,0.25 0.1,0.25 0.1,0.25 0.2,0.24 0.1,0.24 0.2,0.23 0.2,0.22 0.2,0.22 0.2,0.2 0.2,0.19 0.2,0.18 0.2,0.16 0.3,0.14 0.1,0.07 0.1,0.06 0.2,0.05 0.1,0.05 0.1,0.05 0.2,0.04 0.1,0.03 0.2,0.03 0.1,0.02 0.2,0.02 0.1,0.01 h 0.2 c 0.3,0 1.4,0 2.5,-0.64 -1.4,-0.25 -2.4,-1.5 -2.4,-2.69 0,-0.79 0.5,-1.75 1.9,-1.75 1.1,0 2.7,0.89 2.7,2.89 0,2.6 -3,3.29 -4.6,3.29 -2.9,0 -4.7,-2.65 -5.3,-3.79 -1.2,3.29 -3.9,3.79 -5.4,3.79 -5.1,0 -8,-6.43 -8,-7.68 0,-0.5 0.5,-0.5 0.6,-0.5 0.4,0 0.6,0.11 0.7,0.55 1.6,5.28 4.9,6.53 6.6,6.53 1,0 2.7,-0.44 2.7,-3.33 0,-1.54 -0.8,-4.89 -2.7,-11.86 -0.8,-3.09 -2.5,-5.18 -4.7,-5.18 -0.3,0 -1.4,0 -2.5,0.65 1.3,0.24 2.3,1.28 2.3,2.69 0,1.34 -1,1.73 -1.8,1.73 -1.5,0 -2.7,-1.29 -2.7,-2.89 0,-2.28 2.5,-3.28 4.7,-3.28 3.2,0 5,3.49 5.2,3.78 0.6,-1.84 2.4,-3.78 5.4,-3.78 5.1,0 7.9,6.42 7.9,7.67 0,0.5 -0.4,0.5 -0.6,0.5 -0.4,0 -0.5,-0.2 -0.6,-0.54 -1.6,-5.33 -5,-6.53 -6.6,-6.53 -2,0 -2.8,1.59 -2.8,3.29 0,1.1 0.3,2.19 0.9,4.38 z"
         inkscape:connector-curvature="0"
         style="fill:#000000;stroke-width:0" /><path
         id="path1026"
         d="m 1585,354.66 0.2,0.27 0.3,0.25 0.2,0.25 0.2,0.24 0.3,0.23 0.2,0.22 0.2,0.22 0.2,0.21 0.2,0.2 0.2,0.19 0.2,0.19 0.2,0.19 0.2,0.18 0.1,0.17 0.4,0.33 0.3,0.32 0.4,0.3 0.3,0.29 0.3,0.29 0.7,0.56 0.3,0.29 0.3,0.28 c 0,0.05 3.1,2.69 4.9,4.49 4.7,4.64 5.8,7.03 5.8,7.22 0,0.5 -0.4,0.5 -0.5,0.5 -0.4,0 -0.5,-0.1 -0.8,-0.55 -1.5,-2.39 -2.5,-3.19 -3.7,-3.19 -1.2,0 -1.8,0.75 -2.5,1.59 -1,1.16 -1.8,2.15 -3.5,2.15 -3.7,0 -6,-4.63 -6,-5.68 0,-0.25 0.1,-0.54 0.6,-0.54 0.4,0 0.5,0.25 0.6,0.54 1,2.3 3.9,2.35 4.3,2.35 1,0 2,-0.36 3.1,-0.75 2,-0.75 2.6,-0.75 3.9,-0.75 -1.9,-2.14 -6,-5.74 -7,-6.53 l -4.5,-4.18 c -3.4,-3.34 -5.1,-6.18 -5.1,-6.53 0,-0.5 0.5,-0.5 0.6,-0.5 0.4,0 0.5,0.1 0.8,0.64 1.2,1.75 2.6,3.1 4.2,3.1 1.2,0 1.7,-0.46 2.9,-1.89 0.9,-1.05 1.8,-1.85 3.2,-1.85 4.9,0 7.8,6.33 7.8,7.67 0,0.25 -0.2,0.5 -0.6,0.5 -0.4,0 -0.5,-0.29 -0.7,-0.65 -1.1,-3.24 -4.3,-4.17 -5.9,-4.17 -1,0 -1.9,0.29 -3,0.64 -1.7,0.64 -2.4,0.84 -3.5,0.84 -0.1,0 -0.9,0 -1.3,-0.14 z"
         inkscape:connector-curvature="0"
         style="fill:#000000;stroke-width:0" /><polyline
         id="polyline1028"
         points="1517,339 1637,339 1637,341.04 1517,341.04 "
         style="fill:#000000;fill-rule:nonzero;stroke-width:0" /><path
         id="path1030"
         d="m 1553.5,322.25 v 0.13 0.15 l 0.1,0.16 v 0.18 l 0.1,0.19 v 0.21 l 0.1,0.22 0.1,0.22 0.1,0.23 0.1,0.24 v 0.25 l 0.2,0.24 0.1,0.25 0.1,0.25 0.1,0.25 0.2,0.25 0.1,0.24 0.2,0.24 0.1,0.23 0.2,0.22 0.2,0.22 0.2,0.2 0.2,0.19 0.2,0.18 0.2,0.16 0.3,0.14 0.1,0.07 0.1,0.06 0.2,0.05 0.1,0.05 0.2,0.05 0.1,0.04 0.1,0.03 0.2,0.03 0.1,0.02 0.2,0.02 0.2,0.01 h 0.1 c 0.3,0 1.5,0 2.5,-0.64 -1.4,-0.25 -2.4,-1.5 -2.4,-2.69 0,-0.79 0.6,-1.75 1.9,-1.75 1.1,0 2.7,0.89 2.7,2.89 0,2.6 -2.9,3.28 -4.6,3.28 -2.9,0 -4.7,-2.64 -5.3,-3.78 -1.2,3.28 -3.9,3.78 -5.3,3.78 -5.2,0 -8.1,-6.42 -8.1,-7.67 0,-0.5 0.5,-0.5 0.6,-0.5 0.4,0 0.6,0.11 0.7,0.55 1.7,5.28 5,6.53 6.7,6.53 0.9,0 2.6,-0.44 2.6,-3.33 0,-1.54 -0.8,-4.89 -2.6,-11.86 -0.9,-3.09 -2.6,-5.18 -4.8,-5.18 -0.3,0 -1.4,0 -2.5,0.65 1.3,0.24 2.4,1.28 2.4,2.69 0,1.34 -1.1,1.73 -1.9,1.73 -1.5,0 -2.7,-1.29 -2.7,-2.89 0,-2.28 2.5,-3.28 4.7,-3.28 3.3,0 5,3.49 5.2,3.78 0.6,-1.84 2.4,-3.78 5.4,-3.78 5.1,0 8,6.42 8,7.67 0,0.5 -0.5,0.5 -0.7,0.5 -0.4,0 -0.5,-0.2 -0.6,-0.54 -1.6,-5.33 -5,-6.53 -6.6,-6.53 -2,0 -2.8,1.59 -2.8,3.29 0,1.1 0.3,2.19 0.9,4.38 z"
         inkscape:connector-curvature="0"
         style="fill:#000000;stroke-width:0" /><path
         id="path1032"
         d="m 1589.5,326.18 v 0.04 0.03 0.06 0.05 l 0.1,0.06 v 0.05 0.04 0.05 0.04 0.04 0.04 0.04 0.04 0.03 0.03 l 0.1,0.03 v 0.03 0.03 0.03 0.05 0.06 0.05 0.05 0.05 0.03 0.03 0.03 0.03 c 0,0.91 -0.7,1.35 -1.5,1.35 -0.4,0 -1.3,-0.3 -1.7,-1.05 -0.1,-0.25 -0.5,-1.78 -0.7,-2.69 -0.4,-1.29 -0.7,-2.64 -1,-3.98 l -2.2,-8.97 c -0.2,-0.75 -2.4,-4.23 -5.7,-4.23 -2.5,0 -3.1,2.18 -3.1,4.03 0,2.29 0.9,5.39 2.6,9.76 0.8,2.05 1,2.6 1,3.6 0,2.23 -1.6,4.07 -4.1,4.07 -4.7,0 -6.6,-7.21 -6.6,-7.67 0,-0.5 0.5,-0.5 0.6,-0.5 0.5,0 0.6,0.11 0.8,0.91 1.4,4.69 3.3,6.17 5.1,6.17 0.3,0 1.2,0 1.2,-1.59 0,-1.25 -0.5,-2.53 -0.9,-3.49 -1.9,-5.28 -2.8,-8.12 -2.8,-10.47 0,-4.42 3.1,-5.92 6,-5.92 2,0 3.7,0.85 5.1,2.24 -0.7,-2.58 -1.3,-5.03 -3.3,-7.68 -1.3,-1.68 -3.2,-3.14 -5.5,-3.14 -0.6,0 -2.9,0.16 -3.7,2.1 0.8,0 1.4,0 2.1,0.61 0.5,0.43 1,1.09 1,2.03 0,1.55 -1.3,1.75 -1.8,1.75 -1.2,0 -2.8,-0.8 -2.8,-3.24 0,-2.5 2.2,-4.34 5.2,-4.34 5.2,0 10.3,4.55 11.7,10.17 z"
         inkscape:connector-curvature="0"
         style="fill:#000000;stroke-width:0" /><path
         id="path1034"
         d="m 1598.2,311.34 0.2,0.27 0.3,0.25 0.2,0.25 0.2,0.24 0.3,0.23 0.2,0.22 0.2,0.22 0.2,0.21 0.2,0.2 0.2,0.19 0.2,0.19 0.2,0.19 0.2,0.17 0.1,0.18 0.4,0.33 0.3,0.32 0.4,0.3 0.3,0.29 0.3,0.29 0.7,0.56 0.3,0.29 0.3,0.28 c 0,0.05 3.1,2.69 4.9,4.49 4.7,4.64 5.8,7.03 5.8,7.21 0,0.5 -0.4,0.5 -0.5,0.5 -0.4,0 -0.5,-0.09 -0.8,-0.54 -1.5,-2.39 -2.5,-3.19 -3.7,-3.19 -1.2,0 -1.8,0.75 -2.6,1.59 -0.9,1.16 -1.7,2.14 -3.4,2.14 -3.7,0 -6,-4.62 -6,-5.67 0,-0.25 0.1,-0.54 0.6,-0.54 0.4,0 0.5,0.25 0.6,0.54 1,2.3 3.9,2.35 4.3,2.35 1,0 2,-0.36 3.1,-0.75 2,-0.75 2.5,-0.75 3.8,-0.75 -1.8,-2.14 -5.9,-5.74 -6.9,-6.53 l -4.5,-4.18 c -3.4,-3.34 -5.1,-6.18 -5.1,-6.53 0,-0.5 0.5,-0.5 0.6,-0.5 0.4,0 0.5,0.1 0.8,0.64 1.1,1.75 2.6,3.1 4.2,3.1 1.2,0 1.7,-0.46 2.9,-1.89 0.9,-1.05 1.8,-1.85 3.2,-1.85 4.9,0 7.8,6.33 7.8,7.67 0,0.25 -0.2,0.5 -0.6,0.5 -0.4,0 -0.5,-0.29 -0.7,-0.65 -1.1,-3.24 -4.3,-4.17 -6,-4.17 -0.9,0 -1.8,0.29 -2.9,0.64 -1.7,0.64 -2.4,0.84 -3.5,0.84 -0.1,0 -0.9,0 -1.3,-0.14 z"
         inkscape:connector-curvature="0"
         style="fill:#000000;stroke-width:0" /><polyline
         id="polyline1036"
         points="1043,285 1636.8,285 1636.8,287.04 1043,287.04 "
         style="fill:#000000;fill-rule:nonzero;stroke-width:0" /><path
         id="path1038"
         d="m 1329.2,269.21 v 0.13 l 0.1,0.15 v 0.16 l 0.1,0.18 v 0.2 l 0.1,0.2 v 0.22 l 0.1,0.22 0.1,0.24 0.1,0.23 0.1,0.25 0.1,0.25 0.1,0.25 0.1,0.25 0.1,0.24 0.2,0.25 0.1,0.24 0.2,0.24 0.1,0.23 0.2,0.23 0.2,0.21 0.2,0.2 0.2,0.19 0.2,0.18 0.3,0.16 0.2,0.14 0.1,0.07 0.2,0.06 0.1,0.05 0.1,0.05 0.2,0.05 0.1,0.04 0.2,0.03 0.1,0.03 0.2,0.02 0.1,0.02 0.2,0.01 h 0.1 c 0.3,0 1.5,0 2.5,-0.64 -1.4,-0.25 -2.4,-1.5 -2.4,-2.69 0,-0.79 0.6,-1.75 1.9,-1.75 1.1,0 2.7,0.89 2.7,2.89 0,2.6 -2.9,3.29 -4.6,3.29 -2.9,0 -4.7,-2.64 -5.3,-3.79 -1.2,3.29 -3.9,3.79 -5.3,3.79 -5.2,0 -8.1,-6.43 -8.1,-7.68 0,-0.5 0.5,-0.5 0.7,-0.5 0.3,0 0.5,0.11 0.6,0.55 1.7,5.28 5,6.53 6.7,6.53 0.9,0 2.7,-0.44 2.7,-3.33 0,-1.54 -0.9,-4.89 -2.7,-11.86 -0.8,-3.09 -2.6,-5.18 -4.8,-5.18 -0.3,0 -1.4,0 -2.5,0.65 1.3,0.24 2.4,1.28 2.4,2.69 0,1.34 -1.1,1.74 -1.8,1.74 -1.6,0 -2.8,-1.3 -2.8,-2.9 0,-2.28 2.5,-3.28 4.7,-3.28 3.3,0 5.1,3.49 5.2,3.78 0.6,-1.84 2.4,-3.78 5.4,-3.78 5.1,0 8,6.43 8,7.68 0,0.5 -0.5,0.5 -0.6,0.5 -0.5,0 -0.6,-0.21 -0.7,-0.55 -1.6,-5.33 -5,-6.53 -6.6,-6.53 -2,0 -2.7,1.59 -2.7,3.29 0,1.1 0.2,2.19 0.8,4.38 z"
         inkscape:connector-curvature="0"
         style="fill:#000000;stroke-width:0" /><path
         id="path1040"
         d="m 1365.2,273.14 v 0.04 0.03 0.06 l 0.1,0.05 v 0.06 0.05 0.05 0.04 0.04 0.05 0.03 0.04 l 0.1,0.04 v 0.03 0.03 0.03 0.03 0.03 0.03 0.05 0.06 0.05 0.05 0.06 0.02 0.03 0.03 0.04 c 0,0.9 -0.7,1.34 -1.4,1.34 -0.5,0 -1.3,-0.3 -1.8,-1.05 -0.1,-0.25 -0.5,-1.78 -0.7,-2.69 -0.3,-1.29 -0.7,-2.64 -1,-3.98 l -2.2,-8.97 c -0.2,-0.75 -2.4,-4.23 -5.6,-4.23 -2.6,0 -3.1,2.18 -3.1,4.03 0,2.3 0.8,5.39 2.5,9.76 0.8,2.05 1,2.6 1,3.6 0,2.23 -1.6,4.08 -4.1,4.08 -4.7,0 -6.6,-7.22 -6.6,-7.68 0,-0.5 0.5,-0.5 0.6,-0.5 0.5,0 0.6,0.11 0.8,0.91 1.4,4.69 3.4,6.17 5.1,6.17 0.4,0 1.2,0 1.2,-1.59 0,-1.25 -0.5,-2.53 -0.8,-3.49 -2,-5.28 -2.9,-8.12 -2.9,-10.46 0,-4.43 3.1,-5.93 6,-5.93 2,0 3.7,0.85 5.1,2.24 -0.7,-2.58 -1.3,-5.03 -3.3,-7.67 -1.3,-1.69 -3.1,-3.14 -5.4,-3.14 -0.7,0 -3,0.15 -3.8,2.09 0.8,0 1.4,0 2.1,0.61 0.5,0.44 1,1.09 1,2.03 0,1.55 -1.3,1.75 -1.8,1.75 -1.2,0 -2.8,-0.8 -2.8,-3.23 0,-2.5 2.2,-4.35 5.3,-4.35 5.1,0 10.2,4.55 11.6,10.17 z"
         inkscape:connector-curvature="0"
         style="fill:#000000;stroke-width:0" /></g>  </g>
</svg>
