<?xml version="1.0" encoding="UTF-8" standalone="no"?>
<!-- Created with Inkscape (http://www.inkscape.org/) -->

<svg
   xmlns:dc="http://purl.org/dc/elements/1.1/"
   xmlns:cc="http://creativecommons.org/ns#"
   xmlns:rdf="http://www.w3.org/1999/02/22-rdf-syntax-ns#"
   xmlns:svg="http://www.w3.org/2000/svg"
   xmlns="http://www.w3.org/2000/svg"
   xmlns:sodipodi="http://sodipodi.sourceforge.net/DTD/sodipodi-0.dtd"
   xmlns:inkscape="http://www.inkscape.org/namespaces/inkscape"
   id="svg8"
   version="1.1"
   viewBox="0 0 91.198936 30.449888"
   height="30.449888mm"
   width="91.198936mm"
   inkscape:version="0.92.3 (2405546, 2018-03-11)"
   sodipodi:docname="resolution_derivation.svg">
  <sodipodi:namedview
     inkscape:window-maximized="1"
     inkscape:window-y="27"
     inkscape:window-x="67"
     inkscape:window-height="1025"
     inkscape:window-width="1853"
     showgrid="false"
     inkscape:current-layer="svg8"
     inkscape:document-units="mm"
     inkscape:cy="-5.9058732"
     inkscape:cx="177.81148"
     inkscape:zoom="2.8"
     inkscape:pageshadow="2"
     inkscape:pageopacity="0.0"
     borderopacity="1.0"
     bordercolor="#666666"
     pagecolor="#ffffff"
     id="base"
     fit-margin-top="0"
     fit-margin-left="0"
     fit-margin-right="0"
     fit-margin-bottom="0" />
  <defs
     id="defs2" />
  <metadata
     id="metadata5">
    <rdf:RDF>
      <cc:Work
         rdf:about="">
        <dc:format>image/svg+xml</dc:format>
        <dc:type
           rdf:resource="http://purl.org/dc/dcmitype/StillImage" />
        <dc:title></dc:title>
      </cc:Work>
    </rdf:RDF>
  </metadata>
  <g
     transform="translate(-104.24628,-115.62566)"
     inkscape:label="Layer 1"
     inkscape:groupmode="layer"
     id="layer1" />
  <g
     transform="translate(-53.195422,-117.12652)"
     id="g1315">
    <g
       style="font-style:normal;font-variant:normal;font-weight:normal;font-stretch:normal;letter-spacing:normal;word-spacing:normal;text-anchor:start;fill:none;fill-opacity:1;fill-rule:evenodd;stroke:#000000;stroke-linecap:butt;stroke-linejoin:miter;stroke-miterlimit:10.43299961;stroke-dasharray:none;stroke-dashoffset:0;stroke-opacity:1"
       id="content"
       transform="matrix(0.09134143,0,0,-0.09134143,-15.98475,171)"
       xml:space="preserve"
       stroke-miterlimit="10.433"
       font-style="normal"
       font-variant="normal"
       font-weight="normal"
       font-stretch="normal"
       font-size-adjust="none"
       letter-spacing="normal"
       word-spacing="normal"><path
         style="fill:#000000;stroke-width:0"
         inkscape:connector-curvature="0"
         d="m 794.84,443.33 0.03,0.13 0.04,0.15 0.04,0.16 0.04,0.18 0.06,0.2 0.06,0.2 0.06,0.22 0.07,0.22 0.08,0.24 0.09,0.24 0.1,0.24 0.1,0.25 0.11,0.25 0.12,0.25 0.13,0.25 0.14,0.24 0.14,0.24 0.16,0.24 0.17,0.23 0.18,0.23 0.18,0.21 0.2,0.2 0.21,0.19 0.22,0.18 0.23,0.16 0.25,0.14 0.12,0.07 0.13,0.06 0.14,0.05 0.13,0.05 0.14,0.05 0.14,0.04 0.15,0.03 0.15,0.03 0.15,0.02 0.16,0.02 0.15,0.01 h 0.17 c 0.25,0 1.44,0 2.48,-0.64 -1.39,-0.25 -2.39,-1.5 -2.39,-2.68 0,-0.8 0.55,-1.76 1.89,-1.76 1.09,0 2.69,0.9 2.69,2.9 0,2.59 -2.94,3.28 -4.63,3.28 -2.89,0 -4.64,-2.64 -5.23,-3.78 -1.25,3.28 -3.94,3.78 -5.37,3.78 -5.19,0 -8.04,-6.42 -8.04,-7.68 0,-0.5 0.5,-0.5 0.61,-0.5 0.39,0 0.55,0.11 0.64,0.55 1.69,5.28 4.99,6.53 6.67,6.53 0.96,0 2.69,-0.43 2.69,-3.32 0,-1.55 -0.84,-4.9 -2.69,-11.86 -0.79,-3.1 -2.53,-5.19 -4.73,-5.19 -0.3,0 -1.44,0 -2.48,0.65 1.25,0.24 2.34,1.29 2.34,2.69 0,1.35 -1.09,1.74 -1.84,1.74 -1.5,0 -2.75,-1.3 -2.75,-2.89 0,-2.29 2.5,-3.29 4.68,-3.29 3.3,0 5.08,3.49 5.24,3.79 0.59,-1.85 2.39,-3.79 5.37,-3.79 5.14,0 7.99,6.43 7.99,7.68 0,0.5 -0.45,0.5 -0.61,0.5 -0.44,0 -0.55,-0.21 -0.64,-0.55 -1.64,-5.33 -5.03,-6.53 -6.63,-6.53 -1.95,0 -2.75,1.59 -2.75,3.29 0,1.1 0.3,2.19 0.86,4.38 z"
         id="path1252" /><path
         style="fill:#000000;stroke-width:0"
         inkscape:connector-curvature="0"
         d="m 818.31,443 v 0.04 0.04 0.04 0.04 0.04 0.04 0.04 0.03 0.04 0.03 l -0.01,0.03 v 0.03 0.03 l -0.01,0.03 v 0.03 0.02 l -0.01,0.03 v 0.02 l -0.01,0.02 v 0.03 l -0.01,0.04 -0.02,0.04 -0.02,0.03 -0.02,0.03 -0.02,0.03 -0.02,0.03 -0.03,0.02 -0.03,0.02 -0.03,0.01 -0.04,0.02 -0.04,0.01 -0.05,0.01 -0.02,0.01 h -0.02 l -0.03,0.01 h -0.03 -0.02 l -0.03,0.01 h -0.03 -0.03 -0.03 -0.04 l -0.03,0.01 h -0.04 -0.03 -0.04 -0.04 -0.04 -0.04 -0.04 -0.05 -0.04 c -2.24,-2.2 -5.39,-2.23 -6.83,-2.23 v -1.25 c 0.84,0 3.14,0 5.04,0.96 V 423.7 c 0,-1.16 0,-1.61 -3.48,-1.61 h -1.31 v -1.25 c 0.62,0.03 4.9,0.14 6.2,0.14 1.08,0 5.47,-0.11 6.23,-0.14 v 1.25 h -1.32 c -3.49,0 -3.49,0.45 -3.49,1.61 z"
         id="path1254" /><path
         style="fill:#000000;stroke-width:0"
         inkscape:connector-curvature="0"
         d="m 870.22,456.08 0.01,0.03 0.01,0.03 0.02,0.03 0.01,0.02 0.01,0.03 0.01,0.03 0.01,0.02 0.02,0.03 0.02,0.05 0.02,0.04 0.02,0.05 0.01,0.04 0.02,0.03 0.02,0.04 0.01,0.03 0.01,0.04 0.02,0.03 0.01,0.03 0.01,0.02 0.01,0.03 0.01,0.03 0.01,0.02 v 0.02 l 0.01,0.02 v 0.03 l 0.01,0.02 0.01,0.04 v 0.04 l 0.01,0.04 v 0.04 0.03 0.02 c 0,0.54 -0.44,1 -1,1 -0.49,0 -0.8,-0.36 -1.14,-1.1 L 856.72,430.62 845,457.03 c -0.4,0.94 -0.8,1.05 -1.15,1.05 -0.54,0 -1,-0.46 -1,-1 0,-0.1 0,-0.2 0.32,-0.8 l 12.39,-28.05 c 0.41,-0.84 0.7,-1.04 1.16,-1.04 0.63,0 0.79,0.34 1.09,1.04 z"
         id="path1256" /><path
         style="fill:#000000;stroke-width:0"
         inkscape:connector-curvature="0"
         d="m 901.04,443.33 0.03,0.13 0.03,0.15 0.05,0.16 0.04,0.18 0.06,0.2 0.06,0.2 0.06,0.22 0.07,0.22 0.08,0.24 0.09,0.24 0.1,0.24 0.1,0.25 0.11,0.25 0.12,0.25 0.13,0.25 0.14,0.24 0.14,0.24 0.16,0.24 0.17,0.23 0.17,0.23 0.19,0.21 0.2,0.2 0.21,0.19 0.22,0.18 0.23,0.16 0.25,0.14 0.12,0.07 0.13,0.06 0.14,0.05 0.13,0.05 0.14,0.05 0.14,0.04 0.15,0.03 0.15,0.03 0.15,0.02 0.16,0.02 0.15,0.01 h 0.17 c 0.25,0 1.43,0 2.48,-0.64 -1.39,-0.25 -2.39,-1.5 -2.39,-2.68 0,-0.8 0.55,-1.76 1.89,-1.76 1.09,0 2.69,0.9 2.69,2.9 0,2.59 -2.94,3.28 -4.63,3.28 -2.89,0 -4.64,-2.64 -5.23,-3.78 -1.25,3.28 -3.94,3.78 -5.38,3.78 -5.18,0 -8.03,-6.42 -8.03,-7.68 0,-0.5 0.5,-0.5 0.61,-0.5 0.39,0 0.55,0.11 0.64,0.55 1.69,5.28 4.99,6.53 6.67,6.53 0.96,0 2.69,-0.43 2.69,-3.32 0,-1.55 -0.84,-4.9 -2.69,-11.86 -0.79,-3.1 -2.53,-5.19 -4.73,-5.19 -0.3,0 -1.44,0 -2.48,0.65 1.25,0.24 2.34,1.29 2.34,2.69 0,1.35 -1.09,1.74 -1.84,1.74 -1.5,0 -2.75,-1.3 -2.75,-2.89 0,-2.29 2.5,-3.29 4.68,-3.29 3.3,0 5.08,3.49 5.24,3.79 0.59,-1.85 2.39,-3.79 5.37,-3.79 5.14,0 7.99,6.43 7.99,7.68 0,0.5 -0.46,0.5 -0.61,0.5 -0.44,0 -0.55,-0.21 -0.64,-0.55 -1.64,-5.33 -5.03,-6.53 -6.63,-6.53 -1.95,0 -2.75,1.59 -2.75,3.29 0,1.1 0.3,2.19 0.86,4.38 z"
         id="path1258" /><path
         style="fill:#000000;stroke-width:0"
         inkscape:connector-curvature="0"
         d="m 930.43,427.18 h -1.18 c -0.1,-0.76 -0.46,-2.82 -0.91,-3.17 -0.27,-0.2 -2.95,-0.2 -3.44,-0.2 h -6.42 c 3.66,3.23 4.87,4.2 6.97,5.84 2.58,2.06 4.98,4.22 4.98,7.53 0,4.22 -3.68,6.8 -8.15,6.8 -4.31,0 -7.25,-3.03 -7.25,-6.23 0,-1.79 1.5,-1.96 1.86,-1.96 0.83,0 1.84,0.6 1.84,1.85 0,0.62 -0.25,1.84 -2.06,1.84 1.08,2.47 3.45,3.23 5.09,3.23 3.49,0 5.3,-2.7 5.3,-5.53 0,-3.03 -2.16,-5.43 -3.28,-6.68 l -8.39,-8.3 c -0.36,-0.31 -0.36,-0.39 -0.36,-1.36 h 14.36 z"
         id="path1260" /><path
         style="fill:#000000;stroke-width:0"
         inkscape:connector-curvature="0"
         d="m 1077.6,444.22 v 0.08 0.07 0.07 0.07 0.07 0.07 0.06 0.06 l -0.1,0.06 v 0.06 0.06 0.05 0.05 0.05 0.05 0.05 0.09 0.08 0.08 l -0.1,0.07 v 0.06 0.06 l -0.1,0.05 v 0.05 l -0.1,0.04 v 0.04 l -0.1,0.03 v 0.03 l -0.1,0.03 -0.1,0.02 v 0.02 l -0.1,0.02 -0.1,0.01 -0.1,0.01 -0.1,0.01 v 0 h -0.1 v 0.01 h -0.1 -0.1 v 0 h -0.1 -0.1 v 0.01 h -0.1 -0.1 -24.2 c -0.8,0 -1.7,0 -1.7,-1 0,-0.99 0.9,-0.99 1.7,-0.99 h 24 v -9.51 c 0,-0.91 0,-1.8 1,-1.8 1,0 1,0.89 1,1.8 z"
         id="path1262" /><path
         style="fill:#000000;stroke-width:0"
         inkscape:connector-curvature="0"
         d="m 1097,443.33 v 0.13 l 0.1,0.15 v 0.16 l 0.1,0.18 v 0.2 l 0.1,0.2 v 0.22 l 0.1,0.22 0.1,0.24 0.1,0.24 0.1,0.24 0.1,0.25 0.1,0.25 0.1,0.25 0.1,0.25 0.2,0.24 0.1,0.24 0.2,0.24 0.1,0.23 0.2,0.23 0.2,0.21 0.2,0.2 0.2,0.19 0.2,0.18 0.3,0.16 0.2,0.14 0.1,0.07 0.2,0.06 0.1,0.05 0.1,0.05 0.2,0.05 0.1,0.04 0.2,0.03 0.1,0.03 0.2,0.02 0.1,0.02 0.2,0.01 h 0.1 c 0.3,0 1.5,0 2.5,-0.64 -1.4,-0.25 -2.4,-1.5 -2.4,-2.68 0,-0.8 0.6,-1.76 1.9,-1.76 1.1,0 2.7,0.9 2.7,2.9 0,2.59 -2.9,3.28 -4.6,3.28 -2.9,0 -4.7,-2.64 -5.2,-3.78 -1.3,3.28 -4,3.78 -5.4,3.78 -5.2,0 -8.1,-6.42 -8.1,-7.68 0,-0.5 0.5,-0.5 0.6,-0.5 0.4,0 0.6,0.11 0.7,0.55 1.7,5.28 5,6.53 6.7,6.53 0.9,0 2.6,-0.43 2.6,-3.32 0,-1.55 -0.8,-4.9 -2.6,-11.86 -0.8,-3.1 -2.6,-5.19 -4.8,-5.19 -0.3,0 -1.4,0 -2.4,0.65 1.2,0.24 2.3,1.29 2.3,2.69 0,1.35 -1.1,1.74 -1.8,1.74 -1.5,0 -2.8,-1.3 -2.8,-2.89 0,-2.29 2.5,-3.29 4.7,-3.29 3.3,0 5.1,3.49 5.2,3.79 0.6,-1.85 2.4,-3.79 5.4,-3.79 5.1,0 8,6.43 8,7.68 0,0.5 -0.5,0.5 -0.6,0.5 -0.5,0 -0.6,-0.21 -0.7,-0.55 -1.6,-5.33 -5,-6.53 -6.6,-6.53 -2,0 -2.8,1.59 -2.8,3.29 0,1.1 0.4,2.19 0.9,4.38 z"
         id="path1264" /><path
         style="fill:#000000;stroke-width:0"
         inkscape:connector-curvature="0"
         d="m 1120.5,443 v 0.04 0.04 0.04 0.04 0.04 0.04 0.04 0.03 0.04 0.03 0.03 0.03 0.03 0.03 l -0.1,0.03 v 0.02 0.03 0.02 0.02 0.03 0.04 0.04 0.03 0.03 l -0.1,0.03 v 0.03 0.02 0.02 l -0.1,0.01 v 0.02 l -0.1,0.01 v 0.01 0.01 0 l -0.1,0.01 v 0 0 0.01 h -0.1 v 0 0 h -0.1 v 0.01 0 h -0.1 v 0 h -0.1 v 0 0 h -0.1 v 0 h -0.1 c -2.2,-2.2 -5.4,-2.23 -6.8,-2.23 v -1.25 c 0.8,0 3.1,0 5,0.96 V 423.7 c 0,-1.16 0,-1.61 -3.4,-1.61 h -1.4 v -1.25 c 0.7,0.03 5,0.14 6.3,0.14 1,0 5.4,-0.11 6.2,-0.14 v 1.25 h -1.3 c -3.5,0 -3.5,0.45 -3.5,1.61 z"
         id="path1266" /><path
         style="fill:#000000;stroke-width:0"
         inkscape:connector-curvature="0"
         d="m 1172.2,456.08 0.1,0.03 v 0.03 0.03 0.02 0.03 0.03 0.02 l 0.1,0.03 v 0.05 0.04 0.05 0.04 0.03 l 0.1,0.04 v 0.03 0.04 0.03 0.03 0.02 0.03 0.03 l 0.1,0.02 v 0.02 0.02 0.03 0.02 0.04 0.04 0.04 0.04 0.03 0.02 c 0,0.54 -0.4,1 -1,1 -0.5,0 -0.8,-0.36 -1.1,-1.1 l -11.7,-26.36 -11.8,26.41 c -0.4,0.94 -0.8,1.05 -1.1,1.05 -0.6,0 -1,-0.46 -1,-1 0,-0.1 0,-0.2 0.3,-0.8 l 12.4,-28.05 c 0.4,-0.84 0.7,-1.04 1.2,-1.04 0.6,0 0.8,0.34 1,1.04 z"
         id="path1268" /><path
         style="fill:#000000;stroke-width:0"
         inkscape:connector-curvature="0"
         d="m 1203.1,443.33 v 0.13 0.15 l 0.1,0.16 v 0.18 l 0.1,0.2 v 0.2 l 0.1,0.22 0.1,0.22 0.1,0.24 0.1,0.24 v 0.24 l 0.2,0.25 0.1,0.25 0.1,0.25 0.1,0.25 0.2,0.24 0.1,0.24 0.2,0.24 0.1,0.23 0.2,0.23 0.2,0.21 0.2,0.2 0.2,0.19 0.2,0.18 0.2,0.16 0.3,0.14 0.1,0.07 0.1,0.06 0.2,0.05 0.1,0.05 0.2,0.05 0.1,0.04 0.1,0.03 0.2,0.03 0.1,0.02 0.2,0.02 0.2,0.01 h 0.1 c 0.3,0 1.4,0 2.5,-0.64 -1.4,-0.25 -2.4,-1.5 -2.4,-2.68 0,-0.8 0.6,-1.76 1.9,-1.76 1.1,0 2.7,0.9 2.7,2.9 0,2.59 -2.9,3.28 -4.6,3.28 -2.9,0 -4.7,-2.64 -5.3,-3.78 -1.2,3.28 -3.9,3.78 -5.4,3.78 -5.1,0 -8,-6.42 -8,-7.68 0,-0.5 0.5,-0.5 0.6,-0.5 0.4,0 0.6,0.11 0.7,0.55 1.7,5.28 5,6.53 6.6,6.53 1,0 2.7,-0.43 2.7,-3.32 0,-1.55 -0.8,-4.9 -2.7,-11.86 -0.7,-3.1 -2.5,-5.19 -4.7,-5.19 -0.3,0 -1.4,0 -2.5,0.65 1.3,0.24 2.4,1.29 2.4,2.69 0,1.35 -1.1,1.74 -1.9,1.74 -1.5,0 -2.7,-1.3 -2.7,-2.89 0,-2.29 2.5,-3.29 4.7,-3.29 3.3,0 5,3.49 5.2,3.79 0.6,-1.85 2.4,-3.79 5.4,-3.79 5.1,0 8,6.43 8,7.68 0,0.5 -0.5,0.5 -0.6,0.5 -0.5,0 -0.6,-0.21 -0.7,-0.55 -1.6,-5.33 -5,-6.53 -6.6,-6.53 -2,0 -2.8,1.59 -2.8,3.29 0,1.1 0.3,2.19 0.9,4.38 z"
         id="path1270" /><path
         style="fill:#000000;stroke-width:0"
         inkscape:connector-curvature="0"
         d="m 1224.4,432.48 0.2,-0.01 0.3,-0.01 0.2,-0.03 0.3,-0.04 0.2,-0.05 0.2,-0.06 0.3,-0.07 0.2,-0.08 0.2,-0.1 0.2,-0.1 0.2,-0.12 0.2,-0.12 0.1,-0.14 0.2,-0.15 0.2,-0.16 0.1,-0.17 0.2,-0.18 0.1,-0.19 0.2,-0.21 0.1,-0.21 0.1,-0.22 0.1,-0.24 0.1,-0.25 0.1,-0.25 0.1,-0.27 0.1,-0.28 v -0.29 l 0.1,-0.3 v -0.31 -0.32 l 0.1,-0.34 v -0.34 c 0,-4.33 -2.5,-5.61 -4.6,-5.61 -1.4,0 -4.4,0.38 -5.9,2.44 1.6,0.06 2,1.22 2,1.95 0,1.11 -0.8,1.91 -1.9,1.91 -1,0 -1.9,-0.6 -1.9,-2.02 0,-3.28 3.6,-5.4 7.8,-5.4 4.8,0 8.2,3.25 8.2,6.73 0,2.72 -2.2,5.44 -6.1,6.24 3.7,1.32 5,3.93 5,6.06 0,2.75 -3.2,4.81 -7,4.81 -3.9,0 -6.9,-1.89 -6.9,-4.67 0,-1.19 0.8,-1.85 1.9,-1.85 1,0 1.7,0.8 1.7,1.77 0,1.02 -0.7,1.75 -1.7,1.81 1.2,1.55 3.6,1.92 4.9,1.92 1.5,0 3.7,-0.76 3.7,-3.79 0,-1.47 -0.5,-3.06 -1.4,-4.14 -1.1,-1.33 -2.1,-1.41 -3.8,-1.5 -0.9,-0.08 -1,-0.08 -1.1,-0.11 -0.1,0 -0.4,-0.06 -0.4,-0.46 0,-0.48 0.3,-0.48 0.9,-0.48 z"
         id="path1272" /><polyline
         style="fill:#000000;fill-rule:nonzero;stroke-width:0"
         points="758,409 1257,409 1257,411.04 758,411.04 "
         id="polyline1274" /><path
         style="fill:#000000;stroke-width:0"
         inkscape:connector-curvature="0"
         d="m 945.92,386.33 0.03,0.13 0.04,0.15 0.04,0.16 0.05,0.18 0.05,0.2 0.06,0.2 0.06,0.22 0.08,0.22 0.08,0.24 0.08,0.24 0.1,0.24 0.1,0.25 0.11,0.25 0.12,0.25 0.13,0.25 0.14,0.24 0.15,0.24 0.15,0.24 0.17,0.23 0.18,0.23 0.18,0.21 0.2,0.2 0.21,0.19 0.22,0.18 0.24,0.16 0.24,0.14 0.13,0.07 0.13,0.06 0.13,0.05 0.13,0.05 0.14,0.05 0.15,0.04 0.14,0.03 0.15,0.03 0.15,0.02 0.16,0.02 0.16,0.01 h 0.16 c 0.25,0 1.44,0 2.48,-0.64 -1.39,-0.25 -2.39,-1.5 -2.39,-2.68 0,-0.8 0.55,-1.76 1.89,-1.76 1.1,0 2.69,0.9 2.69,2.9 0,2.59 -2.94,3.28 -4.62,3.28 -2.89,0 -4.64,-2.64 -5.24,-3.78 -1.25,3.28 -3.94,3.78 -5.37,3.78 -5.19,0 -8.03,-6.42 -8.03,-7.68 0,-0.5 0.5,-0.5 0.61,-0.5 0.39,0 0.54,0.11 0.64,0.55 1.68,5.28 4.98,6.53 6.67,6.53 0.95,0 2.69,-0.43 2.69,-3.32 0,-1.55 -0.85,-4.9 -2.69,-11.86 -0.8,-3.1 -2.53,-5.19 -4.74,-5.19 -0.29,0 -1.43,0 -2.48,0.65 1.25,0.24 2.34,1.29 2.34,2.69 0,1.35 -1.09,1.74 -1.84,1.74 -1.5,0 -2.75,-1.3 -2.75,-2.89 0,-2.29 2.5,-3.29 4.69,-3.29 3.29,0 5.07,3.49 5.23,3.79 0.59,-1.85 2.39,-3.79 5.38,-3.79 5.14,0 7.98,6.43 7.98,7.68 0,0.5 -0.45,0.5 -0.61,0.5 -0.44,0 -0.55,-0.21 -0.64,-0.55 -1.64,-5.33 -5.03,-6.53 -6.63,-6.53 -1.95,0 -2.74,1.59 -2.74,3.29 0,1.1 0.29,2.19 0.85,4.38 z"
         id="path1276" /><path
         style="fill:#000000;stroke-width:0"
         inkscape:connector-curvature="0"
         d="m 975.31,370.18 h -1.19 c -0.09,-0.76 -0.45,-2.82 -0.9,-3.17 -0.27,-0.2 -2.95,-0.2 -3.44,-0.2 h -6.42 c 3.66,3.23 4.87,4.2 6.97,5.84 2.58,2.06 4.98,4.22 4.98,7.53 0,4.22 -3.69,6.8 -8.15,6.8 -4.32,0 -7.25,-3.03 -7.25,-6.23 0,-1.79 1.5,-1.96 1.86,-1.96 0.82,0 1.84,0.6 1.84,1.85 0,0.62 -0.25,1.84 -2.06,1.84 1.07,2.47 3.45,3.23 5.09,3.23 3.48,0 5.3,-2.7 5.3,-5.53 0,-3.03 -2.16,-5.43 -3.28,-6.68 l -8.39,-8.3 c -0.36,-0.31 -0.36,-0.39 -0.36,-1.36 h 14.36 z"
         id="path1278" /><path
         style="fill:#000000;stroke-width:0"
         inkscape:connector-curvature="0"
         d="m 1021.3,399.08 v 0.03 0.03 0.03 0.02 l 0.1,0.03 v 0.03 0.02 0.03 0.05 0.04 l 0.1,0.05 v 0.04 0.03 0.04 0.03 0.04 0.03 l 0.1,0.03 v 0.02 0.03 0.03 0.02 0.02 0.02 0.03 0.02 0.04 0.04 0.04 0.04 0.03 0.02 c 0,0.54 -0.4,1 -1,1 -0.4,0 -0.8,-0.36 -1.1,-1.1 l -11.7,-26.36 -11.73,26.41 c -0.39,0.94 -0.79,1.05 -1.14,1.05 -0.54,0 -1,-0.46 -1,-1 0,-0.1 0,-0.2 0.32,-0.8 l 12.35,-28.05 c 0.4,-0.84 0.7,-1.04 1.2,-1.04 0.6,0 0.8,0.34 1.1,1.04 z"
         id="path1280" /><path
         style="fill:#000000;stroke-width:0"
         inkscape:connector-curvature="0"
         d="m 1052.1,386.33 v 0.13 l 0.1,0.15 v 0.16 l 0.1,0.18 v 0.2 l 0.1,0.2 v 0.22 l 0.1,0.22 0.1,0.24 0.1,0.24 0.1,0.24 0.1,0.25 0.1,0.25 0.1,0.25 0.1,0.25 0.2,0.24 0.1,0.24 0.2,0.24 0.2,0.23 0.1,0.23 0.2,0.21 0.2,0.2 0.2,0.19 0.2,0.18 0.3,0.16 0.2,0.14 0.1,0.07 0.2,0.06 0.1,0.05 0.1,0.05 0.2,0.05 0.1,0.04 0.2,0.03 0.1,0.03 0.2,0.02 0.1,0.02 0.2,0.01 h 0.2 c 0.2,0 1.4,0 2.4,-0.64 -1.3,-0.25 -2.3,-1.5 -2.3,-2.68 0,-0.8 0.5,-1.76 1.8,-1.76 1.1,0 2.7,0.9 2.7,2.9 0,2.59 -2.9,3.28 -4.6,3.28 -2.9,0 -4.6,-2.64 -5.2,-3.78 -1.3,3.28 -4,3.78 -5.4,3.78 -5.2,0 -8,-6.42 -8,-7.68 0,-0.5 0.5,-0.5 0.6,-0.5 0.4,0 0.5,0.11 0.6,0.55 1.7,5.28 5,6.53 6.7,6.53 0.9,0 2.7,-0.43 2.7,-3.32 0,-1.55 -0.9,-4.9 -2.7,-11.86 -0.8,-3.1 -2.6,-5.19 -4.7,-5.19 -0.4,0 -1.5,0 -2.5,0.65 1.2,0.24 2.3,1.29 2.3,2.69 0,1.35 -1.1,1.74 -1.8,1.74 -1.5,0 -2.8,-1.3 -2.8,-2.89 0,-2.29 2.5,-3.29 4.7,-3.29 3.3,0 5.1,3.49 5.2,3.79 0.6,-1.85 2.4,-3.79 5.4,-3.79 5.1,0 8,6.43 8,7.68 0,0.5 -0.5,0.5 -0.6,0.5 -0.4,0 -0.6,-0.21 -0.7,-0.55 -1.6,-5.33 -5,-6.53 -6.6,-6.53 -1.9,0 -2.7,1.59 -2.7,3.29 0,1.1 0.3,2.19 0.8,4.38 z"
         id="path1282" /><path
         style="fill:#000000;stroke-width:0"
         inkscape:connector-curvature="0"
         d="m 1073.4,375.48 0.3,-0.01 0.2,-0.01 0.3,-0.03 0.2,-0.04 0.3,-0.05 0.2,-0.06 0.2,-0.07 0.2,-0.08 0.2,-0.1 0.2,-0.1 0.2,-0.12 0.2,-0.12 0.2,-0.14 0.2,-0.15 0.1,-0.16 0.2,-0.17 0.1,-0.18 0.2,-0.19 0.1,-0.21 0.1,-0.21 0.2,-0.22 0.1,-0.24 0.1,-0.25 0.1,-0.25 v -0.27 l 0.1,-0.28 0.1,-0.29 v -0.3 l 0.1,-0.31 v -0.32 -0.34 -0.34 c 0,-4.33 -2.5,-5.61 -4.5,-5.61 -1.4,0 -4.5,0.38 -5.9,2.44 1.6,0.06 2,1.22 2,1.95 0,1.11 -0.9,1.91 -1.9,1.91 -1,0 -2,-0.6 -2,-2.02 0,-3.28 3.6,-5.4 7.8,-5.4 4.9,0 8.2,3.25 8.2,6.73 0,2.72 -2.2,5.44 -6,6.24 3.6,1.32 5,3.93 5,6.06 0,2.75 -3.2,4.81 -7.1,4.81 -3.9,0 -6.8,-1.89 -6.8,-4.67 0,-1.19 0.8,-1.85 1.8,-1.85 1.1,0 1.8,0.8 1.8,1.77 0,1.02 -0.7,1.75 -1.8,1.81 1.2,1.55 3.6,1.92 4.9,1.92 1.6,0 3.8,-0.76 3.8,-3.79 0,-1.47 -0.5,-3.06 -1.4,-4.14 -1.2,-1.33 -2.1,-1.41 -3.9,-1.5 -0.9,-0.08 -0.9,-0.08 -1.1,-0.11 -0.1,0 -0.4,-0.06 -0.4,-0.46 0,-0.48 0.3,-0.48 1,-0.48 z"
         id="path1284" /><path
         style="fill:#000000;stroke-width:0"
         inkscape:connector-curvature="0"
         d="m 1379.6,387.22 v 0.08 0.07 0.07 0.07 0.07 0.07 0.06 0.06 0.06 0.06 0.06 0.05 0.05 0.05 0.05 0.05 l -0.1,0.09 v 0.08 0.08 0.07 l -0.1,0.06 v 0.06 0.05 l -0.1,0.05 v 0.04 l -0.1,0.04 v 0.03 l -0.1,0.03 -0.1,0.03 v 0.02 l -0.1,0.02 -0.1,0.02 -0.1,0.01 -0.1,0.01 V 389 h -0.1 v 0 l -0.1,0.01 h -0.1 v 0 h -0.1 -0.1 v 0 l -0.1,0.01 h -0.1 v 0 h -24.3 c -0.8,0 -1.7,0 -1.7,-1 0,-0.99 0.9,-0.99 1.7,-0.99 h 24 v -9.51 c 0,-0.91 0,-1.8 1,-1.8 1,0 1,0.89 1,1.8 z"
         id="path1286" /><path
         style="fill:#000000;stroke-width:0"
         inkscape:connector-curvature="0"
         d="m 1399,386.33 0.1,0.13 v 0.15 0.16 l 0.1,0.18 v 0.2 l 0.1,0.2 0.1,0.22 v 0.22 l 0.1,0.24 0.1,0.24 0.1,0.24 0.1,0.25 0.1,0.25 0.1,0.25 0.2,0.25 0.1,0.24 0.2,0.24 0.1,0.24 0.2,0.23 0.2,0.23 0.1,0.21 0.2,0.2 0.3,0.19 0.2,0.18 0.2,0.16 0.3,0.14 0.1,0.07 0.1,0.06 0.1,0.05 0.2,0.05 0.1,0.05 0.2,0.04 0.1,0.03 0.2,0.03 0.1,0.02 0.2,0.02 0.1,0.01 h 0.2 c 0.2,0 1.4,0 2.5,-0.64 -1.4,-0.25 -2.4,-1.5 -2.4,-2.68 0,-0.8 0.5,-1.76 1.9,-1.76 1.1,0 2.7,0.9 2.7,2.9 0,2.59 -3,3.28 -4.7,3.28 -2.9,0 -4.6,-2.64 -5.2,-3.78 -1.3,3.28 -4,3.78 -5.4,3.78 -5.2,0 -8,-6.42 -8,-7.68 0,-0.5 0.5,-0.5 0.6,-0.5 0.4,0 0.5,0.11 0.6,0.55 1.7,5.28 5,6.53 6.7,6.53 1,0 2.7,-0.43 2.7,-3.32 0,-1.55 -0.8,-4.9 -2.7,-11.86 -0.8,-3.1 -2.5,-5.19 -4.7,-5.19 -0.3,0 -1.5,0 -2.5,0.65 1.2,0.24 2.3,1.29 2.3,2.69 0,1.35 -1.1,1.74 -1.8,1.74 -1.5,0 -2.8,-1.3 -2.8,-2.89 0,-2.29 2.5,-3.29 4.7,-3.29 3.3,0 5.1,3.49 5.3,3.79 0.5,-1.85 2.4,-3.79 5.3,-3.79 5.2,0 8,6.43 8,7.68 0,0.5 -0.4,0.5 -0.6,0.5 -0.4,0 -0.5,-0.21 -0.6,-0.55 -1.7,-5.33 -5.1,-6.53 -6.7,-6.53 -1.9,0 -2.7,1.59 -2.7,3.29 0,1.1 0.3,2.19 0.8,4.38 z"
         id="path1288" /><path
         style="fill:#000000;stroke-width:0"
         inkscape:connector-curvature="0"
         d="m 1428.4,370.18 h -1.2 c 0,-0.76 -0.4,-2.82 -0.9,-3.17 -0.2,-0.2 -2.9,-0.2 -3.4,-0.2 h -6.4 c 3.6,3.23 4.9,4.2 6.9,5.84 2.6,2.06 5,4.22 5,7.53 0,4.22 -3.6,6.8 -8.1,6.8 -4.3,0 -7.3,-3.03 -7.3,-6.23 0,-1.79 1.5,-1.96 1.9,-1.96 0.8,0 1.8,0.6 1.8,1.85 0,0.62 -0.2,1.84 -2,1.84 1.1,2.47 3.4,3.23 5.1,3.23 3.4,0 5.3,-2.7 5.3,-5.53 0,-3.03 -2.2,-5.43 -3.3,-6.68 l -8.4,-8.3 c -0.4,-0.31 -0.4,-0.39 -0.4,-1.36 h 14.4 z"
         id="path1290" /><path
         style="fill:#000000;stroke-width:0"
         inkscape:connector-curvature="0"
         d="m 1474.3,399.08 v 0.03 0.03 0.03 0.02 l 0.1,0.03 v 0.03 0.02 0.03 0.05 0.04 l 0.1,0.05 v 0.04 0.03 0.04 0.03 0.04 0.03 l 0.1,0.03 v 0.02 0.03 0.03 0.02 0.02 0.02 0.03 0.02 0.04 0.04 0.04 0.04 0.03 0.02 c 0,0.54 -0.4,1 -1,1 -0.4,0 -0.8,-0.36 -1.1,-1.1 l -11.7,-26.36 -11.7,26.41 c -0.4,0.94 -0.8,1.05 -1.2,1.05 -0.5,0 -1,-0.46 -1,-1 0,-0.1 0,-0.2 0.3,-0.8 l 12.4,-28.05 c 0.4,-0.84 0.7,-1.04 1.2,-1.04 0.6,0 0.8,0.34 1.1,1.04 z"
         id="path1292" /><path
         style="fill:#000000;stroke-width:0"
         inkscape:connector-curvature="0"
         d="m 1505.1,386.33 v 0.13 l 0.1,0.15 v 0.16 l 0.1,0.18 v 0.2 l 0.1,0.2 v 0.22 l 0.1,0.22 0.1,0.24 0.1,0.24 0.1,0.24 0.1,0.25 0.1,0.25 0.1,0.25 0.1,0.25 0.2,0.24 0.1,0.24 0.2,0.24 0.2,0.23 0.1,0.23 0.2,0.21 0.2,0.2 0.2,0.19 0.2,0.18 0.3,0.16 0.2,0.14 0.1,0.07 0.2,0.06 0.1,0.05 0.1,0.05 0.2,0.05 0.1,0.04 0.2,0.03 0.1,0.03 0.2,0.02 0.1,0.02 0.2,0.01 h 0.2 c 0.2,0 1.4,0 2.4,-0.64 -1.3,-0.25 -2.3,-1.5 -2.3,-2.68 0,-0.8 0.5,-1.76 1.8,-1.76 1.1,0 2.7,0.9 2.7,2.9 0,2.59 -2.9,3.28 -4.6,3.28 -2.9,0 -4.6,-2.64 -5.2,-3.78 -1.3,3.28 -4,3.78 -5.4,3.78 -5.2,0 -8,-6.42 -8,-7.68 0,-0.5 0.5,-0.5 0.6,-0.5 0.4,0 0.5,0.11 0.6,0.55 1.7,5.28 5,6.53 6.7,6.53 0.9,0 2.7,-0.43 2.7,-3.32 0,-1.55 -0.9,-4.9 -2.7,-11.86 -0.8,-3.1 -2.6,-5.19 -4.7,-5.19 -0.4,0 -1.5,0 -2.5,0.65 1.2,0.24 2.3,1.29 2.3,2.69 0,1.35 -1.1,1.74 -1.8,1.74 -1.5,0 -2.8,-1.3 -2.8,-2.89 0,-2.29 2.5,-3.29 4.7,-3.29 3.3,0 5.1,3.49 5.2,3.79 0.6,-1.85 2.4,-3.79 5.4,-3.79 5.1,0 8,6.43 8,7.68 0,0.5 -0.5,0.5 -0.6,0.5 -0.4,0 -0.6,-0.21 -0.7,-0.55 -1.6,-5.33 -5,-6.53 -6.6,-6.53 -1.9,0 -2.7,1.59 -2.7,3.29 0,1.1 0.3,2.19 0.8,4.38 z"
         id="path1294" /><path
         style="fill:#000000;stroke-width:0"
         inkscape:connector-curvature="0"
         d="m 1526.4,375.48 0.3,-0.01 0.2,-0.01 0.3,-0.03 0.2,-0.04 0.3,-0.05 0.2,-0.06 0.2,-0.07 0.2,-0.08 0.2,-0.1 0.2,-0.1 0.2,-0.12 0.2,-0.12 0.2,-0.14 0.2,-0.15 0.1,-0.16 0.2,-0.17 0.1,-0.18 0.2,-0.19 0.1,-0.21 0.1,-0.21 0.2,-0.22 0.1,-0.24 0.1,-0.25 0.1,-0.25 v -0.27 l 0.1,-0.28 0.1,-0.29 v -0.3 l 0.1,-0.31 v -0.32 -0.34 -0.34 c 0,-4.33 -2.5,-5.61 -4.5,-5.61 -1.4,0 -4.5,0.38 -5.9,2.44 1.6,0.06 2,1.22 2,1.95 0,1.11 -0.9,1.91 -1.9,1.91 -1,0 -2,-0.6 -2,-2.02 0,-3.28 3.6,-5.4 7.8,-5.4 4.9,0 8.2,3.25 8.2,6.73 0,2.72 -2.2,5.44 -6,6.24 3.6,1.32 5,3.93 5,6.06 0,2.75 -3.2,4.81 -7.1,4.81 -3.9,0 -6.8,-1.89 -6.8,-4.67 0,-1.19 0.8,-1.85 1.8,-1.85 1.1,0 1.8,0.8 1.8,1.77 0,1.02 -0.7,1.75 -1.8,1.81 1.2,1.55 3.6,1.92 4.9,1.92 1.6,0 3.8,-0.76 3.8,-3.79 0,-1.47 -0.5,-3.06 -1.4,-4.14 -1.2,-1.33 -2.1,-1.41 -3.9,-1.5 -0.9,-0.08 -0.9,-0.08 -1.1,-0.11 -0.1,0 -0.4,-0.06 -0.4,-0.46 0,-0.48 0.3,-0.48 1,-0.48 z"
         id="path1296" /><polyline
         style="fill:#000000;fill-rule:nonzero;stroke-width:0"
         points="909,352 1558.9,352 1558.9,354.04 909,354.04 "
         id="polyline1298" /><path
         style="fill:#000000;stroke-width:0"
         inkscape:connector-curvature="0"
         d="m 1225.5,335.45 0.1,0.13 v 0.14 0.17 l 0.1,0.18 v 0.19 l 0.1,0.21 0.1,0.21 v 0.23 l 0.1,0.23 0.1,0.24 0.1,0.25 0.1,0.24 0.1,0.25 0.1,0.25 0.2,0.25 0.1,0.25 0.1,0.24 0.2,0.24 0.2,0.23 0.1,0.22 0.2,0.22 0.2,0.2 0.2,0.19 0.3,0.17 0.2,0.17 0.2,0.14 0.2,0.06 0.1,0.06 0.1,0.06 0.2,0.05 0.1,0.05 0.1,0.04 0.2,0.03 0.1,0.03 0.2,0.02 0.1,0.02 0.2,0.01 h 0.2 c 0.2,0 1.4,0 2.4,-0.64 -1.3,-0.25 -2.3,-1.5 -2.3,-2.69 0,-0.79 0.5,-1.75 1.8,-1.75 1.1,0 2.7,0.89 2.7,2.89 0,2.6 -2.9,3.28 -4.6,3.28 -2.9,0 -4.6,-2.64 -5.2,-3.78 -1.3,3.28 -4,3.78 -5.4,3.78 -5.2,0 -8,-6.42 -8,-7.67 0,-0.5 0.5,-0.5 0.6,-0.5 0.4,0 0.5,0.11 0.6,0.55 1.7,5.28 5,6.53 6.7,6.53 0.9,0 2.7,-0.44 2.7,-3.33 0,-1.54 -0.9,-4.89 -2.7,-11.86 -0.8,-3.09 -2.6,-5.18 -4.7,-5.18 -0.3,0 -1.5,0 -2.5,0.65 1.2,0.24 2.3,1.28 2.3,2.69 0,1.34 -1.1,1.73 -1.8,1.73 -1.5,0 -2.8,-1.29 -2.8,-2.89 0,-2.28 2.5,-3.28 4.7,-3.28 3.3,0 5.1,3.49 5.2,3.78 0.6,-1.84 2.4,-3.78 5.4,-3.78 5.2,0 8,6.42 8,7.67 0,0.5 -0.5,0.5 -0.6,0.5 -0.4,0 -0.6,-0.2 -0.7,-0.54 -1.6,-5.33 -5,-6.53 -6.6,-6.53 -1.9,0 -2.7,1.59 -2.7,3.29 0,1.1 0.3,2.19 0.8,4.38 z"
         id="path1300" /><path
         style="fill:#000000;stroke-width:0"
         inkscape:connector-curvature="0"
         d="m 1246.8,324.6 h 0.3 l 0.2,-0.02 0.3,-0.03 0.2,-0.04 0.3,-0.05 0.2,-0.06 0.2,-0.07 0.2,-0.08 0.2,-0.1 0.2,-0.1 0.2,-0.12 0.2,-0.12 0.2,-0.14 0.2,-0.15 0.1,-0.16 0.2,-0.17 0.1,-0.18 0.2,-0.19 0.1,-0.2 0.1,-0.22 0.2,-0.22 0.1,-0.24 0.1,-0.25 0.1,-0.25 v -0.27 l 0.1,-0.28 0.1,-0.29 v -0.3 l 0.1,-0.31 v -0.32 -0.33 -0.35 c 0,-4.33 -2.5,-5.61 -4.5,-5.61 -1.4,0 -4.5,0.38 -5.9,2.44 1.6,0.06 2,1.22 2,1.95 0,1.11 -0.9,1.91 -1.9,1.91 -1,0 -2,-0.59 -2,-2.02 0,-3.28 3.6,-5.4 7.8,-5.4 4.9,0 8.2,3.25 8.2,6.73 0,2.72 -2.2,5.44 -6,6.24 3.6,1.32 5,3.93 5,6.06 0,2.75 -3.2,4.81 -7.1,4.81 -3.9,0 -6.8,-1.89 -6.8,-4.67 0,-1.19 0.8,-1.84 1.8,-1.84 1.1,0 1.8,0.79 1.8,1.76 0,1.02 -0.7,1.75 -1.8,1.81 1.2,1.55 3.6,1.93 4.9,1.93 1.6,0 3.8,-0.77 3.8,-3.8 0,-1.47 -0.5,-3.06 -1.4,-4.14 -1.2,-1.33 -2.1,-1.41 -3.9,-1.5 -0.9,-0.08 -0.9,-0.08 -1.1,-0.11 -0.1,0 -0.4,-0.06 -0.4,-0.45 0,-0.49 0.3,-0.49 0.9,-0.49 z"
         id="path1302" /><path
         style="fill:#000000;stroke-width:0"
         inkscape:connector-curvature="0"
         d="m 1681.6,336.34 v 0.07 0.08 0.07 0.07 0.07 0.06 0.07 0.06 0.06 0.06 0.05 0.06 0.05 0.05 0.05 0.05 0.08 0.09 l -0.1,0.07 v 0.07 0.07 l -0.1,0.05 v 0.06 0.05 l -0.1,0.04 v 0.04 l -0.1,0.03 V 338 l -0.1,0.03 -0.1,0.02 -0.1,0.02 -0.1,0.02 v 0.01 l -0.1,0.01 h -0.1 l -0.1,0.01 v 0 h -0.1 v 0.01 h -0.1 -0.1 v 0 h -0.1 -0.1 v 0 h -0.1 -24.2 c -0.9,0 -1.8,0 -1.8,-1 0,-0.98 0.9,-0.98 1.8,-0.98 h 24 v -9.52 c 0,-0.9 0,-1.79 0.9,-1.79 1,0 1,0.89 1,1.79 z"
         id="path1304" /><path
         style="fill:#000000;stroke-width:0"
         inkscape:connector-curvature="0"
         d="m 1701.1,335.45 v 0.13 0.14 l 0.1,0.17 v 0.18 l 0.1,0.19 v 0.21 l 0.1,0.21 0.1,0.23 0.1,0.23 0.1,0.24 v 0.25 l 0.2,0.24 0.1,0.25 0.1,0.25 0.1,0.25 0.2,0.25 0.1,0.24 0.2,0.24 0.1,0.23 0.2,0.22 0.2,0.22 0.2,0.2 0.2,0.19 0.2,0.17 0.2,0.17 0.3,0.14 0.1,0.06 0.1,0.06 0.2,0.06 0.1,0.05 0.2,0.05 0.1,0.04 0.1,0.03 0.2,0.03 0.1,0.02 0.2,0.02 0.2,0.01 h 0.1 c 0.3,0 1.4,0 2.5,-0.64 -1.4,-0.25 -2.4,-1.5 -2.4,-2.69 0,-0.79 0.6,-1.75 1.9,-1.75 1.1,0 2.7,0.89 2.7,2.89 0,2.6 -2.9,3.28 -4.6,3.28 -2.9,0 -4.7,-2.64 -5.3,-3.78 -1.2,3.28 -3.9,3.78 -5.4,3.78 -5.1,0 -8,-6.42 -8,-7.67 0,-0.5 0.5,-0.5 0.6,-0.5 0.4,0 0.6,0.11 0.7,0.55 1.7,5.28 5,6.53 6.6,6.53 1,0 2.7,-0.44 2.7,-3.33 0,-1.54 -0.8,-4.89 -2.7,-11.86 -0.7,-3.09 -2.5,-5.18 -4.7,-5.18 -0.3,0 -1.4,0 -2.5,0.65 1.3,0.24 2.4,1.28 2.4,2.69 0,1.34 -1.1,1.73 -1.9,1.73 -1.5,0 -2.7,-1.29 -2.7,-2.89 0,-2.28 2.5,-3.28 4.7,-3.28 3.3,0 5,3.49 5.2,3.78 0.6,-1.84 2.4,-3.78 5.4,-3.78 5.1,0 8,6.42 8,7.67 0,0.5 -0.5,0.5 -0.6,0.5 -0.5,0 -0.6,-0.2 -0.7,-0.54 -1.6,-5.33 -5,-6.53 -6.6,-6.53 -2,0 -2.8,1.59 -2.8,3.29 0,1.1 0.3,2.19 0.9,4.38 z"
         id="path1306" /><path
         style="fill:#000000;stroke-width:0"
         inkscape:connector-curvature="0"
         d="m 1722.4,324.6 h 0.2 l 0.3,-0.02 0.2,-0.03 0.3,-0.04 0.2,-0.05 0.2,-0.06 0.3,-0.07 0.2,-0.08 0.2,-0.1 0.2,-0.1 0.2,-0.12 0.2,-0.12 0.1,-0.14 0.2,-0.15 0.2,-0.16 0.1,-0.17 0.2,-0.18 0.1,-0.19 0.2,-0.2 0.1,-0.22 0.1,-0.22 0.1,-0.24 0.1,-0.25 0.1,-0.25 0.1,-0.27 0.1,-0.28 v -0.29 l 0.1,-0.3 v -0.31 -0.32 l 0.1,-0.33 v -0.35 c 0,-4.33 -2.5,-5.61 -4.6,-5.61 -1.4,0 -4.4,0.38 -5.9,2.44 1.6,0.06 2,1.22 2,1.95 0,1.11 -0.8,1.91 -1.9,1.91 -1,0 -1.9,-0.59 -1.9,-2.02 0,-3.28 3.6,-5.4 7.8,-5.4 4.8,0 8.2,3.25 8.2,6.73 0,2.72 -2.2,5.44 -6.1,6.24 3.7,1.32 5,3.93 5,6.06 0,2.75 -3.2,4.81 -7,4.81 -3.9,0 -6.9,-1.89 -6.9,-4.67 0,-1.19 0.8,-1.84 1.9,-1.84 1,0 1.7,0.79 1.7,1.76 0,1.02 -0.7,1.75 -1.7,1.81 1.2,1.55 3.6,1.93 4.9,1.93 1.5,0 3.7,-0.77 3.7,-3.8 0,-1.47 -0.5,-3.06 -1.4,-4.14 -1.1,-1.33 -2.1,-1.41 -3.8,-1.5 -0.9,-0.08 -1,-0.08 -1.1,-0.11 -0.1,0 -0.4,-0.06 -0.4,-0.45 0,-0.49 0.3,-0.49 0.9,-0.49 z"
         id="path1308" /><polyline
         style="fill:#000000;fill-rule:nonzero;stroke-width:0"
         points="1189,301 1755.2,301 1755.2,303.04 1189,303.04 "
         id="polyline1310" /><path
         style="fill:#000000;stroke-width:0"
         inkscape:connector-curvature="0"
         d="m 1473.1,287.93 v 0.17 0.16 0.17 0.08 0.08 0.08 0.07 l -0.1,0.08 v 0.07 0.07 0.07 0.07 0.06 l -0.1,0.07 v 0.05 0.06 l -0.1,0.05 v 0.05 0.05 l -0.1,0.04 v 0.04 l -0.1,0.03 v 0.02 0.01 l -0.1,0.02 v 0.01 0.01 l -0.1,0.01 v 0.01 l -0.1,0.01 v 0.01 0 l -0.1,0.01 v 0 h -0.1 v 0 c -1,0 -1,-1.04 -1,-1.79 v -29.49 h -13.9 c -0.7,0 -1.8,0 -1.8,-1 0,-1 1.1,-1 1.8,-1 h 29.8 c 0.8,0 1.7,0 1.7,1 0,1 -0.9,1 -1.7,1 h -13.9 z"
         id="path1312" /></g>  </g>
  <g
     id="g1467"
     transform="translate(-25.75463,-130.4846)">
    <g
       word-spacing="normal"
       letter-spacing="normal"
       font-size-adjust="none"
       font-stretch="normal"
       font-weight="normal"
       font-variant="normal"
       font-style="normal"
       stroke-miterlimit="10.433"
       xml:space="preserve"
       transform="matrix(0.09134143,0,0,-0.09134143,-15.98475,171)"
       id="g1465"
       style="font-style:normal;font-variant:normal;font-weight:normal;font-stretch:normal;letter-spacing:normal;word-spacing:normal;text-anchor:start;fill:none;fill-opacity:1;fill-rule:evenodd;stroke:#000000;stroke-linecap:butt;stroke-linejoin:miter;stroke-miterlimit:10.43299961;stroke-dasharray:none;stroke-dashoffset:0;stroke-opacity:1"><path
         id="path1401"
         d="m 479.54,439.48 v 0.02 0.02 l 0.01,0.04 0.02,0.04 0.01,0.05 0.01,0.04 0.01,0.05 0.01,0.05 0.01,0.05 0.01,0.05 0.01,0.05 0.01,0.05 0.01,0.05 0.01,0.05 v 0.04 0.05 l 0.01,0.03 v 0.02 c 0,0.5 -0.35,0.55 -0.6,0.55 -0.5,0 -0.54,-0.11 -0.75,-1 l -8.26,-32.94 c -3.78,0.45 -5.68,2.3 -5.68,5.59 0,0.99 0,2.28 2.69,9.27 0.21,0.59 0.55,1.44 0.55,2.44 0,2.23 -1.59,4.07 -4.09,4.07 -4.74,0 -6.58,-7.21 -6.58,-7.67 0,-0.5 0.5,-0.5 0.61,-0.5 0.5,0 0.54,0.11 0.79,0.91 1.35,4.73 3.33,6.17 5.03,6.17 0.4,0 1.25,0 1.25,-1.59 0,-1.3 -0.5,-2.53 -1.15,-4.28 -2.39,-6.29 -2.39,-7.58 -2.39,-8.43 0,-4.73 3.89,-6.78 8.67,-7.07 -0.41,-1.79 -0.41,-1.89 -1.09,-4.54 -0.16,-0.54 -1.16,-4.57 -1.16,-4.73 0,-0.05 0,-0.5 0.61,-0.5 0.09,0 0.34,0 0.44,0.2 0.15,0.1 0.45,1.35 0.61,2.05 l 1.89,7.42 c 1.84,0 6.22,0 10.9,5.33 2.05,2.3 3.1,4.48 3.64,5.98 0.46,1.24 1.55,5.58 1.55,7.77 0,2.8 -1.34,3.48 -2.2,3.48 -1.24,0 -2.49,-1.29 -2.49,-2.39 0,-0.64 0.3,-0.93 0.75,-1.34 0.55,-0.55 1.8,-1.84 1.8,-4.23 0,-3.19 -2.59,-7.27 -4.34,-9.07 -4.38,-4.43 -7.57,-4.43 -9.36,-4.43 z"
         inkscape:connector-curvature="0"
         style="fill:#000000;stroke-width:0" /><path
         id="path1403"
         d="m 537.87,422.5 h 0.14 0.14 0.15 l 0.07,0.01 h 0.07 l 0.08,0.01 0.07,0.01 0.07,0.01 0.07,0.01 0.07,0.01 0.06,0.02 0.07,0.02 0.06,0.02 0.06,0.02 0.06,0.03 0.06,0.03 0.05,0.04 0.05,0.03 0.05,0.05 0.04,0.04 0.04,0.05 0.02,0.03 0.01,0.03 0.02,0.02 0.02,0.03 0.01,0.03 0.01,0.04 0.02,0.03 0.01,0.04 0.01,0.03 v 0.04 l 0.01,0.04 0.01,0.04 v 0.04 l 0.01,0.04 v 0.04 0.05 c 0,1 -0.96,1 -1.64,1 h -29.85 c -0.7,0 -1.64,0 -1.64,-1 0,-0.98 0.94,-0.98 1.69,-0.98 z"
         inkscape:connector-curvature="0"
         style="fill:#000000;stroke-width:0" /><path
         id="path1405"
         d="m 537.92,412.82 h 0.06 0.07 l 0.14,0.01 h 0.13 0.07 l 0.07,0.01 0.07,0.01 h 0.07 l 0.07,0.01 0.07,0.02 0.07,0.01 0.06,0.02 0.06,0.02 0.07,0.02 0.06,0.02 0.05,0.03 0.06,0.03 0.05,0.04 0.05,0.04 0.05,0.04 0.04,0.05 0.02,0.02 0.02,0.03 0.02,0.02 0.01,0.03 0.02,0.03 0.02,0.03 0.01,0.03 0.01,0.03 0.02,0.04 0.01,0.03 0.01,0.04 v 0.04 l 0.01,0.04 0.01,0.04 v 0.04 l 0.01,0.04 v 0.05 0.04 c 0,1 -0.96,1 -1.69,1 h -29.75 c -0.75,0 -1.69,0 -1.69,-1 0,-1 0.94,-1 1.64,-1 z"
         inkscape:connector-curvature="0"
         style="fill:#000000;stroke-width:0" /><path
         id="path1407"
         d="m 572.68,394.25 v 0.02 0.03 0.01 l -0.01,0.02 v 0.01 0.02 l -0.01,0.01 -0.01,0.02 v 0.02 l -0.01,0.02 -0.02,0.02 -0.01,0.03 -0.02,0.02 -0.02,0.03 -0.02,0.03 -0.02,0.03 -0.03,0.03 -0.03,0.04 -0.01,0.02 -0.02,0.02 -0.02,0.02 -0.01,0.02 -0.02,0.02 -0.02,0.03 -0.02,0.02 -0.03,0.02 -0.02,0.03 -0.02,0.02 -0.03,0.03 -0.02,0.03 -0.03,0.03 -0.03,0.03 -0.03,0.03 -0.03,0.03 -0.03,0.03 -0.03,0.03 -0.03,0.04 -0.04,0.03 -0.03,0.04 -0.04,0.03 -0.04,0.04 -0.03,0.04 c -6.22,6.28 -7.82,15.69 -7.82,23.31 0,8.67 1.89,17.35 8.02,23.56 0.64,0.61 0.64,0.71 0.64,0.86 0,0.35 -0.19,0.49 -0.48,0.49 -0.5,0 -4.99,-3.38 -7.93,-9.7 -2.54,-5.49 -3.14,-11.02 -3.14,-15.21 0,-3.89 0.55,-9.9 3.28,-15.54 2.99,-6.13 7.29,-9.36 7.79,-9.36 0.29,0 0.48,0.14 0.48,0.5 z"
         inkscape:connector-curvature="0"
         style="fill:#000000;stroke-width:0" /><path
         id="path1409"
         d="m 592.15,421.25 0.03,0.13 0.04,0.15 0.04,0.16 0.05,0.18 0.05,0.19 0.06,0.21 0.06,0.22 0.08,0.22 0.08,0.23 0.08,0.24 0.1,0.25 0.1,0.24 0.11,0.25 0.12,0.25 0.13,0.25 0.14,0.25 0.15,0.24 0.15,0.24 0.17,0.23 0.18,0.22 0.19,0.22 0.19,0.2 0.21,0.19 0.22,0.18 0.24,0.16 0.24,0.14 0.13,0.07 0.13,0.06 0.13,0.05 0.14,0.05 0.13,0.05 0.15,0.04 0.14,0.03 0.15,0.03 0.15,0.02 0.16,0.02 0.16,0.01 h 0.16 c 0.25,0 1.44,0 2.48,-0.64 -1.39,-0.25 -2.39,-1.5 -2.39,-2.69 0,-0.79 0.55,-1.75 1.89,-1.75 1.1,0 2.69,0.89 2.69,2.89 0,2.6 -2.94,3.28 -4.62,3.28 -2.89,0 -4.64,-2.64 -5.24,-3.78 -1.25,3.28 -3.93,3.78 -5.37,3.78 -5.19,0 -8.03,-6.42 -8.03,-7.67 0,-0.5 0.5,-0.5 0.6,-0.5 0.4,0 0.55,0.11 0.65,0.55 1.68,5.28 4.98,6.53 6.67,6.53 0.95,0 2.68,-0.44 2.68,-3.33 0,-1.54 -0.84,-4.89 -2.68,-11.86 -0.8,-3.09 -2.53,-5.18 -4.74,-5.18 -0.29,0 -1.43,0 -2.48,0.65 1.25,0.24 2.34,1.28 2.34,2.69 0,1.34 -1.09,1.73 -1.84,1.73 -1.5,0 -2.75,-1.29 -2.75,-2.89 0,-2.28 2.5,-3.28 4.69,-3.28 3.29,0 5.08,3.49 5.23,3.78 0.6,-1.84 2.39,-3.78 5.38,-3.78 5.14,0 7.98,6.42 7.98,7.67 0,0.5 -0.45,0.5 -0.61,0.5 -0.44,0 -0.55,-0.2 -0.64,-0.54 -1.64,-5.33 -5.03,-6.53 -6.63,-6.53 -1.95,0 -2.75,1.59 -2.75,3.29 0,1.1 0.3,2.19 0.87,4.38 z"
         inkscape:connector-curvature="0"
         style="fill:#000000;stroke-width:0" /><path
         id="path1411"
         d="m 615.63,420.92 v 0.04 0.04 0.05 0.04 0.03 0.04 0.04 0.03 0.04 0.03 l -0.01,0.03 v 0.03 0.03 l -0.01,0.03 v 0.03 0.02 l -0.01,0.03 v 0.02 l -0.01,0.03 v 0.02 l -0.01,0.04 -0.02,0.04 -0.02,0.03 -0.02,0.03 -0.02,0.03 -0.02,0.03 -0.03,0.02 -0.03,0.02 -0.03,0.02 -0.04,0.01 -0.04,0.01 -0.05,0.02 h -0.02 -0.02 l -0.03,0.01 h -0.03 l -0.02,0.01 h -0.03 -0.03 -0.03 -0.03 l -0.04,0.01 h -0.03 -0.04 -0.03 -0.04 -0.04 -0.04 -0.04 -0.04 -0.05 -0.04 c -2.24,-2.2 -5.39,-2.23 -6.83,-2.23 v -1.25 c 0.84,0 3.14,0 5.04,0.97 v -17.77 c 0,-1.16 0,-1.61 -3.48,-1.61 h -1.31 v -1.25 c 0.62,0.03 4.9,0.14 6.2,0.14 1.08,0 5.47,-0.11 6.24,-0.14 v 1.25 h -1.33 c -3.49,0 -3.49,0.45 -3.49,1.61 z"
         inkscape:connector-curvature="0"
         style="fill:#000000;stroke-width:0" /><path
         id="path1413"
         d="m 667.53,434 0.02,0.03 0.01,0.03 0.02,0.02 0.01,0.03 0.01,0.03 0.01,0.03 0.01,0.02 0.02,0.03 0.02,0.05 0.02,0.04 0.02,0.04 0.01,0.04 0.02,0.04 0.02,0.04 0.01,0.03 0.01,0.03 0.02,0.04 0.01,0.02 0.01,0.03 0.01,0.03 0.01,0.02 0.01,0.03 v 0.02 l 0.01,0.02 v 0.02 l 0.01,0.03 0.01,0.04 v 0.04 l 0.01,0.04 v 0.04 0.02 0.03 c 0,0.54 -0.44,1 -1,1 -0.48,0 -0.8,-0.36 -1.14,-1.1 l -11.71,-26.36 -11.71,26.41 c -0.39,0.94 -0.8,1.05 -1.14,1.05 -0.55,0 -1,-0.46 -1,-1 0,-0.1 0,-0.21 0.31,-0.8 l 12.39,-28.05 c 0.4,-0.84 0.7,-1.04 1.15,-1.04 0.65,0 0.8,0.34 1.1,1.04 z"
         inkscape:connector-curvature="0"
         style="fill:#000000;stroke-width:0" /><path
         id="path1415"
         d="m 698.36,421.25 0.03,0.13 0.03,0.15 0.05,0.16 0.04,0.18 0.06,0.19 0.06,0.21 0.06,0.22 0.07,0.22 0.08,0.23 0.09,0.24 0.1,0.25 0.1,0.24 0.11,0.25 0.12,0.25 0.13,0.25 0.14,0.25 0.14,0.24 0.16,0.24 0.17,0.23 0.17,0.22 0.19,0.22 0.2,0.2 0.21,0.19 0.22,0.18 0.23,0.16 0.25,0.14 0.12,0.07 0.13,0.06 0.14,0.05 0.13,0.05 0.14,0.05 0.14,0.04 0.15,0.03 0.15,0.03 0.15,0.02 0.16,0.02 0.15,0.01 h 0.17 c 0.25,0 1.43,0 2.48,-0.64 -1.39,-0.25 -2.39,-1.5 -2.39,-2.69 0,-0.79 0.55,-1.75 1.89,-1.75 1.1,0 2.69,0.89 2.69,2.89 0,2.6 -2.94,3.28 -4.63,3.28 -2.89,0 -4.64,-2.64 -5.23,-3.78 -1.25,3.28 -3.94,3.78 -5.38,3.78 -5.18,0 -8.03,-6.42 -8.03,-7.67 0,-0.5 0.5,-0.5 0.61,-0.5 0.39,0 0.55,0.11 0.64,0.55 1.69,5.28 4.99,6.53 6.67,6.53 0.96,0 2.69,-0.44 2.69,-3.33 0,-1.54 -0.84,-4.89 -2.69,-11.86 -0.79,-3.09 -2.53,-5.18 -4.73,-5.18 -0.3,0 -1.44,0 -2.48,0.65 1.25,0.24 2.34,1.28 2.34,2.69 0,1.34 -1.09,1.73 -1.84,1.73 -1.5,0 -2.75,-1.29 -2.75,-2.89 0,-2.28 2.5,-3.28 4.68,-3.28 3.3,0 5.08,3.49 5.24,3.78 0.59,-1.84 2.39,-3.78 5.37,-3.78 5.14,0 7.99,6.42 7.99,7.67 0,0.5 -0.46,0.5 -0.61,0.5 -0.44,0 -0.55,-0.2 -0.64,-0.54 -1.64,-5.33 -5.03,-6.53 -6.63,-6.53 -1.95,0 -2.75,1.59 -2.75,3.29 0,1.1 0.3,2.19 0.86,4.38 z"
         inkscape:connector-curvature="0"
         style="fill:#000000;stroke-width:0" /><path
         id="path1417"
         d="m 727.75,405.11 h -1.18 c -0.1,-0.77 -0.46,-2.83 -0.91,-3.18 -0.26,-0.2 -2.95,-0.2 -3.44,-0.2 h -6.42 c 3.66,3.23 4.88,4.2 6.97,5.84 2.58,2.07 4.98,4.22 4.98,7.54 0,4.21 -3.68,6.79 -8.15,6.79 -4.32,0 -7.25,-3.03 -7.25,-6.23 0,-1.78 1.5,-1.96 1.86,-1.96 0.82,0 1.84,0.6 1.84,1.85 0,0.62 -0.25,1.84 -2.06,1.84 1.08,2.47 3.45,3.24 5.09,3.24 3.49,0 5.3,-2.71 5.3,-5.53 0,-3.04 -2.16,-5.44 -3.28,-6.69 l -8.39,-8.3 c -0.36,-0.31 -0.36,-0.39 -0.36,-1.36 h 14.36 z"
         inkscape:connector-curvature="0"
         style="fill:#000000;stroke-width:0" /><path
         id="path1419"
         d="m 746.99,418.65 v 0.37 0.39 l -0.01,0.39 -0.02,0.41 -0.04,0.84 -0.06,0.88 -0.08,0.92 -0.11,0.95 -0.13,0.97 -0.16,1.01 -0.2,1.02 -0.23,1.03 -0.27,1.05 -0.3,1.06 -0.35,1.07 -0.39,1.07 -0.22,0.53 -0.22,0.53 -0.24,0.53 -0.25,0.53 c -2.98,6.12 -7.26,9.36 -7.76,9.36 -0.3,0 -0.5,-0.19 -0.5,-0.49 0,-0.15 0,-0.25 0.93,-1.15 4.89,-4.92 7.74,-12.85 7.74,-23.27 0,-8.51 -1.85,-17.28 -8.03,-23.56 -0.64,-0.59 -0.64,-0.7 -0.64,-0.84 0,-0.3 0.2,-0.5 0.5,-0.5 0.5,0 4.96,3.39 7.92,9.71 2.53,5.47 3.12,11 3.12,15.19 z"
         inkscape:connector-curvature="0"
         style="fill:#000000;stroke-width:0" /><path
         id="path1421"
         d="m 780.69,434.95 -0.04,0.08 -0.03,0.07 -0.04,0.07 -0.03,0.07 -0.04,0.06 -0.03,0.06 -0.04,0.06 -0.03,0.05 -0.03,0.05 -0.04,0.05 -0.03,0.04 -0.04,0.04 -0.03,0.04 -0.03,0.04 -0.04,0.03 -0.03,0.03 -0.04,0.03 -0.03,0.02 -0.03,0.03 -0.04,0.02 -0.03,0.02 -0.04,0.01 -0.04,0.02 -0.03,0.01 -0.04,0.01 -0.03,0.01 -0.04,0.01 -0.04,0.01 h -0.04 -0.04 l -0.04,0.01 h -0.04 c -0.65,0 -0.8,-0.36 -1.09,-1.05 l -12.41,-27.86 c -0.3,-0.64 -0.36,-0.73 -0.36,-0.98 0,-0.55 0.46,-1 1,-1 0.34,0 0.75,0.09 1.14,1.04 l 11.72,26.41 11.7,-26.41 c 0.46,-1.04 0.96,-1.04 1.15,-1.04 0.56,0 1,0.45 1,1 0,0.09 0,0.18 -0.3,0.79 z"
         inkscape:connector-curvature="0"
         style="fill:#000000;stroke-width:0" /><path
         id="path1423"
         d="m 823.72,394.25 v 0.02 0.03 0.01 l -0.01,0.02 v 0.01 0.02 l -0.01,0.01 -0.01,0.02 -0.01,0.02 -0.01,0.02 -0.01,0.02 -0.01,0.03 -0.02,0.02 -0.02,0.03 -0.02,0.03 -0.02,0.03 -0.03,0.03 -0.03,0.04 -0.01,0.02 -0.02,0.02 -0.02,0.02 -0.02,0.02 -0.01,0.02 -0.02,0.03 -0.03,0.02 -0.02,0.02 -0.02,0.03 -0.02,0.02 -0.03,0.03 -0.02,0.03 -0.03,0.03 -0.03,0.03 -0.03,0.03 -0.03,0.03 -0.03,0.03 -0.03,0.03 -0.03,0.04 -0.04,0.03 -0.03,0.04 -0.04,0.03 -0.04,0.04 -0.03,0.04 c -6.22,6.28 -7.82,15.69 -7.82,23.31 0,8.67 1.89,17.35 8.02,23.56 0.64,0.61 0.64,0.71 0.64,0.86 0,0.35 -0.19,0.49 -0.49,0.49 -0.5,0 -4.98,-3.38 -7.92,-9.7 -2.54,-5.49 -3.14,-11.02 -3.14,-15.21 0,-3.89 0.55,-9.9 3.28,-15.54 2.99,-6.13 7.28,-9.36 7.78,-9.36 0.3,0 0.49,0.14 0.49,0.5 z"
         inkscape:connector-curvature="0"
         style="fill:#000000;stroke-width:0" /><path
         id="path1425"
         d="m 856.99,422.14 v 0.07 0.08 0.07 0.07 l -0.01,0.07 v 0.06 0.07 0.06 0.06 l -0.01,0.06 v 0.05 l -0.01,0.06 v 0.05 l -0.01,0.05 v 0.05 l -0.01,0.05 -0.01,0.09 -0.02,0.08 -0.03,0.07 -0.02,0.07 -0.03,0.07 -0.03,0.06 -0.04,0.05 -0.04,0.05 -0.05,0.04 -0.05,0.04 -0.06,0.03 -0.06,0.03 -0.06,0.03 -0.08,0.02 -0.08,0.02 -0.08,0.02 -0.09,0.01 -0.1,0.01 h -0.06 l -0.05,0.01 h -0.06 -0.05 l -0.06,0.01 h -0.06 -0.07 -0.06 -0.07 -0.07 -0.07 -0.08 -24.22 c -0.84,0 -1.75,0 -1.75,-1 0,-0.98 0.91,-0.98 1.75,-0.98 H 855 v -9.52 c 0,-0.9 0,-1.79 0.99,-1.79 1,0 1,0.89 1,1.79 z"
         inkscape:connector-curvature="0"
         style="fill:#000000;stroke-width:0" /><path
         id="path1427"
         d="m 876.43,421.25 0.03,0.13 0.04,0.15 0.04,0.16 0.04,0.18 0.06,0.19 0.06,0.21 0.06,0.22 0.07,0.22 0.08,0.23 0.09,0.24 0.1,0.25 0.1,0.24 0.11,0.25 0.12,0.25 0.13,0.25 0.14,0.25 0.14,0.24 0.16,0.24 0.17,0.23 0.18,0.22 0.18,0.22 0.2,0.2 0.21,0.19 0.22,0.18 0.23,0.16 0.25,0.14 0.12,0.07 0.13,0.06 0.14,0.05 0.13,0.05 0.14,0.05 0.14,0.04 0.15,0.03 0.15,0.03 0.15,0.02 0.16,0.02 0.15,0.01 h 0.17 c 0.25,0 1.43,0 2.48,-0.64 -1.39,-0.25 -2.39,-1.5 -2.39,-2.69 0,-0.79 0.55,-1.75 1.89,-1.75 1.1,0 2.69,0.89 2.69,2.89 0,2.6 -2.94,3.28 -4.63,3.28 -2.89,0 -4.64,-2.64 -5.23,-3.78 -1.25,3.28 -3.94,3.78 -5.38,3.78 -5.18,0 -8.03,-6.42 -8.03,-7.67 0,-0.5 0.5,-0.5 0.61,-0.5 0.39,0 0.55,0.11 0.64,0.55 1.69,5.28 4.99,6.53 6.68,6.53 0.95,0 2.68,-0.44 2.68,-3.33 0,-1.54 -0.84,-4.89 -2.68,-11.86 -0.8,-3.09 -2.54,-5.18 -4.74,-5.18 -0.3,0 -1.44,0 -2.48,0.65 1.25,0.24 2.34,1.28 2.34,2.69 0,1.34 -1.09,1.73 -1.84,1.73 -1.5,0 -2.75,-1.29 -2.75,-2.89 0,-2.28 2.5,-3.28 4.68,-3.28 3.3,0 5.08,3.49 5.24,3.78 0.59,-1.84 2.39,-3.78 5.37,-3.78 5.14,0 7.99,6.42 7.99,7.67 0,0.5 -0.46,0.5 -0.61,0.5 -0.44,0 -0.55,-0.2 -0.64,-0.54 -1.64,-5.33 -5.03,-6.53 -6.63,-6.53 -1.95,0 -2.75,1.59 -2.75,3.29 0,1.1 0.3,2.19 0.86,4.38 z"
         inkscape:connector-curvature="0"
         style="fill:#000000;stroke-width:0" /><path
         id="path1429"
         d="m 899.91,420.92 v 0.04 0.04 0.05 0.04 0.03 0.04 0.04 0.03 l -0.01,0.04 v 0.03 0.03 0.03 0.03 l -0.01,0.03 v 0.03 l -0.01,0.02 v 0.03 0.02 l -0.01,0.03 v 0.02 l -0.02,0.04 -0.01,0.04 -0.02,0.03 -0.02,0.03 -0.02,0.03 -0.02,0.03 -0.03,0.02 -0.03,0.02 -0.04,0.02 -0.03,0.01 -0.04,0.01 -0.05,0.02 h -0.02 -0.03 l -0.02,0.01 h -0.03 l -0.03,0.01 h -0.02 -0.03 -0.03 -0.04 l -0.03,0.01 h -0.03 -0.04 -0.04 -0.03 -0.04 -0.04 -0.04 -0.05 -0.04 -0.05 c -2.23,-2.2 -5.39,-2.23 -6.83,-2.23 v -1.25 c 0.85,0 3.15,0 5.05,0.97 v -17.77 c 0,-1.16 0,-1.61 -3.48,-1.61 h -1.32 v -1.25 c 0.63,0.03 4.91,0.14 6.21,0.14 1.08,0 5.47,-0.11 6.23,-0.14 v 1.25 h -1.32 c -3.49,0 -3.49,0.45 -3.49,1.61 z"
         inkscape:connector-curvature="0"
         style="fill:#000000;stroke-width:0" /><path
         id="path1431"
         d="m 951.81,434 0.02,0.03 0.01,0.03 0.01,0.02 0.02,0.03 0.01,0.03 0.01,0.03 0.01,0.02 0.01,0.03 0.02,0.05 0.02,0.04 0.02,0.04 0.02,0.04 0.02,0.04 0.01,0.04 0.02,0.03 0.01,0.03 0.01,0.04 0.02,0.02 0.01,0.03 0.01,0.03 v 0.02 l 0.01,0.03 0.01,0.02 0.01,0.02 v 0.02 l 0.01,0.03 v 0.04 l 0.01,0.04 v 0.04 l 0.01,0.04 v 0.02 0.03 c 0,0.54 -0.44,1 -1,1 -0.49,0 -0.8,-0.36 -1.14,-1.1 l -11.71,-26.36 -11.72,26.41 c -0.39,0.94 -0.79,1.05 -1.14,1.05 -0.54,0 -1,-0.46 -1,-1 0,-0.1 0,-0.21 0.32,-0.8 l 12.39,-28.05 c 0.4,-0.84 0.7,-1.04 1.15,-1.04 0.64,0 0.8,0.34 1.1,1.04 z"
         inkscape:connector-curvature="0"
         style="fill:#000000;stroke-width:0" /><path
         id="path1433"
         d="m 982.64,421.25 0.03,0.13 0.04,0.15 0.04,0.16 0.04,0.18 0.06,0.19 0.06,0.21 0.06,0.22 0.08,0.22 0.08,0.23 0.08,0.24 0.1,0.25 0.1,0.24 0.11,0.25 0.12,0.25 0.13,0.25 0.14,0.25 0.15,0.24 0.15,0.24 0.17,0.23 0.18,0.22 0.18,0.22 0.2,0.2 0.21,0.19 0.22,0.18 0.23,0.16 0.25,0.14 0.12,0.07 0.13,0.06 0.14,0.05 0.13,0.05 0.14,0.05 0.14,0.04 0.15,0.03 0.15,0.03 0.15,0.02 0.16,0.02 0.16,0.01 h 0.16 c 0.25,0 1.44,0 2.48,-0.64 -1.39,-0.25 -2.39,-1.5 -2.39,-2.69 0,-0.79 0.55,-1.75 1.89,-1.75 1.1,0 2.69,0.89 2.69,2.89 0,2.6 -2.94,3.28 -4.63,3.28 -2.89,0 -4.64,-2.64 -5.23,-3.78 -1.25,3.28 -3.94,3.78 -5.37,3.78 -5.19,0 -8.04,-6.42 -8.04,-7.67 0,-0.5 0.5,-0.5 0.61,-0.5 0.39,0 0.55,0.11 0.64,0.55 1.69,5.28 4.99,6.53 6.68,6.53 0.95,0 2.68,-0.44 2.68,-3.33 0,-1.54 -0.84,-4.89 -2.68,-11.86 -0.8,-3.09 -2.53,-5.18 -4.74,-5.18 -0.29,0 -1.44,0 -2.48,0.65 1.25,0.24 2.34,1.28 2.34,2.69 0,1.34 -1.09,1.73 -1.84,1.73 -1.5,0 -2.75,-1.29 -2.75,-2.89 0,-2.28 2.5,-3.28 4.68,-3.28 3.3,0 5.08,3.49 5.24,3.78 0.59,-1.84 2.39,-3.78 5.37,-3.78 5.15,0 7.99,6.42 7.99,7.67 0,0.5 -0.45,0.5 -0.61,0.5 -0.44,0 -0.55,-0.2 -0.64,-0.54 -1.64,-5.33 -5.03,-6.53 -6.63,-6.53 -1.95,0 -2.75,1.59 -2.75,3.29 0,1.1 0.3,2.19 0.86,4.38 z"
         inkscape:connector-curvature="0"
         style="fill:#000000;stroke-width:0" /><path
         id="path1435"
         d="m 1004,410.4 h 0.2 l 0.3,-0.02 0.2,-0.03 0.2,-0.04 0.3,-0.05 0.2,-0.06 0.2,-0.07 0.2,-0.08 0.2,-0.1 0.2,-0.1 0.2,-0.12 0.2,-0.12 0.2,-0.14 0.2,-0.15 0.2,-0.16 0.1,-0.17 0.2,-0.18 0.1,-0.19 0.1,-0.2 0.2,-0.22 0.1,-0.22 0.1,-0.24 0.1,-0.24 0.1,-0.26 0.1,-0.27 v -0.28 l 0.1,-0.29 v -0.3 l 0.1,-0.31 v -0.32 -0.33 -0.35 c 0,-4.33 -2.5,-5.61 -4.5,-5.61 -1.4,0 -4.47,0.38 -5.92,2.44 1.62,0.06 2.02,1.22 2.02,1.95 0,1.11 -0.85,1.91 -1.93,1.91 -0.97,0 -1.95,-0.59 -1.95,-2.02 0,-3.28 3.62,-5.4 7.88,-5.4 4.8,0 8.1,3.25 8.1,6.73 0,2.72 -2.2,5.44 -6,6.24 3.6,1.33 5,3.93 5,6.06 0,2.75 -3.2,4.81 -7.1,4.81 -3.8,0 -6.79,-1.89 -6.79,-4.67 0,-1.19 0.77,-1.84 1.81,-1.84 1.08,0 1.78,0.79 1.78,1.76 0,1.02 -0.7,1.75 -1.78,1.81 1.18,1.55 3.58,1.93 4.88,1.93 1.6,0 3.8,-0.77 3.8,-3.8 0,-1.47 -0.5,-3.06 -1.4,-4.14 -1.2,-1.33 -2.1,-1.41 -3.9,-1.5 -0.8,-0.08 -0.9,-0.08 -1.1,-0.11 -0.1,0 -0.3,-0.06 -0.3,-0.45 0,-0.49 0.3,-0.49 0.9,-0.49 z"
         inkscape:connector-curvature="0"
         style="fill:#000000;stroke-width:0" /><path
         id="path1437"
         d="m 1031.3,418.65 v 0.37 0.39 0.39 l -0.1,0.41 v 0.84 l -0.1,0.88 v 0.92 l -0.1,0.95 -0.2,0.97 -0.1,1.01 -0.2,1.02 -0.3,1.03 -0.2,1.05 -0.3,1.06 -0.4,1.07 -0.4,1.07 -0.2,0.53 -0.2,0.53 -0.3,0.53 -0.2,0.53 c -3,6.12 -7.3,9.36 -7.8,9.36 -0.3,0 -0.5,-0.19 -0.5,-0.49 0,-0.15 0,-0.25 1,-1.15 4.9,-4.92 7.7,-12.85 7.7,-23.27 0,-8.51 -1.8,-17.28 -8,-23.56 -0.7,-0.59 -0.7,-0.7 -0.7,-0.84 0,-0.3 0.2,-0.5 0.5,-0.5 0.5,0 5,3.39 7.9,9.71 2.6,5.47 3.2,11 3.2,15.19 z"
         inkscape:connector-curvature="0"
         style="fill:#000000;stroke-width:0" /><path
         id="path1439"
         d="m 1065,434.95 -0.1,0.08 v 0.07 0.07 l -0.1,0.07 v 0.06 0.06 l -0.1,0.06 v 0.05 0.05 l -0.1,0.05 v 0.04 0.04 l -0.1,0.04 v 0.04 0.03 l -0.1,0.03 v 0.03 0.02 l -0.1,0.03 v 0.02 l -0.1,0.02 v 0.01 0.02 l -0.1,0.01 v 0.01 0.01 l -0.1,0.01 v 0.01 0 h -0.1 V 436 h -0.1 c -0.6,0 -0.8,-0.36 -1.1,-1.05 l -12.4,-27.86 c -0.3,-0.64 -0.3,-0.73 -0.3,-0.98 0,-0.55 0.4,-1 1,-1 0.3,0 0.7,0.09 1.1,1.04 l 11.7,26.41 11.7,-26.41 c 0.5,-1.04 1,-1.04 1.2,-1.04 0.5,0 1,0.45 1,1 0,0.09 0,0.18 -0.3,0.79 z"
         inkscape:connector-curvature="0"
         style="fill:#000000;stroke-width:0" /><path
         id="path1441"
         d="m 1108,394.25 v 0.02 0.03 0.01 0.02 0.01 0.02 0.01 0.02 0.02 0.02 l -0.1,0.02 v 0.03 0.02 0.03 0.03 0.03 l -0.1,0.03 v 0.04 0.02 0.02 l -0.1,0.02 v 0.02 0.02 0.03 0.02 l -0.1,0.02 v 0.03 0.02 0.03 l -0.1,0.03 v 0.03 0.03 0.03 l -0.1,0.03 v 0.03 0.03 l -0.1,0.04 v 0.03 0.04 l -0.1,0.03 v 0.04 0.04 c -6.3,6.28 -7.9,15.69 -7.9,23.31 0,8.67 1.9,17.35 8.1,23.56 0.6,0.61 0.6,0.71 0.6,0.86 0,0.35 -0.2,0.49 -0.5,0.49 -0.5,0 -5,-3.38 -7.9,-9.7 -2.5,-5.49 -3.2,-11.02 -3.2,-15.21 0,-3.89 0.6,-9.9 3.3,-15.54 3,-6.13 7.3,-9.36 7.8,-9.36 0.3,0 0.5,0.14 0.5,0.5 z"
         inkscape:connector-curvature="0"
         style="fill:#000000;stroke-width:0" /><path
         id="path1443"
         d="m 1141.3,422.14 v 0.07 0.08 0.07 0.07 0.07 0.06 0.07 0.06 0.06 0.06 0.05 l -0.1,0.06 v 0.05 0.05 0.05 0.05 0.09 0.08 0.07 l -0.1,0.07 v 0.07 0.06 l -0.1,0.05 v 0.05 0.04 l -0.1,0.04 -0.1,0.03 v 0.03 l -0.1,0.03 -0.1,0.02 v 0.02 l -0.1,0.02 -0.1,0.01 -0.1,0.01 h -0.1 v 0.01 h -0.1 v 0 l -0.1,0.01 v 0 h -0.1 -0.1 v 0 h -0.1 -0.1 -0.1 -24.2 c -0.8,0 -1.7,0 -1.7,-1 0,-0.98 0.9,-0.98 1.7,-0.98 h 24 v -9.52 c 0,-0.9 0,-1.79 1,-1.79 1,0 1,0.89 1,1.79 z"
         inkscape:connector-curvature="0"
         style="fill:#000000;stroke-width:0" /><path
         id="path1445"
         d="m 1160.7,421.25 v 0.13 l 0.1,0.15 v 0.16 l 0.1,0.18 v 0.19 l 0.1,0.21 v 0.22 l 0.1,0.22 0.1,0.23 0.1,0.24 0.1,0.25 0.1,0.24 0.1,0.25 0.1,0.25 0.1,0.25 0.2,0.25 0.1,0.24 0.2,0.24 0.2,0.23 0.1,0.22 0.2,0.22 0.2,0.2 0.2,0.19 0.2,0.18 0.3,0.16 0.2,0.14 0.1,0.07 0.2,0.06 0.1,0.05 0.1,0.05 0.2,0.05 0.1,0.04 0.2,0.03 0.1,0.03 0.2,0.02 0.1,0.02 0.2,0.01 h 0.2 c 0.2,0 1.4,0 2.4,-0.64 -1.4,-0.25 -2.4,-1.5 -2.4,-2.69 0,-0.79 0.6,-1.75 1.9,-1.75 1.1,0 2.7,0.89 2.7,2.89 0,2.6 -2.9,3.28 -4.6,3.28 -2.9,0 -4.6,-2.64 -5.2,-3.78 -1.3,3.28 -4,3.78 -5.4,3.78 -5.2,0 -8,-6.42 -8,-7.67 0,-0.5 0.5,-0.5 0.6,-0.5 0.4,0 0.5,0.11 0.6,0.55 1.7,5.28 5,6.53 6.7,6.53 0.9,0 2.7,-0.44 2.7,-3.33 0,-1.54 -0.9,-4.89 -2.7,-11.86 -0.8,-3.09 -2.6,-5.18 -4.8,-5.18 -0.3,0 -1.4,0 -2.4,0.65 1.2,0.24 2.3,1.28 2.3,2.69 0,1.34 -1.1,1.73 -1.8,1.73 -1.5,0 -2.8,-1.29 -2.8,-2.89 0,-2.28 2.5,-3.28 4.7,-3.28 3.3,0 5.1,3.49 5.2,3.78 0.6,-1.84 2.4,-3.78 5.4,-3.78 5.1,0 8,6.42 8,7.67 0,0.5 -0.5,0.5 -0.6,0.5 -0.5,0 -0.6,-0.2 -0.7,-0.54 -1.6,-5.33 -5,-6.53 -6.6,-6.53 -1.9,0 -2.7,1.59 -2.7,3.29 0,1.1 0.3,2.19 0.8,4.38 z"
         inkscape:connector-curvature="0"
         style="fill:#000000;stroke-width:0" /><path
         id="path1447"
         d="m 1190.1,405.11 h -1.2 c -0.1,-0.77 -0.4,-2.83 -0.9,-3.18 -0.2,-0.2 -2.9,-0.2 -3.4,-0.2 h -6.4 c 3.6,3.23 4.8,4.2 6.9,5.84 2.6,2.07 5,4.22 5,7.54 0,4.21 -3.7,6.79 -8.1,6.79 -4.4,0 -7.3,-3.03 -7.3,-6.23 0,-1.78 1.5,-1.96 1.9,-1.96 0.8,0 1.8,0.6 1.8,1.85 0,0.62 -0.2,1.84 -2.1,1.84 1.1,2.47 3.5,3.24 5.1,3.24 3.5,0 5.3,-2.71 5.3,-5.53 0,-3.04 -2.1,-5.44 -3.2,-6.69 l -8.4,-8.3 c -0.4,-0.31 -0.4,-0.39 -0.4,-1.36 h 14.4 z"
         inkscape:connector-curvature="0"
         style="fill:#000000;stroke-width:0" /><path
         id="path1449"
         d="m 1236.1,434 v 0.03 0.03 0.02 0.03 l 0.1,0.03 v 0.03 0.02 0.03 0.05 0.04 l 0.1,0.04 v 0.04 0.04 0.04 0.03 0.03 0.04 l 0.1,0.02 v 0.03 0.03 0.02 0.03 0.02 0.02 0.02 0.03 0.04 0.04 0.04 0.04 0.02 0.03 c 0,0.54 -0.4,1 -1,1 -0.5,0 -0.8,-0.36 -1.1,-1.1 l -11.7,-26.36 -11.7,26.41 c -0.4,0.94 -0.8,1.05 -1.2,1.05 -0.5,0 -1,-0.46 -1,-1 0,-0.1 0,-0.21 0.4,-0.8 l 12.3,-28.05 c 0.4,-0.84 0.7,-1.04 1.2,-1.04 0.6,0 0.8,0.34 1.1,1.04 z"
         inkscape:connector-curvature="0"
         style="fill:#000000;stroke-width:0" /><path
         id="path1451"
         d="m 1266.9,421.25 v 0.13 l 0.1,0.15 v 0.16 l 0.1,0.18 v 0.19 l 0.1,0.21 v 0.22 l 0.1,0.22 0.1,0.23 0.1,0.24 0.1,0.25 0.1,0.24 0.1,0.25 0.1,0.25 0.1,0.25 0.2,0.25 0.1,0.24 0.2,0.24 0.2,0.23 0.1,0.22 0.2,0.22 0.2,0.2 0.2,0.19 0.3,0.18 0.2,0.16 0.2,0.14 0.2,0.07 0.1,0.06 0.1,0.05 0.2,0.05 0.1,0.05 0.1,0.04 0.2,0.03 0.1,0.03 0.2,0.02 0.1,0.02 0.2,0.01 h 0.2 c 0.2,0 1.4,0 2.4,-0.64 -1.4,-0.25 -2.4,-1.5 -2.4,-2.69 0,-0.79 0.6,-1.75 1.9,-1.75 1.1,0 2.7,0.89 2.7,2.89 0,2.6 -2.9,3.28 -4.6,3.28 -2.9,0 -4.6,-2.64 -5.2,-3.78 -1.3,3.28 -4,3.78 -5.4,3.78 -5.2,0 -8,-6.42 -8,-7.67 0,-0.5 0.5,-0.5 0.6,-0.5 0.4,0 0.5,0.11 0.6,0.55 1.7,5.28 5,6.53 6.7,6.53 0.9,0 2.7,-0.44 2.7,-3.33 0,-1.54 -0.9,-4.89 -2.7,-11.86 -0.8,-3.09 -2.5,-5.18 -4.8,-5.18 -0.2,0 -1.4,0 -2.4,0.65 1.2,0.24 2.3,1.28 2.3,2.69 0,1.34 -1.1,1.73 -1.8,1.73 -1.5,0 -2.8,-1.29 -2.8,-2.89 0,-2.28 2.5,-3.28 4.7,-3.28 3.3,0 5.1,3.49 5.2,3.78 0.6,-1.84 2.4,-3.78 5.4,-3.78 5.2,0 8,6.42 8,7.67 0,0.5 -0.5,0.5 -0.6,0.5 -0.5,0 -0.6,-0.2 -0.6,-0.54 -1.7,-5.33 -5.1,-6.53 -6.7,-6.53 -1.9,0 -2.7,1.59 -2.7,3.29 0,1.1 0.3,2.19 0.8,4.38 z"
         inkscape:connector-curvature="0"
         style="fill:#000000;stroke-width:0" /><path
         id="path1453"
         d="m 1288.2,410.4 h 0.3 l 0.2,-0.02 0.3,-0.03 0.2,-0.04 0.2,-0.05 0.3,-0.06 0.2,-0.07 0.2,-0.08 0.2,-0.1 0.2,-0.1 0.2,-0.12 0.2,-0.12 0.2,-0.14 0.2,-0.15 0.1,-0.16 0.2,-0.17 0.1,-0.18 0.2,-0.19 0.1,-0.2 0.1,-0.22 0.2,-0.22 0.1,-0.24 0.1,-0.24 0.1,-0.26 v -0.27 l 0.1,-0.28 0.1,-0.29 v -0.3 l 0.1,-0.31 v -0.32 -0.33 -0.35 c 0,-4.33 -2.5,-5.61 -4.5,-5.61 -1.4,0 -4.5,0.38 -6,2.44 1.7,0.06 2.1,1.22 2.1,1.95 0,1.11 -0.9,1.91 -1.9,1.91 -1,0 -2,-0.59 -2,-2.02 0,-3.28 3.6,-5.4 7.8,-5.4 4.9,0 8.2,3.25 8.2,6.73 0,2.72 -2.2,5.44 -6,6.24 3.6,1.33 5,3.93 5,6.06 0,2.75 -3.2,4.81 -7.1,4.81 -3.9,0 -6.8,-1.89 -6.8,-4.67 0,-1.19 0.7,-1.84 1.8,-1.84 1.1,0 1.8,0.79 1.8,1.76 0,1.02 -0.7,1.75 -1.8,1.81 1.2,1.55 3.6,1.93 4.9,1.93 1.6,0 3.8,-0.77 3.8,-3.8 0,-1.47 -0.5,-3.06 -1.4,-4.14 -1.2,-1.33 -2.1,-1.41 -3.9,-1.5 -0.9,-0.08 -0.9,-0.08 -1.1,-0.11 -0.1,0 -0.4,-0.06 -0.4,-0.45 0,-0.49 0.4,-0.49 0.9,-0.49 z"
         inkscape:connector-curvature="0"
         style="fill:#000000;stroke-width:0" /><path
         id="path1455"
         d="m 1315.6,418.65 -0.1,0.37 v 0.39 0.39 0.41 0.84 l -0.1,0.88 -0.1,0.92 -0.1,0.95 -0.1,0.97 -0.2,1.01 -0.2,1.02 -0.2,1.03 -0.3,1.05 -0.3,1.06 -0.3,1.07 -0.4,1.07 -0.2,0.53 -0.2,0.53 -0.3,0.53 -0.2,0.53 c -3,6.12 -7.3,9.36 -7.8,9.36 -0.3,0 -0.5,-0.19 -0.5,-0.49 0,-0.15 0,-0.25 0.9,-1.15 4.9,-4.92 7.8,-12.85 7.8,-23.27 0,-8.51 -1.9,-17.28 -8.1,-23.56 -0.6,-0.59 -0.6,-0.7 -0.6,-0.84 0,-0.3 0.2,-0.5 0.5,-0.5 0.5,0 5,3.39 7.9,9.71 2.6,5.47 3.2,11 3.2,15.19 z"
         inkscape:connector-curvature="0"
         style="fill:#000000;stroke-width:0" /><path
         id="path1457"
         d="m 1349.2,434.95 v 0.08 0.07 l -0.1,0.07 v 0.07 0.06 l -0.1,0.06 v 0.06 0.05 l -0.1,0.05 v 0.05 0.04 l -0.1,0.04 v 0.04 0.04 l -0.1,0.03 v 0.03 0.03 l -0.1,0.02 v 0.03 0.02 l -0.1,0.02 v 0.01 0.02 l -0.1,0.01 v 0.01 l -0.1,0.01 v 0.01 0.01 h -0.1 v 0 0.01 h -0.1 c -0.7,0 -0.8,-0.36 -1.1,-1.05 l -12.4,-27.86 c -0.3,-0.64 -0.4,-0.73 -0.4,-0.98 0,-0.55 0.5,-1 1,-1 0.4,0 0.8,0.09 1.2,1.04 l 11.7,26.41 11.7,-26.41 c 0.5,-1.04 1,-1.04 1.1,-1.04 0.6,0 1,0.45 1,1 0,0.09 0,0.18 -0.2,0.79 z"
         inkscape:connector-curvature="0"
         style="fill:#000000;stroke-width:0" /><path
         id="path1459"
         d="m 1406.2,422.14 v 0.07 0.08 0.07 0.07 0.07 0.06 0.07 0.06 0.06 0.06 0.05 0.06 0.05 0.05 0.05 0.05 0.09 l -0.1,0.08 v 0.07 0.07 0.07 l -0.1,0.06 v 0.05 0.05 l -0.1,0.04 v 0.04 l -0.1,0.03 -0.1,0.03 v 0.03 l -0.1,0.02 -0.1,0.02 -0.1,0.02 -0.1,0.01 v 0.01 h -0.1 l -0.1,0.01 v 0 h -0.1 v 0.01 h -0.1 -0.1 v 0 h -0.1 -0.1 v 0 h -0.1 -24.2 c -0.9,0 -1.8,0 -1.8,-1 0,-0.98 0.9,-0.98 1.8,-0.98 h 23.9 v -9.52 c 0,-0.9 0,-1.79 1,-1.79 1,0 1,0.89 1,1.79 z"
         inkscape:connector-curvature="0"
         style="fill:#000000;stroke-width:0" /><path
         id="path1461"
         d="m 1425.7,421.25 v 0.13 0.15 l 0.1,0.16 v 0.18 l 0.1,0.19 v 0.21 l 0.1,0.22 0.1,0.22 0.1,0.23 v 0.24 l 0.1,0.25 0.1,0.24 0.2,0.25 0.1,0.25 0.1,0.25 0.1,0.25 0.2,0.24 0.1,0.24 0.2,0.23 0.2,0.22 0.2,0.22 0.2,0.2 0.2,0.19 0.2,0.18 0.2,0.16 0.3,0.14 0.1,0.07 0.1,0.06 0.2,0.05 0.1,0.05 0.1,0.05 0.2,0.04 0.1,0.03 0.2,0.03 0.1,0.02 0.2,0.02 0.1,0.01 h 0.2 c 0.3,0 1.5,0 2.5,-0.64 -1.4,-0.25 -2.4,-1.5 -2.4,-2.69 0,-0.79 0.5,-1.75 1.9,-1.75 1.1,0 2.7,0.89 2.7,2.89 0,2.6 -3,3.28 -4.6,3.28 -2.9,0 -4.7,-2.64 -5.3,-3.78 -1.2,3.28 -3.9,3.78 -5.3,3.78 -5.2,0 -8.1,-6.42 -8.1,-7.67 0,-0.5 0.5,-0.5 0.6,-0.5 0.4,0 0.6,0.11 0.7,0.55 1.6,5.28 4.9,6.53 6.6,6.53 1,0 2.7,-0.44 2.7,-3.33 0,-1.54 -0.8,-4.89 -2.7,-11.86 -0.8,-3.09 -2.5,-5.18 -4.7,-5.18 -0.3,0 -1.4,0 -2.5,0.65 1.3,0.24 2.4,1.28 2.4,2.69 0,1.34 -1.1,1.73 -1.9,1.73 -1.5,0 -2.7,-1.29 -2.7,-2.89 0,-2.28 2.5,-3.28 4.7,-3.28 3.2,0 5,3.49 5.2,3.78 0.6,-1.84 2.4,-3.78 5.4,-3.78 5.1,0 8,6.42 8,7.67 0,0.5 -0.5,0.5 -0.7,0.5 -0.4,0 -0.5,-0.2 -0.6,-0.54 -1.6,-5.33 -5,-6.53 -6.6,-6.53 -2,0 -2.8,1.59 -2.8,3.29 0,1.1 0.3,2.19 0.9,4.38 z"
         inkscape:connector-curvature="0"
         style="fill:#000000;stroke-width:0" /><path
         id="path1463"
         d="m 1447,410.4 h 0.3 l 0.2,-0.02 0.2,-0.03 0.3,-0.04 0.2,-0.05 0.2,-0.06 0.3,-0.07 0.2,-0.08 0.2,-0.1 0.2,-0.1 0.2,-0.12 0.2,-0.12 0.2,-0.14 0.1,-0.15 0.2,-0.16 0.2,-0.17 0.1,-0.18 0.1,-0.19 0.2,-0.2 0.1,-0.22 0.1,-0.22 0.1,-0.24 0.1,-0.24 0.1,-0.26 0.1,-0.27 0.1,-0.28 v -0.29 l 0.1,-0.3 v -0.31 -0.32 l 0.1,-0.33 v -0.35 c 0,-4.33 -2.5,-5.61 -4.6,-5.61 -1.3,0 -4.4,0.38 -5.9,2.44 1.6,0.06 2,1.22 2,1.95 0,1.11 -0.8,1.91 -1.9,1.91 -1,0 -1.9,-0.59 -1.9,-2.02 0,-3.28 3.6,-5.4 7.8,-5.4 4.8,0 8.2,3.25 8.2,6.73 0,2.72 -2.2,5.44 -6.1,6.24 3.7,1.33 5,3.93 5,6.06 0,2.75 -3.2,4.81 -7,4.81 -3.9,0 -6.9,-1.89 -6.9,-4.67 0,-1.19 0.8,-1.84 1.9,-1.84 1,0 1.7,0.79 1.7,1.76 0,1.02 -0.7,1.75 -1.7,1.81 1.2,1.55 3.6,1.93 4.9,1.93 1.5,0 3.7,-0.77 3.7,-3.8 0,-1.47 -0.5,-3.06 -1.4,-4.14 -1.1,-1.33 -2.1,-1.41 -3.8,-1.5 -0.9,-0.08 -1,-0.08 -1.1,-0.11 -0.1,0 -0.4,-0.06 -0.4,-0.45 0,-0.49 0.3,-0.49 0.9,-0.49 z"
         inkscape:connector-curvature="0"
         style="fill:#000000;stroke-width:0" /></g>  </g>
</svg>
