<?xml version="1.0" encoding="UTF-8" standalone="no"?>
<!-- Created with Inkscape (http://www.inkscape.org/) -->

<svg
   xmlns:dc="http://purl.org/dc/elements/1.1/"
   xmlns:cc="http://creativecommons.org/ns#"
   xmlns:rdf="http://www.w3.org/1999/02/22-rdf-syntax-ns#"
   xmlns:svg="http://www.w3.org/2000/svg"
   xmlns="http://www.w3.org/2000/svg"
   xmlns:sodipodi="http://sodipodi.sourceforge.net/DTD/sodipodi-0.dtd"
   xmlns:inkscape="http://www.inkscape.org/namespaces/inkscape"
   width="81.387718mm"
   height="62.642689mm"
   viewBox="0 0 81.387718 62.642689"
   version="1.1"
   id="svg8"
   inkscape:version="0.92.3 (2405546, 2018-03-11)"
   sodipodi:docname="Roperator.svg">
  <sodipodi:namedview
     id="base"
     pagecolor="#ffffff"
     bordercolor="#666666"
     borderopacity="1.0"
     inkscape:pageopacity="0.0"
     inkscape:pageshadow="2"
     inkscape:zoom="2.8"
     inkscape:cx="128.4161"
     inkscape:cy="146.63441"
     inkscape:document-units="mm"
     inkscape:current-layer="layer1"
     showgrid="false"
     inkscape:window-width="1853"
     inkscape:window-height="1025"
     inkscape:window-x="67"
     inkscape:window-y="27"
     inkscape:window-maximized="1"
     inkscape:snap-global="false"
     fit-margin-top="0"
     fit-margin-left="0"
     fit-margin-right="0"
     fit-margin-bottom="0" />
  <defs
     id="defs2">
    <marker
       inkscape:stockid="Arrow1Lend"
       orient="auto"
       refY="0"
       refX="0"
       id="marker2537"
       style="overflow:visible"
       inkscape:isstock="true">
      <path
         inkscape:connector-curvature="0"
         id="path2535"
         d="M 0,0 5,-5 -12.5,0 5,5 Z"
         style="fill:#4e9a06;fill-opacity:1;fill-rule:evenodd;stroke:#4e9a06;stroke-width:1.00000003pt;stroke-opacity:1"
         transform="matrix(-0.8,0,0,-0.8,-10,0)" />
    </marker>
    <marker
       inkscape:isstock="true"
       style="overflow:visible"
       id="Arrow1Lstart"
       refX="0"
       refY="0"
       orient="auto"
       inkscape:stockid="Arrow1Lstart">
      <path
         inkscape:connector-curvature="0"
         transform="matrix(0.8,0,0,0.8,10,0)"
         style="fill:#000000;fill-opacity:1;fill-rule:evenodd;stroke:#000000;stroke-width:1.00000003pt;stroke-opacity:1"
         d="M 0,0 5,-5 -12.5,0 5,5 Z"
         id="path1000" />
    </marker>
    <marker
       inkscape:isstock="true"
       style="overflow:visible"
       id="Arrow1Mend"
       refX="0"
       refY="0"
       orient="auto"
       inkscape:stockid="Arrow1Mend">
      <path
         inkscape:connector-curvature="0"
         transform="matrix(-0.4,0,0,-0.4,-4,0)"
         style="fill:#000000;fill-opacity:1;fill-rule:evenodd;stroke:#000000;stroke-width:1.00000003pt;stroke-opacity:1"
         d="M 0,0 5,-5 -12.5,0 5,5 Z"
         id="path1009" />
    </marker>
    <marker
       inkscape:isstock="true"
       style="overflow:visible"
       id="Arrow2Mstart"
       refX="0"
       refY="0"
       orient="auto"
       inkscape:stockid="Arrow2Mstart">
      <path
         inkscape:connector-curvature="0"
         transform="scale(0.6)"
         d="M 8.7185878,4.0337352 -2.2072895,0.01601326 8.7185884,-4.0017078 c -1.7454984,2.3720609 -1.7354408,5.6174519 -6e-7,8.035443 z"
         style="fill:#000000;fill-opacity:1;fill-rule:evenodd;stroke:#000000;stroke-width:0.625;stroke-linejoin:round;stroke-opacity:1"
         id="path1024" />
    </marker>
    <marker
       inkscape:isstock="true"
       style="overflow:visible"
       id="Arrow1Lstart-9"
       refX="0"
       refY="0"
       orient="auto"
       inkscape:stockid="Arrow1Lstart">
      <path
         transform="matrix(0.8,0,0,0.8,10,0)"
         style="fill:#000000;fill-opacity:1;fill-rule:evenodd;stroke:#000000;stroke-width:1.00000003pt;stroke-opacity:1"
         d="M 0,0 5,-5 -12.5,0 5,5 Z"
         id="path1000-2"
         inkscape:connector-curvature="0" />
    </marker>
    <marker
       inkscape:isstock="true"
       style="overflow:visible"
       id="Arrow1Lend-8"
       refX="0"
       refY="0"
       orient="auto"
       inkscape:stockid="Arrow1Lend">
      <path
         transform="matrix(-0.8,0,0,-0.8,-10,0)"
         style="fill:#000000;fill-opacity:1;fill-rule:evenodd;stroke:#000000;stroke-width:1.00000003pt;stroke-opacity:1"
         d="M 0,0 5,-5 -12.5,0 5,5 Z"
         id="path1003-3"
         inkscape:connector-curvature="0" />
    </marker>
  </defs>
  <metadata
     id="metadata5">
    <rdf:RDF>
      <cc:Work
         rdf:about="">
        <dc:format>image/svg+xml</dc:format>
        <dc:type
           rdf:resource="http://purl.org/dc/dcmitype/StillImage" />
        <dc:title></dc:title>
      </cc:Work>
    </rdf:RDF>
  </metadata>
  <g
     style="opacity:1"
     transform="translate(-27.656067,-92.701376)"
     id="layer1"
     inkscape:groupmode="layer"
     inkscape:label="Layer 1">
    <rect
       y="92.829506"
       x="27.784197"
       height="62.386429"
       width="81.131462"
       id="rect69"
       style="fill:#ffffff;stroke:#00001a;stroke-width:0.25625926;stroke-miterlimit:4;stroke-dasharray:none;stroke-opacity:1" />
    <ellipse
       ry="26.883554"
       rx="32.647694"
       cy="125.71274"
       cx="69.726006"
       id="path1001"
       style="opacity:1;fill:#729fcf;fill-opacity:0.71559634;stroke:#00001a;stroke-width:0.5;stroke-linecap:round;stroke-linejoin:round;stroke-miterlimit:4;stroke-dasharray:none;stroke-dashoffset:0;stroke-opacity:1" />
    <path
       inkscape:connector-curvature="0"
       id="path999"
       d="m 48.544638,118.49569 c -0.348134,-0.55196 -0.213369,-1.16303 -0.213369,-1.78241 0,-1.50375 -0.280396,-3.29144 0.426735,-4.69049 0.708114,-1.401 7.497168,-7.38524 9.708234,-5.44099 1.731467,1.52253 -1.324123,7.17766 5.014145,7.97386 6.108711,0.76737 22.052243,-8.04529 23.790504,1.12572 1.630141,8.60056 -14.935744,4.63169 -14.935744,12.94579 0,0.55462 -0.273509,1.80568 0.106687,2.25144 1.055886,1.23796 2.971378,1.93132 4.267356,2.9081 0.584862,0.44082 1.745597,2.36225 2.133678,2.53289 2.758086,1.21262 8.42531,-1.31215 10.775073,-2.34526 0.965435,-0.42446 6.138505,-1.77503 6.827768,-0.56287 1.522068,2.6768 -3.428195,5.44729 -6.187667,6.66052 -3.550579,1.56106 1.724732,4.47748 -3.62725,5.06575 -1.214793,0.13352 -3.318749,0.65328 -4.587409,0.28143 -4.047021,-1.18623 -6.766291,-7.245 -12.161961,-5.34718 -6.068481,2.13446 -11.895013,8.36088 -19.203103,6.75433 -3.596016,-0.79052 -4.166912,-10.51891 -2.133676,-12.66435 2.558382,-2.69961 9.036756,-1.69963 10.348336,-5.15957 2.228446,-5.8786 -11.316914,-3.24014 -14.402324,-4.59669 -1.465316,-0.64423 -1.533368,-4.52248 0,-4.97194 1.208486,-0.35421 2.892824,-0.42757 4.053987,-0.93808 z"
       style="fill:#f57900;fill-opacity:0.71559634;fill-rule:evenodd;stroke:#000000;stroke-width:0.28011227px;stroke-linecap:butt;stroke-linejoin:miter;stroke-opacity:1" />
    <g
       id="g1139"
       transform="matrix(1.2980906,0,0,1.2980906,-19.624966,-14.923493)">
      <path
         style="font-style:normal;font-variant:normal;font-weight:normal;font-stretch:normal;letter-spacing:normal;word-spacing:normal;text-anchor:start;fill:#000000;fill-opacity:1;fill-rule:evenodd;stroke:#000000;stroke-width:0;stroke-linecap:butt;stroke-linejoin:miter;stroke-miterlimit:10.43299961;stroke-dasharray:none;stroke-dashoffset:0;stroke-opacity:1"
         inkscape:connector-curvature="0"
         d="m 61.903857,91.818644 7.84e-4,-0.0149 7.84e-4,-0.01568 0.0016,-0.01568 0.0024,-0.01646 0.0031,-0.01646 0.0039,-0.01725 0.0047,-0.01647 0.0055,-0.01725 0.0063,-0.01725 0.0078,-0.01725 0.0086,-0.01725 0.0094,-0.01725 0.01098,-0.01725 0.01176,-0.01646 0.01254,-0.01646 0.01411,-0.01647 0.01568,-0.01568 0.01647,-0.01568 0.01803,-0.0149 0.0196,-0.01411 0.02038,-0.01411 0.02274,-0.01254 0.02352,-0.01254 0.02509,-0.01176 0.02666,-0.01019 0.02901,-0.01019 0.02979,-0.0086 0.03214,-0.0078 0.01646,-0.0039 0.01725,-0.0031 0.01725,-0.0024 0.01803,-0.0031 0.01803,-0.0024 0.01882,-0.0016 0.0196,-0.0024 0.0196,-7.84e-4 c 0.0196,-0.0039 0.03528,-0.0196 0.03528,-0.04312 0,-0.04312 -0.03214,-0.04312 -0.07448,-0.04312 -0.391226,0 -0.746387,0.198357 -0.749523,0.48766 v 0.890647 c 0,0.1521 0,0.278327 -0.156804,0.406906 -0.13642,0.112115 -0.286168,0.120739 -0.371626,0.12466 -0.0196,0.0039 -0.0345,0.0196 -0.0345,0.04312 0,0.0392 0.02352,0.0392 0.06272,0.04234 0.257158,0.01646 0.444539,0.15602 0.48766,0.348105 0.01255,0.04312 0.01255,0.05018 0.01255,0.191301 v 0.773043 c 0,0.16386 0,0.289304 0.18738,0.437483 0.151316,0.117603 0.410043,0.159941 0.562143,0.159941 0.04234,0 0.07448,0 0.07448,-0.04234 0,-0.0392 -0.0243,-0.0392 -0.06272,-0.04312 -0.246182,-0.01568 -0.438267,-0.141123 -0.488444,-0.33948 -0.01254,-0.03528 -0.01254,-0.04234 -0.01254,-0.183461 v -0.820869 c 0,-0.180325 -0.03058,-0.246182 -0.155236,-0.370841 -0.08232,-0.08232 -0.196005,-0.121524 -0.304984,-0.1521 0.320665,-0.08938 0.46022,-0.269703 0.46022,-0.496285 z"
         id="path1021" />
      <path
         style="font-style:normal;font-variant:normal;font-weight:normal;font-stretch:normal;letter-spacing:normal;word-spacing:normal;text-anchor:start;fill:#000000;fill-opacity:1;fill-rule:evenodd;stroke:#000000;stroke-width:0;stroke-linecap:butt;stroke-linejoin:miter;stroke-miterlimit:10.43299961;stroke-dasharray:none;stroke-dashoffset:0;stroke-opacity:1"
         inkscape:connector-curvature="0"
         d="m 62.930923,94.704622 -0.0024,0.01176 -0.0031,0.01176 -0.0024,0.01098 -0.0031,0.01019 -0.0024,0.01019 -0.0024,0.0086 -0.0031,0.0094 -0.0024,0.0078 -0.0031,0.0078 -0.0031,0.0071 -0.0031,0.0071 -0.0039,0.0063 -0.0039,0.0055 -0.0039,0.0055 -0.0047,0.0055 -0.0047,0.0047 -0.0055,0.0039 -0.0055,0.0039 -0.0063,0.0031 -0.0071,0.0031 -0.0071,0.0031 -0.0086,0.0024 -0.0078,0.0024 -0.0094,0.0016 -0.01019,0.0016 -0.0055,7.84e-4 -0.0047,7.84e-4 -0.0063,7.84e-4 -0.0055,7.84e-4 h -0.0063 l -0.0055,7.84e-4 h -0.0071 l -0.0063,7.84e-4 h -0.0071 -0.0071 -0.0071 -0.0078 l -0.0078,7.84e-4 h -0.0078 c -0.04626,0 -0.08938,0 -0.08938,0.07291 0,0.03214 0.0196,0.04783 0.05018,0.04783 0.106627,0 0.219526,-0.01176 0.328504,-0.01176 0.12858,0 0.261863,0.01176 0.387306,0.01176 0.0196,0 0.06978,0 0.06978,-0.0784 0,-0.04234 -0.0392,-0.04234 -0.0933,-0.04234 -0.196005,0 -0.196005,-0.02823 -0.196005,-0.06272 0,-0.04782 0.164644,-0.683665 0.192085,-0.781668 0.05096,0.112899 0.15994,0.250103 0.359081,0.250103 l -0.0031,-0.08624 c -0.258727,0 -0.308904,-0.324584 -0.308904,-0.34732 0,-0.0078 0,-0.01646 0.01098,-0.06272 l 0.192085,-0.765988 c 0.02744,-0.105058 0.132499,-0.214037 0.202277,-0.272838 0.137204,-0.121524 0.250887,-0.14818 0.317528,-0.14818 0.155236,0 0.249319,0.135635 0.249319,0.367705 0,0.229718 -0.12858,0.678177 -0.199141,0.827925 -0.1325,0.272839 -0.319881,0.401418 -0.46414,0.401418 l 0.0031,0.08624 c 0.453163,0 0.940824,-0.569983 0.940824,-1.14467 0,-0.366921 -0.221878,-0.624079 -0.519021,-0.624079 -0.195221,0 -0.382602,0.139555 -0.511182,0.292439 -0.0392,-0.210901 -0.206981,-0.292439 -0.35124,-0.292439 -0.180325,0 -0.254807,0.151315 -0.289304,0.221093 -0.07135,0.134068 -0.121523,0.367706 -0.121523,0.38025 0,0.0392 0.0392,0.0392 0.04704,0.0392 0.0392,0 0.04234,-0.0055 0.06586,-0.09095 0.06743,-0.276759 0.14426,-0.46414 0.285383,-0.46414 0.06664,0 0.121523,0.03058 0.121523,0.178756 0,0.09095 -0.01254,0.133284 -0.02744,0.199925 z"
         id="path1023" />
      <path
         style="font-style:normal;font-variant:normal;font-weight:normal;font-stretch:normal;letter-spacing:normal;word-spacing:normal;text-anchor:start;fill:#000000;fill-opacity:1;fill-rule:evenodd;stroke:#000000;stroke-width:0;stroke-linecap:butt;stroke-linejoin:miter;stroke-miterlimit:10.43299961;stroke-dasharray:none;stroke-dashoffset:0;stroke-opacity:1"
         inkscape:connector-curvature="0"
         d="m 65.343353,91.438394 v -0.01254 -0.01333 l -7.84e-4,-0.01254 v -0.0063 l -7.84e-4,-0.0063 -7.84e-4,-0.0063 v -0.0063 l -7.84e-4,-0.0055 -0.0016,-0.0055 -7.84e-4,-0.0055 -0.0016,-0.0055 -0.0016,-0.0055 -0.0016,-0.0047 -0.0016,-0.0047 -0.0024,-0.0047 -0.0024,-0.0047 -0.0031,-0.0039 -0.0031,-0.0039 -0.0031,-0.0039 -0.0031,-0.0031 -0.0039,-0.0031 -0.0024,-7.84e-4 -0.0024,-0.0016 -0.0024,-0.0016 -0.0024,-7.84e-4 -0.0024,-7.84e-4 -0.0024,-0.0016 -0.0031,-7.84e-4 -0.0024,-7.84e-4 -0.0031,-7.84e-4 -0.0031,-7.84e-4 h -0.0031 l -0.0031,-7.84e-4 h -0.0031 l -0.0031,-7.84e-4 h -0.0039 -0.0031 c -0.0784,0 -0.0784,0.06978 -0.0784,0.139555 v 3.625309 c 0,0.07056 0,0.14034 0.0784,0.14034 0.0784,0 0.0784,-0.06978 0.0784,-0.14034 z"
         id="path1025" />
      <path
         style="font-style:normal;font-variant:normal;font-weight:normal;font-stretch:normal;letter-spacing:normal;word-spacing:normal;text-anchor:start;fill:#000000;fill-opacity:1;fill-rule:evenodd;stroke:#000000;stroke-width:0;stroke-linecap:butt;stroke-linejoin:miter;stroke-miterlimit:10.43299961;stroke-dasharray:none;stroke-dashoffset:0;stroke-opacity:1"
         inkscape:connector-curvature="0"
         d="m 67.831048,92.899808 0.03763,-0.0086 0.03685,-0.0094 0.03763,-0.01098 0.03842,-0.01176 0.03763,-0.01254 0.03763,-0.01411 0.03763,-0.0149 0.03685,-0.01568 0.03763,-0.01725 0.03607,-0.01803 0.03606,-0.01882 0.03528,-0.0196 0.0345,-0.02117 0.03371,-0.02195 0.03214,-0.02274 0.03136,-0.02352 0.03058,-0.0243 0.02901,-0.02509 0.02822,-0.02666 0.02587,-0.02744 0.02509,-0.02744 0.02352,-0.02901 0.02117,-0.02979 0.0196,-0.03058 0.01803,-0.03136 0.0149,-0.03214 0.01411,-0.03293 0.01098,-0.03371 0.0086,-0.0345 0.0071,-0.03528 0.0039,-0.03607 7.84e-4,-0.03685 c 0,-0.33556 -0.351241,-0.585662 -0.862422,-0.585662 h -1.11329 c -0.0784,0 -0.113683,0 -0.113683,0.0784 0,0.04312 0.03528,0.04312 0.109763,0.04312 0.0078,0 0.08232,0 0.14818,0.0071 0.07056,0.0086 0.105842,0.01254 0.105842,0.06272 0,0.01568 -0.0039,0.02823 -0.01568,0.07448 l -0.523725,2.097254 c -0.0392,0.152884 -0.04626,0.18346 -0.355162,0.18346 -0.07056,0 -0.105058,0 -0.105058,0.0784 0,0.04312 0.04626,0.04312 0.0541,0.04312 0.109763,0 0.383386,-0.01254 0.492365,-0.01254 0.108979,0 0.386522,0.01254 0.496284,0.01254 0.03136,0 0.0784,0 0.0784,-0.0784 0,-0.04312 -0.03607,-0.04312 -0.109762,-0.04312 -0.14426,0 -0.254807,0 -0.254807,-0.06978 0,-0.02274 0.0086,-0.04234 0.01254,-0.06586 l 0.257159,-1.034906 h 0.465708 l -0.0039,-0.08703 H 67.0141 l 0.254806,-1.019226 c 0.02352,-0.0933 0.0345,-0.132499 0.108979,-0.145043 0.03528,-0.0031 0.160724,-0.0031 0.237558,-0.0031 0.278327,0 0.71189,0 0.71189,0.386521 0,0.1325 -0.06272,0.402203 -0.215605,0.554303 -0.100355,0.101138 -0.307336,0.226581 -0.659361,0.226581 l 0.0039,0.08703 c 0.355161,0 0.424939,0.217957 0.424939,0.355161 0,0.0588 -0.03058,0.178756 -0.0541,0.269703 -0.02822,0.108978 -0.06194,0.253238 -0.06194,0.33164 0,0.421019 0.46806,0.421019 0.519021,0.421019 0.332424,0 0.46806,-0.394362 0.46806,-0.449244 0,-0.04626 -0.04312,-0.04626 -0.04626,-0.04626 -0.03606,0 -0.04312,0.02823 -0.05018,0.05488 -0.098,0.289303 -0.265782,0.355161 -0.356729,0.355161 -0.128579,0 -0.155236,-0.08546 -0.155236,-0.239127 0,-0.119955 0.02274,-0.319096 0.0392,-0.444539 0.0071,-0.05488 0.01568,-0.128579 0.01568,-0.183461 0,-0.300279 -0.262647,-0.421802 -0.367706,-0.461003 z"
         id="path1027" />
      <path
         style="font-style:normal;font-variant:normal;font-weight:normal;font-stretch:normal;letter-spacing:normal;word-spacing:normal;text-anchor:start;fill:#000000;fill-opacity:1;fill-rule:evenodd;stroke:#000000;stroke-width:0;stroke-linecap:butt;stroke-linejoin:miter;stroke-miterlimit:10.43299961;stroke-dasharray:none;stroke-dashoffset:0;stroke-opacity:1"
         inkscape:connector-curvature="0"
         d="m 70.087458,95.164842 v -0.0016 -0.0024 -7.84e-4 -0.0016 l -7.84e-4,-7.84e-4 v -0.0016 l -7.84e-4,-7.84e-4 v -0.0016 l -7.84e-4,-0.0016 -7.84e-4,-0.0016 -7.84e-4,-0.0016 -0.0016,-0.0024 -7.84e-4,-0.0016 -0.0016,-0.0024 -0.0016,-0.0024 -0.0024,-0.0024 -0.0016,-0.0024 -0.0024,-0.0031 -0.0016,-0.0016 -0.0016,-0.0016 -7.85e-4,-0.0016 -0.0016,-0.0016 -0.0016,-0.0016 -0.0016,-0.0024 -0.0016,-0.0016 -0.0016,-0.0016 -0.0024,-0.0024 -0.0016,-0.0016 -0.0024,-0.0024 -0.0016,-0.0024 -0.0024,-0.0024 -0.0016,-0.0024 -0.0024,-0.0024 -0.0024,-0.0024 -0.0024,-0.0024 -0.0031,-0.0024 -0.0024,-0.0031 -0.0024,-0.0024 -0.0031,-0.0031 -0.0031,-0.0024 -0.0024,-0.0031 -0.0031,-0.0031 c -0.48766,-0.492364 -0.612319,-1.230127 -0.612319,-1.82755 0,-0.679746 0.148179,-1.360275 0.628,-1.847151 0.05018,-0.04783 0.05018,-0.05567 0.05018,-0.06743 0,-0.02744 -0.0149,-0.03842 -0.03763,-0.03842 -0.0392,0 -0.391226,0.264999 -0.620944,0.760499 -0.199925,0.430427 -0.246182,0.86399 -0.246182,1.192495 0,0.304983 0.04234,0.77618 0.257158,1.218367 0.233638,0.480604 0.570767,0.733843 0.609968,0.733843 0.02274,0 0.03763,-0.01098 0.03763,-0.0392 z"
         id="path1029" />
      <path
         style="font-style:normal;font-variant:normal;font-weight:normal;font-stretch:normal;letter-spacing:normal;word-spacing:normal;text-anchor:start;fill:#000000;fill-opacity:1;fill-rule:evenodd;stroke:#000000;stroke-width:0;stroke-linecap:butt;stroke-linejoin:miter;stroke-miterlimit:10.43299961;stroke-dasharray:none;stroke-dashoffset:0;stroke-opacity:1"
         inkscape:connector-curvature="0"
         d="m 70.484956,94.704622 -0.0031,0.01176 -0.0024,0.01176 -0.0031,0.01098 -0.0024,0.01019 -0.0024,0.01019 -0.0031,0.0086 -0.0024,0.0094 -0.0031,0.0078 -0.0024,0.0078 -0.0031,0.0071 -0.0039,0.0071 -0.0031,0.0063 -0.0039,0.0055 -0.0047,0.0055 -0.0039,0.0055 -0.0055,0.0047 -0.0047,0.0039 -0.0063,0.0039 -0.0063,0.0031 -0.0063,0.0031 -0.0078,0.0031 -0.0078,0.0024 -0.0086,0.0024 -0.0086,0.0016 -0.01019,0.0016 -0.0055,7.84e-4 -0.0055,7.84e-4 -0.0055,7.84e-4 -0.0055,7.84e-4 h -0.0063 l -0.0063,7.84e-4 h -0.0063 l -0.0063,7.84e-4 h -0.0071 -0.0071 -0.0071 -0.0078 l -0.0078,7.84e-4 h -0.0078 c -0.04626,0 -0.08938,0 -0.08938,0.07291 0,0.03214 0.0196,0.04783 0.05018,0.04783 0.106626,0 0.219525,-0.01176 0.328504,-0.01176 0.128579,0 0.261863,0.01176 0.387306,0.01176 0.0196,0 0.06978,0 0.06978,-0.0784 0,-0.04234 -0.0392,-0.04234 -0.0933,-0.04234 -0.196005,0 -0.196005,-0.02823 -0.196005,-0.06272 0,-0.04782 0.163861,-0.683665 0.192085,-0.781668 0.05018,0.112899 0.159156,0.250103 0.359081,0.250103 l -0.0039,-0.08624 c -0.257942,0 -0.30812,-0.324584 -0.30812,-0.34732 0,-0.0078 0,-0.01646 0.01098,-0.06272 l 0.192085,-0.765988 c 0.02666,-0.105058 0.132499,-0.214037 0.202277,-0.272838 0.137203,-0.121524 0.250886,-0.14818 0.317528,-0.14818 0.155236,0 0.249318,0.135635 0.249318,0.367705 0,0.229718 -0.128579,0.678177 -0.199925,0.827925 -0.131715,0.272839 -0.319096,0.401418 -0.46414,0.401418 l 0.0039,0.08624 c 0.453164,0 0.940824,-0.569983 0.940824,-1.14467 0,-0.366921 -0.221877,-0.624079 -0.519805,-0.624079 -0.194437,0 -0.381818,0.139555 -0.510397,0.292439 -0.0392,-0.210901 -0.206981,-0.292439 -0.352025,-0.292439 -0.17954,0 -0.254806,0.151315 -0.288519,0.221093 -0.07135,0.134068 -0.121523,0.367706 -0.121523,0.38025 0,0.0392 0.0392,0.0392 0.04704,0.0392 0.0392,0 0.04234,-0.0055 0.06586,-0.09095 0.06743,-0.276759 0.144259,-0.46414 0.285383,-0.46414 0.06586,0 0.121523,0.03058 0.121523,0.178756 0,0.09095 -0.01254,0.133284 -0.02744,0.199925 z"
         id="path1031" />
      <path
         style="font-style:normal;font-variant:normal;font-weight:normal;font-stretch:normal;letter-spacing:normal;word-spacing:normal;text-anchor:start;fill:#000000;fill-opacity:1;fill-rule:evenodd;stroke:#000000;stroke-width:0;stroke-linecap:butt;stroke-linejoin:miter;stroke-miterlimit:10.43299961;stroke-dasharray:none;stroke-dashoffset:0;stroke-opacity:1"
         inkscape:connector-curvature="0"
         d="m 73.403863,93.251833 v -0.02901 -0.03058 l -7.84e-4,-0.03058 -0.0016,-0.03214 -0.0031,-0.06586 -0.0047,-0.06899 -0.0063,-0.07213 -0.0078,-0.07448 -0.01098,-0.07605 -0.01255,-0.07919 -0.01568,-0.07997 -0.01803,-0.08075 -0.02117,-0.08232 -0.02352,-0.08311 -0.02744,-0.08389 -0.03058,-0.08389 -0.01725,-0.04155 -0.01725,-0.04155 -0.01882,-0.04155 -0.0196,-0.04155 c -0.233638,-0.479821 -0.569199,-0.733843 -0.6084,-0.733843 -0.02352,0 -0.0392,0.0149 -0.0392,0.03842 0,0.01176 0,0.0196 0.07291,0.09016 0.383386,0.385738 0.606832,1.007466 0.606832,1.824415 0,0.667201 -0.145044,1.354786 -0.629568,1.847151 -0.05018,0.04626 -0.05018,0.05488 -0.05018,0.06586 0,0.02352 0.01568,0.0392 0.0392,0.0392 0.0392,0 0.389658,-0.265783 0.620944,-0.761284 0.198357,-0.428859 0.244615,-0.862422 0.244615,-1.190926 z"
         id="path1033" />
      <path
         style="font-style:normal;font-variant:normal;font-weight:normal;font-stretch:normal;letter-spacing:normal;word-spacing:normal;text-anchor:start;fill:#000000;fill-opacity:1;fill-rule:evenodd;stroke:#000000;stroke-width:0;stroke-linecap:butt;stroke-linejoin:miter;stroke-miterlimit:10.43299961;stroke-dasharray:none;stroke-dashoffset:0;stroke-opacity:1"
         inkscape:connector-curvature="0"
         d="m 77.566225,92.949985 h 0.01019 0.01176 0.01098 l 0.0063,-7.84e-4 h 0.0055 l 0.0055,-7.84e-4 0.0055,-7.84e-4 0.0055,-7.84e-4 0.0055,-7.84e-4 0.0055,-7.84e-4 0.0055,-0.0016 0.0047,-0.0016 0.0047,-0.0016 0.0055,-0.0016 0.0039,-0.0024 0.0047,-0.0024 0.0039,-0.0031 0.0039,-0.0024 0.0039,-0.0039 0.0031,-0.0031 0.0031,-0.0039 0.0016,-0.0024 0.0016,-0.0024 7.84e-4,-0.0016 0.0016,-0.0024 7.84e-4,-0.0024 0.0016,-0.0031 7.84e-4,-0.0024 7.84e-4,-0.0031 7.84e-4,-0.0024 7.84e-4,-0.0031 7.84e-4,-0.0031 v -0.0031 l 7.84e-4,-0.0031 v -0.0031 -0.0031 -0.0039 c 0,-0.0784 -0.07448,-0.0784 -0.128579,-0.0784 h -2.339516 c -0.05488,0 -0.128579,0 -0.128579,0.0784 0,0.07683 0.0737,0.07683 0.131715,0.07683 z"
         id="path1035" />
      <path
         style="font-style:normal;font-variant:normal;font-weight:normal;font-stretch:normal;letter-spacing:normal;word-spacing:normal;text-anchor:start;fill:#000000;fill-opacity:1;fill-rule:evenodd;stroke:#000000;stroke-width:0;stroke-linecap:butt;stroke-linejoin:miter;stroke-miterlimit:10.43299961;stroke-dasharray:none;stroke-dashoffset:0;stroke-opacity:1"
         inkscape:connector-curvature="0"
         d="m 77.569361,93.708916 h 0.0055 0.0047 l 0.01098,-7.84e-4 h 0.01098 0.0055 l 0.0055,-7.84e-4 0.0055,-7.84e-4 h 0.0055 l 0.0055,-7.84e-4 0.0047,-0.0016 0.0055,-7.84e-4 0.0047,-0.0016 0.0055,-0.0016 0.0047,-0.0016 0.0047,-0.0016 0.0047,-0.0024 0.0039,-0.0024 0.0039,-0.0031 0.0039,-0.0031 0.0039,-0.0031 0.0031,-0.0039 0.0016,-0.0016 0.0016,-0.0024 0.0016,-0.0016 0.0016,-0.0024 0.0016,-0.0024 7.84e-4,-0.0024 7.84e-4,-0.0024 0.0016,-0.0024 7.84e-4,-0.0031 7.84e-4,-0.0024 7.84e-4,-0.0031 7.84e-4,-0.0031 7.84e-4,-0.0031 v -0.0031 l 7.84e-4,-0.0031 v -0.0031 -0.0039 -0.0031 c 0,-0.0784 -0.07448,-0.0784 -0.131715,-0.0784 h -2.333244 c -0.05802,0 -0.131715,0 -0.131715,0.0784 0,0.0784 0.0737,0.0784 0.128579,0.0784 z"
         id="path1037" />
      <path
         style="font-style:normal;font-variant:normal;font-weight:normal;font-stretch:normal;letter-spacing:normal;word-spacing:normal;text-anchor:start;fill:#000000;fill-opacity:1;fill-rule:evenodd;stroke:#000000;stroke-width:0;stroke-linecap:butt;stroke-linejoin:miter;stroke-miterlimit:10.43299961;stroke-dasharray:none;stroke-dashoffset:0;stroke-opacity:1"
         inkscape:connector-curvature="0"
         d="m 80.808931,92.97821 -7.84e-4,-0.05802 -7.84e-4,-0.0588 -0.0016,-0.0588 -0.0024,-0.05802 -0.0031,-0.0588 -0.0047,-0.05802 -0.0063,-0.05802 -0.0078,-0.05723 -0.0086,-0.05723 -0.01098,-0.05723 -0.01254,-0.05645 -0.0149,-0.05645 -0.01725,-0.05645 -0.01882,-0.05488 -0.02195,-0.05488 -0.01176,-0.02744 -0.01255,-0.02666 c -0.178756,-0.376329 -0.500204,-0.439051 -0.664064,-0.439051 -0.234422,0 -0.519022,0.101923 -0.679746,0.465708 -0.125443,0.269703 -0.145043,0.574687 -0.145043,0.886727 0,0.293223 0.01646,0.644464 0.176404,0.940824 0.168564,0.31596 0.453164,0.394362 0.644464,0.394362 v -0.08546 c -0.152099,0 -0.383385,-0.098 -0.453163,-0.472764 -0.04234,-0.233638 -0.04234,-0.59272 -0.04234,-0.824789 0,-0.249319 0,-0.506477 0.03136,-0.717379 0.0737,-0.465708 0.366137,-0.500205 0.464139,-0.500205 0.12858,0 0.387306,0.06978 0.461004,0.457084 0.0392,0.217958 0.0392,0.515885 0.0392,0.7605 0,0.294007 0,0.559006 -0.04312,0.809108 -0.0588,0.370842 -0.281463,0.488445 -0.457084,0.488445 v 0 0.08546 c 0.210902,0 0.507261,-0.08154 0.68053,-0.453164 0.124659,-0.268919 0.144259,-0.573118 0.144259,-0.882022 z"
         id="path1039" />
      <path
         style="font-style:normal;font-variant:normal;font-weight:normal;font-stretch:normal;letter-spacing:normal;word-spacing:normal;text-anchor:start;fill:#000000;fill-opacity:1;fill-rule:evenodd;stroke:#000000;stroke-width:0;stroke-linecap:butt;stroke-linejoin:miter;stroke-miterlimit:10.43299961;stroke-dasharray:none;stroke-dashoffset:0;stroke-opacity:1"
         inkscape:connector-curvature="0"
         d="m 81.812477,94.685021 v 0.0149 l -0.0016,0.01568 -0.0016,0.01568 -0.0024,0.01646 -0.0031,0.01646 -0.0039,0.01646 -0.0047,0.01725 -0.0055,0.01725 -0.0063,0.01725 -0.0078,0.01725 -0.0086,0.01725 -0.0094,0.01725 -0.01019,0.01646 -0.01176,0.01725 -0.01333,0.01647 -0.01411,0.01646 -0.01568,0.01568 -0.01646,0.0149 -0.01803,0.0149 -0.0196,0.0149 -0.02039,0.01333 -0.02195,0.01333 -0.0243,0.01176 -0.02509,0.01176 -0.02666,0.01098 -0.02823,0.0094 -0.03058,0.0094 -0.03136,0.0078 -0.01725,0.0031 -0.01646,0.0031 -0.01803,0.0031 -0.01725,0.0024 -0.01882,0.0024 -0.01882,0.0024 -0.01882,0.0016 -0.02038,0.0016 c -0.0196,0.0039 -0.03371,0.0196 -0.03371,0.04312 0,0.04234 0.04234,0.04234 0.07683,0.04234 0.380249,0 0.742467,-0.190517 0.746387,-0.486877 v -0.890647 c 0,-0.153668 0,-0.278327 0.156804,-0.406906 0.137203,-0.113683 0.285383,-0.121523 0.370841,-0.125443 0.0196,-0.0031 0.03528,-0.0196 0.03528,-0.04234 0,-0.0392 -0.0243,-0.0392 -0.06194,-0.04312 -0.258727,-0.01568 -0.446108,-0.156804 -0.489229,-0.348105 -0.01176,-0.04234 -0.01176,-0.05018 -0.01176,-0.190517 v -0.774612 c 0,-0.163076 0,-0.289303 -0.187381,-0.437483 -0.15602,-0.120739 -0.425723,-0.159156 -0.559006,-0.159156 -0.0345,0 -0.07683,0 -0.07683,0.04312 0,0.0392 0.02274,0.0392 0.06194,0.04312 0.245399,0.01411 0.437483,0.14034 0.487661,0.338697 0.01254,0.03607 0.01254,0.04312 0.01254,0.184244 v 0.820869 c 0,0.178757 0.03058,0.244615 0.155236,0.370842 0.08232,0.08075 0.196005,0.119955 0.304984,0.1521 -0.319096,0.08938 -0.46022,0.269703 -0.46022,0.496284 z"
         id="path1041" />
    </g>
    <g
       id="g1126"
       transform="matrix(1.4355452,0,0,1.4355452,-88.958438,-33.906141)">
      <path
         style="font-style:normal;font-variant:normal;font-weight:normal;font-stretch:normal;letter-spacing:normal;word-spacing:normal;text-anchor:start;fill:#000000;fill-opacity:1;fill-rule:evenodd;stroke:#000000;stroke-width:0;stroke-linecap:butt;stroke-linejoin:miter;stroke-miterlimit:10.43299961;stroke-dasharray:none;stroke-dashoffset:0;stroke-opacity:1"
         inkscape:connector-curvature="0"
         d="m 85.2261,92.916272 h 0.01568 0.01646 0.01803 l 0.0196,7.84e-4 0.0196,7.84e-4 0.02117,0.0016 0.02117,0.0024 0.02195,0.0024 0.02274,0.0031 0.02274,0.0039 0.02352,0.0047 0.02352,0.0055 0.02352,0.0063 0.02352,0.0078 0.02274,0.0086 0.02274,0.01019 0.02274,0.01098 0.02195,0.01254 0.02195,0.01411 0.02038,0.01568 0.02039,0.01725 0.01882,0.01882 0.01803,0.02038 0.0086,0.01098 0.0086,0.01176 0.0078,0.01176 0.0078,0.01255 0.0071,0.01254 0.0071,0.01333 0.0063,0.01411 0.0063,0.01411 0.0063,0.01568 0.0055,0.0149 0.0047,0.01646 0.0047,0.01647 0.0039,0.01725 0.0039,0.01803 0.0031,0.01803 0.0031,0.01882 0.0024,0.0196 0.0016,0.02038 c 0.0039,0.04626 0.0071,0.098 0.06978,0.098 0.06743,0 0.06743,-0.05488 0.06743,-0.125443 l -0.137203,-0.344185 c -0.0588,-0.07291 -0.160724,-0.131715 -0.206981,-0.151316 0.07448,-0.03606 0.1521,-0.098 0.206981,-0.164644 v 0.31596 l 0.137204,0.344185 V 92.27498 c 0,-0.06194 0,-0.124659 -0.06743,-0.124659 -0.05018,0 -0.06586,0.0392 -0.06978,0.08232 -0.02352,0.453163 -0.29636,0.529997 -0.581743,0.542542 V 91.95036 c 0,-0.261863 0.0737,-0.261863 0.16778,-0.261863 h 0.183461 c 0.500205,0 0.753443,0.269703 0.776964,0.539406 0.0047,0.03136 0.0086,0.09016 0.07135,0.09016 0.06586,0 0.06586,-0.06272 0.06586,-0.128579 v -0.508045 c 0,-0.121523 -0.0078,-0.12858 -0.128579,-0.12858 l -0.0086,0.135636 v 0.183461 c -0.0541,-0.0588 -0.121523,-0.12858 -0.210901,-0.183461 h 0.210901 l 0.0086,-0.135636 h -1.961618 c -0.06978,0 -0.131715,0 -0.131715,0.06978 0,0.06586 0.07291,0.06586 0.105058,0.06586 0.221878,0 0.237559,0.03214 0.237559,0.222661 v 1.957698 l 0.137203,0.0078 v -1.972595 c 0,-0.04626 0,-0.144259 -0.03214,-0.215605 h 0.414747 c -0.04312,0.09095 -0.04312,0.219525 -0.04312,0.254806 v 1.920849 c 0,0.0588 0,0.152884 0.0392,0.226582 h -0.410827 c 0.03214,-0.06978 0.03214,-0.16778 0.03214,-0.214037 l -0.137203,-0.0078 c 0,0.184245 -0.01098,0.221878 -0.217958,0.221878 -0.0588,0 -0.124659,0 -0.124659,0.06743 0,0.06978 0.06194,0.06978 0.131715,0.06978 h 1.129773 c 0.06978,0 0.128579,0 0.128579,-0.06978 0,-0.06743 -0.06586,-0.06743 -0.117603,-0.06743 -0.300279,0 -0.31596,-0.02666 -0.31596,-0.233638 z"
         id="path1043" />
      <polygon
         transform="matrix(0.078402,0,0,-0.078402,25.085494,126.07483)"
         style="font-style:normal;font-variant:normal;font-weight:normal;font-stretch:normal;letter-spacing:normal;word-spacing:normal;text-anchor:start;fill:#000000;fill-opacity:1;fill-rule:evenodd;stroke:#000000;stroke-width:0;stroke-linecap:butt;stroke-linejoin:miter;stroke-miterlimit:10.43299961;stroke-dasharray:none;stroke-dashoffset:0;stroke-opacity:1"
         points="797.35,393.75 797.35,395.73 792.52,395.73 792.52,441.57 797.35,441.57 797.35,443.56 790.52,443.56 790.52,393.75 "
         id="polygon1045" />
      <path
         style="font-style:normal;font-variant:normal;font-weight:normal;font-stretch:normal;letter-spacing:normal;word-spacing:normal;text-anchor:start;fill:#000000;fill-opacity:1;fill-rule:evenodd;stroke:#000000;stroke-width:0;stroke-linecap:butt;stroke-linejoin:miter;stroke-miterlimit:10.43299961;stroke-dasharray:none;stroke-dashoffset:0;stroke-opacity:1"
         inkscape:connector-curvature="0"
         d="m 89.578979,92.622265 -0.326936,-0.776964 c -0.01254,-0.03214 -0.0196,-0.04626 -0.0196,-0.05018 0,-0.0243 0.06586,-0.098 0.230502,-0.113683 0.0392,-0.0039 0.0784,-0.0078 0.0784,-0.07527 0,-0.04626 -0.04783,-0.04626 -0.0588,-0.04626 -0.160724,0 -0.328505,0.01254 -0.492365,0.01254 -0.098,0 -0.33948,-0.01254 -0.437483,-0.01254 -0.02352,0 -0.07135,0 -0.07135,0.0784 0,0.04312 0.0392,0.04312 0.09095,0.04312 0.233637,0 0.257158,0.0392 0.292439,0.124659 l 0.461004,1.090572 -0.824789,0.886726 -0.05018,0.04312 c -0.1913,0.206982 -0.374761,0.268919 -0.574686,0.279896 -0.05018,0.0039 -0.08546,0.0039 -0.08546,0.0784 0,0.0039 0,0.04312 0.05175,0.04312 0.116035,0 0.244614,-0.01254 0.366137,-0.01254 0.14426,0 0.297144,0.01254 0.437483,0.01254 0.0243,0 0.07056,0 0.07056,-0.0784 0,-0.0392 -0.0392,-0.04312 -0.04626,-0.04312 -0.03606,-0.0031 -0.156804,-0.01098 -0.156804,-0.12074 0,-0.06272 0.0588,-0.125443 0.105059,-0.17562 l 0.398282,-0.422587 0.351241,-0.381818 0.395146,0.932984 c 0.01568,0.04312 0.0196,0.04704 0.0196,0.05567 0,0.03058 -0.0737,0.09643 -0.227365,0.112114 -0.04234,0.0039 -0.07683,0.0086 -0.07683,0.07527 0,0.04626 0.04312,0.04626 0.05723,0.04626 0.110547,0 0.38417,-0.01254 0.493149,-0.01254 0.098,0 0.33556,0.01254 0.433563,0.01254 0.02666,0 0.07448,0 0.07448,-0.07448 0,-0.04704 -0.0392,-0.04704 -0.07135,-0.04704 -0.260295,-0.0031 -0.268919,-0.01568 -0.335561,-0.170916 -0.151316,-0.363785 -0.413962,-0.972969 -0.503341,-1.206607 0.265783,-0.274407 0.675042,-0.73933 0.799701,-0.848309 0.114467,-0.09408 0.262647,-0.187381 0.496284,-0.199141 0.05175,-0.0039 0.08624,-0.0039 0.08624,-0.0784 0,-0.0039 0,-0.04312 -0.05018,-0.04312 -0.117603,0 -0.246966,0.01254 -0.367705,0.01254 -0.145044,0 -0.293223,-0.01254 -0.433563,-0.01254 -0.02352,0 -0.0737,0 -0.0737,0.0784 0,0.02666 0.0196,0.0392 0.04626,0.04312 0.03607,0.0031 0.156804,0.01176 0.156804,0.120739 0,0.05566 -0.04234,0.105842 -0.07448,0.141123 z"
         id="path1047" />
      <polygon
         transform="matrix(0.078402,0,0,-0.078402,25.085494,126.07483)"
         style="font-style:normal;font-variant:normal;font-weight:normal;font-stretch:normal;letter-spacing:normal;word-spacing:normal;text-anchor:start;fill:#000000;fill-opacity:1;fill-rule:evenodd;stroke:#000000;stroke-width:0;stroke-linecap:butt;stroke-linejoin:miter;stroke-miterlimit:10.43299961;stroke-dasharray:none;stroke-dashoffset:0;stroke-opacity:1"
         points="851.6,443.56 844.78,443.56 844.78,441.57 849.6,441.57 849.6,395.73 844.78,395.73 844.78,393.75 851.6,393.75 "
         id="polygon1049" />
    </g>
    <text
       xml:space="preserve"
       style="font-style:normal;font-variant:normal;font-weight:normal;font-stretch:normal;font-size:2.8610189px;line-height:125%;font-family:'Fira Mono';-inkscape-font-specification:'Fira Mono, Normal';text-align:start;letter-spacing:0px;word-spacing:0px;writing-mode:lr-tb;text-anchor:start;fill:#000000;fill-opacity:1;stroke:none;stroke-width:0.26822051px;stroke-linecap:butt;stroke-linejoin:miter;stroke-opacity:1"
       x="50.123634"
       y="116.97318"
       id="text1143"><tspan
         sodipodi:role="line"
         id="tspan1141"
         x="50.123634"
         y="116.97318"
         style="font-size:2.8610189px;stroke-width:0.26822051px">polynomials reachable </tspan><tspan
         sodipodi:role="line"
         x="50.123634"
         y="120.54945"
         style="font-size:2.8610189px;stroke-width:0.26822051px"
         id="tspan1145">by small degree </tspan><tspan
         sodipodi:role="line"
         x="50.123634"
         y="124.12573"
         style="font-size:2.8610189px;stroke-width:0.26822051px"
         id="tspan1147">derivations</tspan></text>
  </g>
</svg>
